<svg width="17" height="15" viewBox="0 0 17 15" fill="none" xmlns="http://www.w3.org/2000/svg">
<path fill-rule="evenodd" clip-rule="evenodd" d="M4.00902 9C3.70902 9 3.40902 8.9 3.20902 8.6L0.209017 4.6C0.00901699 4.3 -0.090983 3.9 0.109017 3.6C0.309017 3.3 0.609017 3 1.00902 3H7.00902C7.40902 3 7.70902 3.2 7.90902 3.6C8.10902 4 8.00902 4.3 7.80902 4.6L4.80902 8.6C4.60902 8.9 4.30902 9 4.00902 9ZM3.00902 5H5.00902L4.00902 6.3L3.00902 5ZM12.009 6C11.709 6 11.409 5.9 11.209 5.6L8.20902 1.6C8.00902 1.3 7.90902 0.9 8.10902 0.5C8.30902 0.1 8.60902 0 9.00902 0H15.009C15.409 0 15.709 0.2 15.909 0.6C16.109 0.9 16.009 1.3 15.809 1.6L12.809 5.6C12.609 5.9 12.309 6 12.009 6ZM11.009 2L12.009 3.3L13.009 2H11.009ZM13.909 6.6C14.109 7.1 13.909 7.7 13.409 8L9.00902 9.7V13H11.009C11.609 13 12.009 13.4 12.009 14C12.009 14.6 11.609 15 11.009 15H5.00902C4.40902 15 4.00902 14.6 4.00902 14C4.00902 13.4 4.40902 13 5.00902 13H7.00902V10.5L3.40902 11.9C3.20902 12 3.10902 12 3.00902 12C2.60902 12 2.20902 11.8 2.00902 11.3C1.80902 10.8 2.10902 10.2 2.60902 10L12.609 6C13.109 5.8 13.709 6.1 13.909 6.6Z" fill="black"/>
</svg>
