<svg width="25" height="22" viewBox="0 0 25 22" fill="none" xmlns="http://www.w3.org/2000/svg">
<path d="M0.781245 0H3.73539C3.76352 0 3.78748 0.0126802 3.81352 0.0158502C3.91407 0.0247282 4.0118 0.054217 4.10079 0.102531C4.18977 0.150845 4.26817 0.216978 4.33122 0.296926C4.39584 0.377185 4.44368 0.46994 4.47185 0.569548C4.48018 0.598079 4.49789 0.620269 4.5031 0.649856L4.95101 3.12988L24.0696 4.26369C24.1426 4.25841 24.2071 4.26897 24.2884 4.27743C24.3975 4.28733 24.5033 4.32039 24.599 4.37445C24.6946 4.42852 24.778 4.50239 24.8438 4.59127C24.9095 4.68015 24.956 4.78205 24.9804 4.89037C25.0048 4.99868 25.0064 5.11098 24.9853 5.21998L23.6519 12.5903C23.3478 13.7326 22.4103 14.8865 20.9988 14.8865H7.07183L7.36975 16.5402H19.0884C19.8019 16.541 20.4859 16.8288 20.9904 17.3404C21.495 17.8521 21.779 18.5458 21.7801 19.2695C21.7792 19.9935 21.4954 20.6875 20.9908 21.1993C20.4862 21.7112 19.802 21.9992 19.0884 22C18.375 21.9989 17.6911 21.7108 17.1867 21.199C16.6824 20.6871 16.3986 19.9933 16.3978 19.2695C16.3978 18.8596 16.4937 18.4739 16.6541 18.1252H9.45828C9.61869 18.4739 9.71452 18.8596 9.71452 19.2695C9.7137 19.9933 9.42999 20.6871 8.92561 21.199C8.42124 21.7108 7.73735 21.9989 7.02392 22C6.3103 21.9992 5.62615 21.7112 5.12154 21.1993C4.61694 20.6875 4.33309 19.9935 4.33227 19.2695C4.33227 18.1991 4.94789 17.2809 5.83434 16.8329L3.08436 1.58501H0.781245C0.574046 1.58501 0.375333 1.50152 0.228821 1.35289C0.0823096 1.20427 0 1.00269 0 0.792507C0 0.582321 0.0823096 0.380744 0.228821 0.23212C0.375333 0.0834961 0.574046 3.13202e-09 0.781245 0ZM6.22705 10.2022L9.53744 10.255L9.35723 8.30865L5.86559 8.20298L6.22705 10.2022ZM22.7665 8.71652L19.4582 8.61614L19.2415 10.4093L22.4509 10.46L22.7665 8.71652ZM18.4124 8.58338L14.777 8.47349V10.3385L18.1936 10.3924L18.4124 8.58338ZM14.777 7.41575L18.5395 7.52987L18.7801 5.53804L14.776 5.30029V7.41575H14.777ZM13.7353 5.239L10.0999 5.02344L10.3083 7.27944L13.7353 7.38405V5.239ZM14.777 11.3952V13.3014H17.8436L18.0676 11.448L14.776 11.3952H14.777ZM13.7353 11.3783L10.6833 11.3297L10.8656 13.3014H13.7343V11.3783H13.7353ZM13.7353 10.3216V8.44073L10.4062 8.34035L10.5854 10.2709L13.7343 10.3216H13.7353ZM5.67288 7.13891L9.25828 7.24774L9.04578 4.96109L5.23955 4.73497L5.67288 7.13891ZM19.8228 5.59933L19.5863 7.56157L22.9572 7.66407C23.0988 6.88213 23.2124 6.27349 23.3082 5.80644L19.8228 5.59933ZM22.1311 12.2405L22.2624 11.5146L19.1155 11.4639L18.8936 13.3025H20.9999C21.6686 13.3025 22.0415 12.566 22.1311 12.2405ZM9.6364 11.3128L6.41871 11.2621L6.78746 13.3014H9.82077L9.6364 11.3128ZM17.9613 19.2695C17.9613 19.9014 18.4666 20.415 19.0895 20.415C19.3785 20.3996 19.6507 20.2722 19.85 20.0592C20.0492 19.8462 20.1603 19.5637 20.1603 19.2701C20.1603 18.9764 20.0492 18.694 19.85 18.481C19.6507 18.268 19.3785 18.1406 19.0895 18.1252C18.4666 18.1252 17.9613 18.6387 17.9613 19.2695ZM7.02392 20.415C7.31298 20.3996 7.58519 20.2722 7.78441 20.0592C7.98364 19.8462 8.09471 19.5637 8.09471 19.2701C8.09471 18.9764 7.98364 18.694 7.78441 18.481C7.58519 18.268 7.31298 18.1406 7.02392 18.1252C6.73052 18.1342 6.45212 18.2588 6.24774 18.4725C6.04335 18.6863 5.92905 18.9723 5.92905 19.2701C5.92905 19.5678 6.04335 19.8539 6.24774 20.0676C6.45212 20.2814 6.73052 20.4059 7.02392 20.415Z" fill="black"/>
</svg>
