<svg width="16" height="14" viewBox="0 0 16 14" fill="none" xmlns="http://www.w3.org/2000/svg">
<path fill-rule="evenodd" clip-rule="evenodd" d="M8 13.6C7.5 13.6 7 13.4 6.6 13L1 7.3C0.9 7.2 0.9 7.1 0.8 7C0 5.9 -0.2 4.6 0.2 3.3C0.6 1.7 1.9 0.4 3.6 0.1C3.9 0 4.2 0 4.5 0C6.2 0 7.3 1 8 1.9C8.7 1 9.8 0 11.5 0C11.8 0 12.2 0 12.5 0.1C14.1 0.5 15.4 1.7 15.8 3.3C16.2 4.7 16 6 15.2 7.1C15.2 7.2 15.1 7.3 15 7.3L9.4 13C9 13.4 8.5 13.6 8 13.6ZM2.5 6L8 11.6L13.5 6C14 5.4 14.1 4.6 13.9 3.9C13.7 3 13 2.3 12.1 2.1C11.9 2 11.7 2 11.5 2C9.8 2 9 4.3 8.9 4.3C8.8 4.7 8.4 5 8 5C7.6 5 7.2 4.7 7 4.3C7 4.3 6.3 2 4.5 2C4.3 2 4.1 2 4 2.1C3.1 2.3 2.3 3 2.1 3.8C1.9 4.6 2 5.4 2.5 6Z" fill="black"/>
</svg>
