<?xml version="1.0" standalone="no"?>
<!DOCTYPE svg PUBLIC "-//W3C//DTD SVG 1.1//EN" "http://www.w3.org/Graphics/SVG/1.1/DTD/svg11.dtd" >
<svg>
<metadata>
Created by FontForge 20120731 at Thu Jul  4 00:10:04 2019
 By www
Copyright (c) 2004 ParaType, Inc., ParaType Ltd. All rights reserved.
</metadata>
<defs>
<font id="QuadratGroteskNewW03-Rg" horiz-adv-x="818" >
  <font-face 
    font-family="QuadratGroteskNewW03-Rg"
    font-weight="400"
    font-stretch="normal"
    units-per-em="1000"
    panose-1="2 11 5 5 3 2 3 2 2 4"
    ascent="800"
    descent="-200"
    x-height="564"
    cap-height="700"
    bbox="-470.286 -297 1419 950"
    underline-thickness="50"
    underline-position="-75"
    unicode-range="U+000D-FEFF"
  />
<missing-glyph horiz-adv-x="500" 
d="M442 8v548h-384v-548h384zM50 564h400v-564h-400v564z" />
    <glyph glyph-name="uniF460" unicode="&#x410;`" horiz-adv-x="766" 
d="M284 580l-65 -341h328l-65 341h-198zM177 19q-1 -4 -4.5 -11.5t-17.5 -7.5h-104q-8 0 -10 5q-3 3 0 14l137 662q1 5 5 12t17 7h366q13 0 17 -7t5 -12l137 -662q3 -11 0 -14q-3 -5 -10 -5h-104q-14 0 -17.5 7.5t-4.5 11.5l-19 100h-374zM384 767q-7 -9 -16 -10.5t-11 -1.5
h-66q-8 0 -11 6.5t1 14.5l70 155q3 7 9.5 13t20.5 6h125q8 0 10.5 -6t-2.5 -12z" />
    <glyph glyph-name="uniF461" unicode="&#x415;`" horiz-adv-x="798" 
d="M200 410h420q5 0 9.5 -4.5t4.5 -9.5v-92q0 -5 -4.5 -9.5t-9.5 -4.5h-420v-170h544q5 0 9.5 -4.5t4.5 -9.5v-92q0 -5 -4.5 -9.5t-9.5 -4.5h-660q-5 0 -9.5 4.5t-4.5 9.5v672q0 5 4.5 9.5t9.5 4.5h660q5 0 9.5 -4.5t4.5 -9.5v-92q0 -5 -4.5 -9.5t-9.5 -4.5h-544v-170z
M400 767q-7 -9 -16 -10.5t-11 -1.5h-66q-8 0 -11 6.5t1 14.5l70 155q3 7 9.5 13t20.5 6h125q8 0 10.5 -6t-2.5 -12z" />
    <glyph glyph-name="uniF462" unicode="&#x418;`" 
d="M622 687q6 7 12 10t15 3h85q5 0 9.5 -4.5t4.5 -9.5v-672q0 -5 -4.5 -9.5t-9.5 -4.5h-102q-5 0 -9.5 4.5t-4.5 9.5v495l-422 -496q-6 -7 -12 -10t-15 -3h-85q-5 0 -9.5 4.5t-4.5 9.5v672q0 5 4.5 9.5t9.5 4.5h102q5 0 9.5 -4.5t4.5 -9.5v-495zM410 767q-7 -9 -16 -10.5
t-11 -1.5h-66q-8 0 -11 6.5t1 14.5l70 155q3 7 9.5 13t20.5 6h125q8 0 10.5 -6t-2.5 -12z" />
    <glyph glyph-name="uniF463" unicode="&#x41e;`" horiz-adv-x="830" 
d="M790 350q0 -71 -27 -139t-81 -121q-19 -19 -45 -37.5t-59.5 -33.5t-74 -24.5t-88.5 -9.5t-88.5 9.5t-74 24.5t-59.5 33.5t-45 37.5q-54 53 -81 121t-27 139t27 139t81 121q19 19 45 37.5t59.5 33.5t74 24.5t88.5 9.5t88.5 -9.5t74 -24.5t59.5 -33.5t45 -37.5
q54 -53 81 -121t27 -139zM655 350q0 54 -18 97.5t-47 75.5q-27 29 -71 51.5t-104 22.5t-104 -22.5t-71 -51.5q-29 -32 -47 -75.5t-18 -97.5t18 -97.5t47 -75.5q27 -29 71 -51.5t104 -22.5t104 22.5t71 51.5q29 32 47 75.5t18 97.5zM416 767q-7 -9 -16 -10.5t-11 -1.5h-66
q-8 0 -11 6.5t1 14.5l70 155q3 7 9.5 13t20.5 6h125q8 0 10.5 -6t-2.5 -12z" />
    <glyph glyph-name="uniF464" unicode="&#x423;`" horiz-adv-x="746" 
d="M179 291q-6 0 -14.5 2t-12.5 16l-112 377q-2 6 1.5 10t9.5 4h95q6 0 14.5 -2t12.5 -16l77 -271h256l67 271q3 14 12.5 16t14.5 2h95q14 0 11 -14l-142 -536q-3 -11 -8 -26t-12.5 -31t-18.5 -31t-25 -27q-22 -17 -53 -26t-63 -9h-210q-5 0 -9.5 4.5t-4.5 9.5v92
q0 5 4.5 9.5t9.5 4.5h190q12 0 29.5 4t28.5 13q21 16 27 45l27 109h-297zM374 767q-7 -9 -16 -10.5t-11 -1.5h-66q-8 0 -11 6.5t1 14.5l70 155q3 7 9.5 13t20.5 6h125q8 0 10.5 -6t-2.5 -12z" />
    <glyph glyph-name="uniF465" unicode="&#x42b;`" horiz-adv-x="1004" 
d="M920 700q5 0 9.5 -4.5t4.5 -9.5v-672q0 -5 -4.5 -9.5t-9.5 -4.5h-102q-5 0 -9.5 4.5t-4.5 9.5v672q0 5 4.5 9.5t9.5 4.5h102zM520 430q35 0 75.5 -15t69.5 -42q10 -9 21 -23t21 -33.5t16.5 -45t6.5 -56.5q0 -32 -6.5 -57t-16.5 -44.5t-21 -33.5t-21 -23
q-29 -27 -69.5 -42t-75.5 -15h-436q-5 0 -9.5 4.5t-4.5 9.5v672q0 5 4.5 9.5t9.5 4.5h102q5 0 9.5 -4.5t4.5 -9.5v-256h320zM200 120h297q44 0 71 26.5t27 68.5t-27 68.5t-71 26.5h-297v-190zM503 767q-7 -9 -16 -10.5t-11 -1.5h-66q-8 0 -11 6.5t1 14.5l70 155q3 7 9.5 13
t20.5 6h125q8 0 10.5 -6t-2.5 -12z" />
    <glyph glyph-name="uniF466" unicode="&#x42d;`" horiz-adv-x="780" 
d="M599 410q-9 39 -28 70.5t-44 54.5q-32 29 -76 45.5t-90 16.5q-37 0 -77 -12.5t-78 -46.5q-23 -20 -36.5 -39.5t-24.5 -39.5q-3 -5 -7.5 -9t-16.5 3l-76 42q-12 7 -9.5 16.5t4.5 14.5q17 30 41 60t54 53q40 32 96.5 54t131.5 22q79 0 142.5 -24.5t109.5 -63.5
q54 -46 89.5 -117t35.5 -160t-35.5 -160t-89.5 -117q-46 -39 -109.5 -63.5t-142.5 -24.5q-75 0 -131.5 22t-96.5 54q-30 23 -54 53t-41 60q-2 5 -4.5 14.5t9.5 16.5l76 42q12 7 16.5 3t7.5 -9q11 -20 24.5 -39.5t36.5 -39.5q38 -34 78 -46.5t77 -12.5q46 0 90 16.5t76 45.5
q25 23 44 54.5t28 70.5h-323q-5 0 -9.5 4.5t-4.5 9.5v92q0 5 4.5 9.5t9.5 4.5h323zM391 767q-7 -9 -16 -10.5t-11 -1.5h-66q-8 0 -11 6.5t1 14.5l70 155q3 7 9.5 13t20.5 6h125q8 0 10.5 -6t-2.5 -12z" />
    <glyph glyph-name="uniF467" unicode="&#x42e;`" horiz-adv-x="1029" 
d="M275 410q9 70 37.5 120.5t58.5 81.5q16 16 39.5 34.5t55.5 33.5t72.5 25t90.5 10q88 0 151.5 -30t106.5 -73q19 -20 37.5 -45.5t33 -58.5t23 -72.5t8.5 -85.5q0 -47 -8.5 -86t-23 -72t-33 -59t-37.5 -45q-43 -43 -106.5 -73t-151.5 -30q-50 0 -90.5 10t-72.5 25t-55.5 33
t-39.5 35q-30 31 -58.5 81.5t-37.5 120.5h-75v-276q0 -5 -4.5 -9.5t-9.5 -4.5h-102q-5 0 -9.5 4.5t-4.5 9.5v672q0 5 4.5 9.5t9.5 4.5h102q5 0 9.5 -4.5t4.5 -9.5v-276h75zM854 350q0 56 -18.5 102t-49.5 78t-72 49.5t-85 17.5t-85 -17.5t-72 -49.5t-49.5 -78t-18.5 -102
t18.5 -102t49.5 -78t72 -49.5t85 -17.5t85 17.5t72 49.5t49.5 78t18.5 102zM515 767q-7 -9 -16 -10.5t-11 -1.5h-66q-8 0 -11 6.5t1 14.5l70 155q3 7 9.5 13t20.5 6h125q8 0 10.5 -6t-2.5 -12z" />
    <glyph glyph-name="uniF468" unicode="&#x42f;`" horiz-adv-x="804" 
d="M604 580h-319q-44 0 -71 -26.5t-27 -68.5t27 -68.5t71 -26.5h319v190zM720 700q5 0 9.5 -4.5t4.5 -9.5v-672q0 -5 -4.5 -9.5t-9.5 -4.5h-102q-5 0 -9.5 4.5t-4.5 9.5v256h-243l-157 -252q-4 -7 -10.5 -12.5t-21.5 -5.5h-111q-8 0 -10.5 5.5t2.5 12.5l172 261
q-38 8 -65 24t-44 32q-34 32 -49 70t-15 82q0 54 19.5 92.5t45.5 63.5q29 27 68.5 42t80.5 15h454zM403 767q-7 -9 -16 -10.5t-11 -1.5h-66q-8 0 -11 6.5t1 14.5l70 155q3 7 9.5 13t20.5 6h125q8 0 10.5 -6t-2.5 -12z" />
    <glyph glyph-name="uniF469" unicode="&#x401;`" horiz-adv-x="798" 
d="M200 410h420q5 0 9.5 -4.5t4.5 -9.5v-92q0 -5 -4.5 -9.5t-9.5 -4.5h-420v-170h544q5 0 9.5 -4.5t4.5 -9.5v-92q0 -5 -4.5 -9.5t-9.5 -4.5h-660q-5 0 -9.5 4.5t-4.5 9.5v672q0 5 4.5 9.5t9.5 4.5h660q5 0 9.5 -4.5t4.5 -9.5v-92q0 -5 -4.5 -9.5t-9.5 -4.5h-544v-170z
M291 871q5 0 9.5 -4.5t4.5 -9.5v-85q0 -5 -4.5 -9.5t-9.5 -4.5h-160q-5 0 -9.5 4.5t-4.5 9.5v85q0 5 4.5 9.5t9.5 4.5h160zM691 871q5 0 9.5 -4.5t4.5 -9.5v-85q0 -5 -4.5 -9.5t-9.5 -4.5h-160q-5 0 -9.5 4.5t-4.5 9.5v85q0 5 4.5 9.5t9.5 4.5h160zM425 767q-7 -9 -16 -10.5
t-11 -1.5h-66q-8 0 -11 6.5t1 14.5l70 155q3 7 9.5 13t20.5 6h125q8 0 10.5 -6t-2.5 -12z" />
    <glyph glyph-name="uniF46A" unicode="&#x430;`" horiz-adv-x="694" 
d="M436 448h-178l-48 -242h274zM187 90l-14 -71q-1 -5 -5 -12t-17 -7h-100q-8 0 -10 5q-2 2 -1.5 6.5t1.5 7.5l118 526q2 6 7 12.5t16 6.5h330q11 0 16 -6.5t7 -12.5l118 -526q1 -3 1.5 -7.5t-1.5 -6.5q-3 -5 -10 -5h-100q-13 0 -17 7t-5 12l-14 71h-320zM347 616
q-9 -12 -27 -12h-59q-8 0 -11 6.5t1 14.5l66 147q3 7 9.5 13t20.5 6h116q8 0 10.5 -6t-2.5 -12z" />
    <glyph glyph-name="uniF46B" unicode="&#x435;`" horiz-adv-x="740" 
d="M589 340q5 0 9.5 -4.5t4.5 -9.5v-88q0 -5 -4.5 -9.5t-9.5 -4.5h-394v-108h491q5 0 9.5 -4.5t4.5 -9.5v-88q0 -5 -4.5 -9.5t-9.5 -4.5h-602q-5 0 -9.5 4.5t-4.5 9.5v536q0 5 4.5 9.5t9.5 4.5h602q5 0 9.5 -4.5t4.5 -9.5v-88q0 -5 -4.5 -9.5t-9.5 -4.5h-491v-108h394z
M370 616q-9 -12 -27 -12h-59q-8 0 -11 6.5t1 14.5l66 147q3 7 9.5 13t20.5 6h116q8 0 10.5 -6t-2.5 -12z" />
    <glyph glyph-name="uniF46C" unicode="&#x438;`" horiz-adv-x="762" 
d="M692 14q0 -5 -4.5 -9.5t-9.5 -4.5h-97q-5 0 -9.5 4.5t-4.5 9.5v380l-371 -381q-6 -6 -12 -9.5t-16 -3.5h-84q-5 0 -9.5 4.5t-4.5 9.5v536q0 5 4.5 9.5t9.5 4.5h97q5 0 9.5 -4.5t4.5 -9.5v-380l371 381q6 6 12 9.5t16 3.5h84q5 0 9.5 -4.5t4.5 -9.5v-536zM381 616
q-9 -12 -27 -12h-59q-8 0 -11 6.5t1 14.5l66 147q3 7 9.5 13t20.5 6h116q8 0 10.5 -6t-2.5 -12z" />
    <glyph glyph-name="uniF46D" unicode="&#x43e;`" horiz-adv-x="698" 
d="M349 577q78 0 132 -26.5t89 -59.5q45 -43 66.5 -97t21.5 -112t-21.5 -112t-66.5 -97q-35 -33 -89 -59.5t-132 -26.5t-132 26.5t-89 59.5q-45 43 -66.5 97t-21.5 112t21.5 112t66.5 97q35 33 89 59.5t132 26.5zM349 463q-46 0 -77.5 -16t-48.5 -33q-19 -18 -36 -50.5
t-17 -81.5t17 -81.5t36 -50.5q17 -17 48.5 -33t77.5 -16t77.5 16t48.5 33q19 18 36 50.5t17 81.5t-17 81.5t-36 50.5q-17 17 -48.5 33t-77.5 16zM349 616q-9 -12 -27 -12h-59q-8 0 -11 6.5t1 14.5l66 147q3 7 9.5 13t20.5 6h116q8 0 10.5 -6t-2.5 -12z" />
    <glyph glyph-name="uniF46E" unicode="&#x443;`" horiz-adv-x="663" 
d="M495 546q3 14 12.5 16t14.5 2h90q14 0 11 -14l-112 -419q-7 -25 -19.5 -53t-38.5 -48q-20 -15 -46 -22.5t-52 -7.5h-202q-5 0 -9.5 4.5t-4.5 9.5v88q0 5 4.5 9.5t9.5 4.5h175q14 0 28.5 3.5t22.5 10.5q11 8 16 19.5t7 20.5l13 53h-255q-6 0 -14.5 2t-12.5 16l-93 309
q-2 6 1.5 10t9.5 4h90q6 0 14.5 -2t12.5 -16l58 -207h218zM332 616q-9 -12 -27 -12h-59q-8 0 -11 6.5t1 14.5l66 147q3 7 9.5 13t20.5 6h116q8 0 10.5 -6t-2.5 -12z" />
    <glyph glyph-name="uniF46F" unicode="&#x44b;`" horiz-adv-x="933" 
d="M499 350q35 0 66 -13t54 -34q20 -20 36.5 -51.5t16.5 -76.5t-16.5 -76.5t-36.5 -51.5q-23 -21 -54 -34t-66 -13h-415q-5 0 -9.5 4.5t-4.5 9.5v536q0 5 4.5 9.5t9.5 4.5h97q5 0 9.5 -4.5t4.5 -9.5v-200h304zM195 116h286q30 0 45.5 18t15.5 41t-15.5 41t-45.5 18h-286
v-118zM863 14q0 -5 -4.5 -9.5t-9.5 -4.5h-97q-5 0 -9.5 4.5t-4.5 9.5v536q0 5 4.5 9.5t9.5 4.5h97q5 0 9.5 -4.5t4.5 -9.5v-536zM467 616q-9 -12 -27 -12h-59q-8 0 -11 6.5t1 14.5l66 147q3 7 9.5 13t20.5 6h116q8 0 10.5 -6t-2.5 -12z" />
    <glyph glyph-name="uniF470" unicode="&#x44d;`" horiz-adv-x="652" 
d="M114 205q12 7 16.5 3t7.5 -9q9 -16 22 -32t30 -29q26 -20 54.5 -28.5t55.5 -8.5q53 0 103 30t73 93h-242q-5 0 -9.5 4.5t-4.5 9.5v88q0 5 4.5 9.5t9.5 4.5h242q-23 63 -73 93t-103 30q-27 0 -55.5 -8.5t-54.5 -28.5q-17 -13 -30 -29t-22 -32q-3 -5 -7.5 -9t-16.5 3
l-69 38q-12 7 -9.5 16.5t4.5 14.5q11 20 32.5 44.5t44.5 42.5q34 26 80 43.5t106 18.5q65 1 117.5 -19.5t90.5 -53.5q45 -38 73 -95t28 -127t-28 -127t-73 -95q-38 -33 -90.5 -53.5t-117.5 -19.5q-60 1 -106 18.5t-80 43.5q-23 18 -44.5 42.5t-32.5 44.5q-2 5 -4.5 14.5
t9.5 16.5zM326 616q-9 -12 -27 -12h-59q-8 0 -11 6.5t1 14.5l66 147q3 7 9.5 13t20.5 6h116q8 0 10.5 -6t-2.5 -12z" />
    <glyph glyph-name="uniF471" unicode="&#x44e;`" horiz-adv-x="871" 
d="M257 340q8 56 31.5 93.5t44.5 59.5q35 36 86 60t122 24q40 0 72.5 -8t58 -20t45 -27t32.5 -28q38 -39 60 -95t22 -117t-22 -117t-60 -95q-13 -14 -32.5 -28.5t-45 -26.5t-58 -20t-72.5 -8q-71 0 -122 24t-86 60q-21 22 -44.5 59.5t-31.5 93.5h-62v-210q0 -5 -4.5 -9.5
t-9.5 -4.5h-97q-5 0 -9.5 4.5t-4.5 9.5v536q0 5 4.5 9.5t9.5 4.5h97q5 0 9.5 -4.5t4.5 -9.5v-210h62zM541 463q-45 0 -73.5 -17.5t-42.5 -33.5q-4 -5 -11.5 -15t-14.5 -26t-12.5 -38.5t-5.5 -50.5q0 -29 5.5 -51t12.5 -38t14.5 -26t11.5 -15q14 -16 42.5 -33.5t73.5 -17.5
t73.5 17.5t42.5 33.5q4 5 11.5 15t14.5 26t12.5 38t5.5 51q0 28 -5.5 50.5t-12.5 38.5t-14.5 26t-11.5 15q-14 16 -42.5 33.5t-73.5 17.5zM436 616q-9 -12 -27 -12h-59q-8 0 -11 6.5t1 14.5l66 147q3 7 9.5 13t20.5 6h116q8 0 10.5 -6t-2.5 -12z" />
    <glyph glyph-name="uniF472" unicode="&#x44f;`" horiz-adv-x="748" 
d="M678 14q0 -5 -4.5 -9.5t-9.5 -4.5h-97q-5 0 -9.5 4.5t-4.5 9.5v200h-228l-125 -196q-5 -7 -11.5 -12.5t-20.5 -5.5h-107q-7 0 -10 5.5t2 12.5l136 201q-35 7 -56 21.5t-28 20.5q-21 19 -37 51t-16 77t16.5 76.5t36.5 51.5q23 21 54 34t66 13h439q5 0 9.5 -4.5t4.5 -9.5
v-536zM553 448h-310q-30 0 -45.5 -18t-15.5 -41t15.5 -41t45.5 -18h310v118zM374 616q-9 -12 -27 -12h-59q-8 0 -11 6.5t1 14.5l66 147q3 7 9.5 13t20.5 6h116q8 0 10.5 -6t-2.5 -12z" />
    <glyph glyph-name="uniF473" unicode="&#x451;`" horiz-adv-x="740" 
d="M589 340q5 0 9.5 -4.5t4.5 -9.5v-88q0 -5 -4.5 -9.5t-9.5 -4.5h-394v-108h491q5 0 9.5 -4.5t4.5 -9.5v-88q0 -5 -4.5 -9.5t-9.5 -4.5h-602q-5 0 -9.5 4.5t-4.5 9.5v536q0 5 4.5 9.5t9.5 4.5h602q5 0 9.5 -4.5t4.5 -9.5v-88q0 -5 -4.5 -9.5t-9.5 -4.5h-491v-108h394z
M642 626q0 -5 -4.5 -9.5t-9.5 -4.5h-125q-5 0 -9.5 4.5t-4.5 9.5v64q0 5 4.5 9.5t9.5 4.5h125q5 0 9.5 -4.5t4.5 -9.5v-64zM280 626q0 -5 -4.5 -9.5t-9.5 -4.5h-125q-5 0 -9.5 4.5t-4.5 9.5v64q0 5 4.5 9.5t9.5 4.5h125q5 0 9.5 -4.5t4.5 -9.5v-64zM398 616q-9 -12 -27 -12
h-59q-8 0 -11 6.5t1 14.5l66 147q3 7 9.5 13t20.5 6h116q8 0 10.5 -6t-2.5 -12z" />
    <glyph glyph-name="uniFB01" unicode="fi" horiz-adv-x="792" 
d="M483 340q5 0 9.5 -4.5t4.5 -9.5v-88q0 -5 -4.5 -9.5t-9.5 -4.5h-288v-210q0 -5 -4.5 -9.5t-9.5 -4.5h-97q-5 0 -9.5 4.5t-4.5 9.5v536q0 5 4.5 9.5t9.5 4.5h624q5 0 9.5 -4.5t4.5 -9.5v-536q0 -5 -4.5 -9.5t-9.5 -4.5h-99q-5 0 -9.5 4.5t-4.5 9.5v434h-400v-108h288z" />
    <glyph glyph-name="uniFB02" unicode="fl" horiz-adv-x="1077" 
d="M483 340q5 0 9.5 -4.5t4.5 -9.5v-88q0 -5 -4.5 -9.5t-9.5 -4.5h-288v-210q0 -5 -4.5 -9.5t-9.5 -4.5h-97q-5 0 -9.5 4.5t-4.5 9.5v536q0 5 4.5 9.5t9.5 4.5h624q5 0 9.5 -4.5t4.5 -9.5v-434h321q5 0 9.5 -4.5t4.5 -9.5v-88q0 -5 -4.5 -9.5t-9.5 -4.5h-434q-5 0 -9.5 4.5
t-4.5 9.5v434h-400v-108h288z" />
    <glyph glyph-name=".notdef" horiz-adv-x="500" 
d="M442 8v548h-384v-548h384zM50 564h400v-564h-400v564z" />
    <glyph glyph-name="glyph1" horiz-adv-x="0" 
 />
    <glyph glyph-name="glyph1" horiz-adv-x="0" 
 />
    <glyph glyph-name="uni000D" unicode="&#xd;" horiz-adv-x="233" 
 />
    <glyph glyph-name="space" unicode=" " horiz-adv-x="233" 
 />
    <glyph glyph-name="exclam" unicode="!" horiz-adv-x="380" 
d="M290 14q0 -5 -4.5 -9.5t-9.5 -4.5h-172q-5 0 -9.5 4.5t-4.5 9.5v143q0 5 4.5 9.5t9.5 4.5h172q5 0 9.5 -4.5t4.5 -9.5v-143zM238 233q-2 -13 -14 -13h-68q-12 0 -14 13l-47 412v69q0 5 4.5 9.5t9.5 4.5h162q5 0 9.5 -4.5t4.5 -9.5v-69z" />
    <glyph glyph-name="quotedbl" unicode="&#x22;" horiz-adv-x="470" 
d="M173 425q-2 -13 -14 -13h-68q-12 0 -14 13l-37 209v60q0 5 4.5 9.5t9.5 4.5h142q5 0 9.5 -4.5t4.5 -9.5v-60zM393 425q-2 -13 -14 -13h-68q-12 0 -14 13l-37 209v60q0 5 4.5 9.5t9.5 4.5h142q5 0 9.5 -4.5t4.5 -9.5v-60z" />
    <glyph glyph-name="numbersign" unicode="#" horiz-adv-x="790" 
d="M727 535q11 0 12 -8t0 -14l-10 -69q-2 -14 -11 -16.5t-11 -2.5h-113l-22 -150h117q11 0 12 -8t0 -14l-10 -69q-2 -14 -11 -16.5t-11 -2.5h-113l-21 -146q-2 -14 -11 -16.5t-11 -2.5h-86q-11 0 -12 8t0 14l21 143h-136l-21 -146q-2 -14 -11 -16.5t-11 -2.5h-86
q-11 0 -12 8t0 14l21 143h-117q-11 0 -12 8t0 14l10 69q2 14 11 16.5t11 2.5h113l22 150h-117q-11 0 -12 8t0 14l10 69q2 14 11 16.5t11 2.5h113l21 146q2 14 11 16.5t11 2.5h86q11 0 12 -8t0 -14l-21 -143h136l21 146q2 14 11 16.5t11 2.5h86q11 0 12 -8t0 -14l-21 -143
h117zM453 275l22 150h-138l-22 -150h138z" />
    <glyph glyph-name="dollar" unicode="$" horiz-adv-x="825" 
d="M536 665q32 0 57 -5t43.5 -12.5t30.5 -15.5t19 -14q24 -20 41.5 -52.5t17.5 -73.5v-2q0 -5 -4.5 -10t-11.5 -5h-108q-8 0 -12 6t-4 9v2q0 8 -2.5 18.5t-12.5 20.5q-11 11 -25.5 13.5t-25.5 2.5h-259q-34 0 -54.5 -19.5t-20.5 -48.5t20.5 -48.5t54.5 -19.5h288
q35 0 70.5 -13.5t61.5 -39.5q23 -22 39 -54.5t16 -80.5t-16 -80.5t-39 -54.5q-26 -26 -61.5 -39.5t-70.5 -13.5h-91v-81q0 -5 -4.5 -9.5t-9.5 -4.5h-102q-5 0 -9.5 4.5t-4.5 9.5v81h-58q-32 0 -57 5t-43.5 12.5t-30.5 15.5t-19 14q-24 20 -41.5 52.5t-17.5 73.5v2
q0 5 4.5 10t11.5 5h108q8 0 12 -6t4 -9v-2q0 -8 2.5 -18.5t12.5 -20.5q11 -11 25.5 -13.5t25.5 -2.5h259q34 0 54.5 19.5t20.5 48.5t-20.5 48.5t-54.5 19.5h-288q-35 0 -70.5 13.5t-61.5 39.5q-23 22 -39 54.5t-16 80.5t16 80.5t39 54.5q26 26 61.5 39.5t70.5 13.5h91v81
q0 5 4.5 9.5t9.5 4.5h102q5 0 9.5 -4.5t4.5 -9.5v-81h58z" />
    <glyph glyph-name="percent" unicode="%" horiz-adv-x="1005" 
d="M697 700q8 0 10.5 -5.5t-0.5 -13.5l-316 -674q-3 -7 -8.5 -13.5t-19.5 -6.5h-64q-8 0 -10.5 5.5t0.5 13.5l316 674q3 7 8.5 13.5t19.5 6.5h64zM239 713q52 0 87.5 -17.5t55.5 -37.5q28 -28 42 -65t14 -74t-14 -74t-42 -65q-20 -20 -55.5 -37.5t-87.5 -17.5t-87.5 17.5
t-55.5 37.5q-28 28 -42 65t-14 74t14 74t42 65q20 20 55.5 37.5t87.5 17.5zM239 623q-22 0 -40 -8t-30 -21q-17 -18 -22 -38t-5 -37t5 -37t22 -38q12 -13 30 -21t40 -8t40 8t30 21q17 18 22 38t5 37t-5 37t-22 38q-12 13 -30 21t-40 8zM766 375q52 0 87.5 -17.5t55.5 -37.5
q28 -28 42 -65t14 -74t-14 -74t-42 -65q-20 -20 -55.5 -37.5t-87.5 -17.5t-87.5 17.5t-55.5 37.5q-28 28 -42 65t-14 74t14 74t42 65q20 20 55.5 37.5t87.5 17.5zM766 285q-22 0 -40 -8t-30 -21q-17 -18 -22 -38t-5 -37t5 -37t22 -38q12 -13 30 -21t40 -8t40 8t30 21
q17 18 22 38t5 37t-5 37t-22 38q-12 13 -30 21t-40 8z" />
    <glyph glyph-name="ampersand" unicode="&#x26;" horiz-adv-x="908" 
d="M710 14q0 -5 -4.5 -9.5t-9.5 -4.5h-424q-54 0 -92.5 17.5t-63 44.5t-35.5 60t-11 65q0 24 6.5 47.5t19 45.5t32.5 40.5t48 31.5q-10 5 -26.5 17t-33 31.5t-28 48.5t-11.5 68q0 31 11 63.5t34 59t59.5 43.5t89.5 17h351q5 0 9.5 -4.5t4.5 -9.5v-92q0 -5 -4.5 -9.5
t-9.5 -4.5h-317q-26 0 -44 -7t-29 -18.5t-16.5 -25.5t-5.5 -29q-1 -38 26 -63t73 -25h515q5 0 9.5 -4.5t4.5 -9.5v-92q0 -5 -4.5 -9.5t-9.5 -4.5h-114v-278zM318 292q-32 0 -53.5 -8.5t-35 -21.5t-19 -29.5t-5.5 -31.5q0 -35 25.5 -58t68.5 -23h281v172h-262z" />
    <glyph glyph-name="quotesingle" unicode="'" horiz-adv-x="250" 
d="M173 425q-2 -13 -14 -13h-68q-12 0 -14 13l-37 209v60q0 5 4.5 9.5t9.5 4.5h142q5 0 9.5 -4.5t4.5 -9.5v-60z" />
    <glyph glyph-name="parenleft" unicode="(" horiz-adv-x="329" 
d="M180 62q0 -14 3.5 -37t17.5 -40t32.5 -21t32.5 -4h34q5 0 9.5 -4.5t4.5 -9.5v-92q0 -5 -4.5 -9.5t-9.5 -4.5h-50q-60 0 -96 19t-53 38q-18 19 -28 41t-15 43.5t-6.5 41t-1.5 33.5v488q0 14 1.5 33.5t6.5 41t15 43.5t28 41q17 19 53 38t96 19h50q5 0 9.5 -4.5t4.5 -9.5
v-92q0 -5 -4.5 -9.5t-9.5 -4.5h-34q-14 0 -32.5 -4t-32.5 -21t-17.5 -40t-3.5 -37v-476z" />
    <glyph glyph-name="parenright" unicode=")" horiz-adv-x="329" 
d="M279 56q0 -14 -1.5 -33.5t-6.5 -41t-15 -43.5t-28 -41q-17 -19 -53 -38t-96 -19h-50q-5 0 -9.5 4.5t-4.5 9.5v92q0 5 4.5 9.5t9.5 4.5h34q14 0 32.5 4t32.5 21t17.5 40t3.5 37v476q0 14 -3.5 37t-17.5 40t-32.5 21t-32.5 4h-34q-5 0 -9.5 4.5t-4.5 9.5v92q0 5 4.5 9.5
t9.5 4.5h50q60 0 96 -19t53 -38q18 -19 28 -41t15 -43.5t6.5 -41t1.5 -33.5v-488z" />
    <glyph glyph-name="asterisk" unicode="*" horiz-adv-x="512" 
d="M59 524q-5 2 -8 5.5t1 15.5l24 73q3 9 9 9t10 -2l107 -35v116q0 5 4.5 9.5t9.5 4.5h80q5 0 9.5 -4.5t4.5 -9.5v-116l107 35q4 2 10 2t9 -9l24 -73q4 -12 1 -15.5t-8 -5.5l-110 -36l66 -93q2 -2 4 -8.5t-6 -12.5l-64 -47q-11 -9 -19 3l-68 95l-68 -95q-8 -12 -19 -3
l-64 47q-8 6 -6 12.5t4 8.5l66 93z" />
    <glyph glyph-name="plus" unicode="+" horiz-adv-x="680" 
d="M395 104q0 -5 -4.5 -9.5t-9.5 -4.5h-82q-5 0 -9.5 4.5t-4.5 9.5v186h-186q-5 0 -9.5 4.5t-4.5 9.5v82q0 5 4.5 9.5t9.5 4.5h186v186q0 5 4.5 9.5t9.5 4.5h82q5 0 9.5 -4.5t4.5 -9.5v-186h186q5 0 9.5 -4.5t4.5 -9.5v-82q0 -5 -4.5 -9.5t-9.5 -4.5h-186v-186z" />
    <glyph glyph-name="comma" unicode="," horiz-adv-x="340" 
d="M150 -156q-2 -4 -8.5 -9.5t-18.5 -5.5h-43q-5 0 -6.5 5t3.5 15l83 151h-76q-5 0 -9.5 4.5t-4.5 9.5v143q0 5 4.5 9.5t9.5 4.5h172q5 0 9.5 -4.5t4.5 -9.5v-141z" />
    <glyph glyph-name="hyphen" unicode="-" horiz-adv-x="309" 
d="M279 312q0 -5 -4.5 -9.5t-9.5 -4.5h-221q-5 0 -9.5 4.5t-4.5 9.5v92q0 5 4.5 9.5t9.5 4.5h221q5 0 9.5 -4.5t4.5 -9.5v-92z" />
    <glyph glyph-name="period" unicode="." horiz-adv-x="340" 
d="M270 14q0 -5 -4.5 -9.5t-9.5 -4.5h-172q-5 0 -9.5 4.5t-4.5 9.5v143q0 5 4.5 9.5t9.5 4.5h172q5 0 9.5 -4.5t4.5 -9.5v-143z" />
    <glyph glyph-name="slash" unicode="/" horiz-adv-x="427" 
d="M63 -164q-3 -7 -8 -14t-19 -7h-64q-9 0 -11 6t1 13l342 845q3 7 8 14t19 7h64q9 0 11 -6t-1 -13z" />
    <glyph glyph-name="zero" unicode="0" horiz-adv-x="870" 
d="M810 350q0 -71 -27 -139t-81 -121q-19 -19 -45 -37.5t-59.5 -33.5t-74 -24.5t-88.5 -9.5t-88.5 9.5t-74 24.5t-59.5 33.5t-45 37.5q-54 53 -81 121t-27 139t27 139t81 121q19 19 45 37.5t59.5 33.5t74 24.5t88.5 9.5t88.5 -9.5t74 -24.5t59.5 -33.5t45 -37.5
q54 -53 81 -121t27 -139zM675 350q0 54 -18 97.5t-47 75.5q-27 29 -71 51.5t-104 22.5t-104 -22.5t-71 -51.5q-29 -32 -47 -75.5t-18 -97.5t18 -97.5t47 -75.5q27 -29 71 -51.5t104 -22.5t104 22.5t71 51.5q29 32 47 75.5t18 97.5z" />
    <glyph glyph-name="one" unicode="1" horiz-adv-x="370" 
d="M64 502q-5 0 -9.5 4.5t-4.5 9.5v66q0 12 7 17q4 3 9.5 4t13.5 2q15 2 31.5 8.5t29.5 18.5t20 25.5t11 25.5q2 5 5.5 11t17.5 6h71q5 0 9.5 -4.5t4.5 -9.5v-672q0 -5 -4.5 -9.5t-9.5 -4.5h-104q-5 0 -9.5 4.5t-4.5 9.5v488h-84z" />
    <glyph glyph-name="two" unicode="2" 
d="M530 700q48 0 94 -18.5t76 -61.5q18 -26 25.5 -54.5t7.5 -57.5q0 -31 -7 -56t-24 -50q-14 -21 -44.5 -49t-89.5 -59l-322 -170v-4h478q5 0 9.5 -4.5t4.5 -9.5v-92q0 -5 -4.5 -9.5t-9.5 -4.5h-630q-5 0 -9.5 4.5t-4.5 9.5v82q0 33 12.5 56t29.5 38q8 7 20 15.5t22 13.5
l367 194q10 6 22 13.5t22 18.5t16.5 25t6.5 33q0 17 -5.5 29t-12.5 20q-10 11 -27 19.5t-38 8.5h-208q-13 0 -34 -3.5t-38 -17.5t-21 -32.5t-4 -32.5v-15q0 -5 -4.5 -9.5t-9.5 -4.5h-102q-5 0 -9.5 4.5t-4.5 9.5v21q0 15 1.5 34t7.5 38.5t17.5 39.5t30.5 37q20 18 59.5 34.5
t105.5 16.5h228z" />
    <glyph glyph-name="three" unicode="3" horiz-adv-x="805" 
d="M686 700q5 0 9.5 -4.5t4.5 -9.5v-92l-251 -149h39q18 0 40.5 -2t46 -9t47.5 -20t45 -34q25 -25 41.5 -62.5t16.5 -89.5q0 -58 -21 -100t-50 -68q-32 -28 -77 -44t-90 -16h-197q-53 0 -95 14t-68 37q-19 17 -30.5 36.5t-17.5 39.5t-7.5 39t-1.5 34v13q0 5 4.5 9.5t9.5 4.5
h102q5 0 9.5 -4.5t4.5 -9.5v-7q0 -14 4 -32.5t21 -32.5t40 -17.5t37 -3.5h162q32 0 55.5 9.5t39.5 24.5t23.5 34.5t7.5 39.5q0 21 -8 40t-23.5 34t-38 24t-52.5 9h-243q-5 0 -9.5 4.5t-4.5 9.5v85l264 146h-383q-5 0 -9.5 4.5t-4.5 9.5v92q0 5 4.5 9.5t9.5 4.5h594z" />
    <glyph glyph-name="four" unicode="4" horiz-adv-x="820" 
d="M736 286q5 0 9.5 -4.5t4.5 -9.5v-92q0 -5 -4.5 -9.5t-9.5 -4.5h-122v-152q0 -5 -4.5 -9.5t-9.5 -4.5h-102q-5 0 -9.5 4.5t-4.5 9.5v152h-420q-5 0 -9.5 4.5t-4.5 9.5v90l454 430h96q5 0 9.5 -4.5t4.5 -9.5v-400h122zM484 526l-253 -240h253v240z" />
    <glyph glyph-name="five" unicode="5" horiz-adv-x="795" 
d="M503 456q38 0 80 -16t73 -44q41 -37 55 -81.5t14 -86.5t-14 -86.5t-55 -81.5q-31 -28 -73 -44t-80 -16h-213q-53 0 -95 14t-68 37q-19 17 -30.5 36.5t-17.5 39.5t-7.5 39t-1.5 34v13q0 5 4.5 9.5t9.5 4.5h102q5 0 9.5 -4.5t4.5 -9.5v-7q0 -14 4 -32.5t21 -32.5t40 -17.5
t37 -3.5h176q50 0 81 31t31 77q0 19 -6.5 38t-20 34.5t-35 25.5t-50.5 10h-380q-5 0 -9.5 4.5t-4.5 9.5v336q0 5 4.5 9.5t9.5 4.5h573q5 0 9.5 -4.5t4.5 -9.5v-92q0 -5 -4.5 -9.5t-9.5 -4.5h-457v-124h289z" />
    <glyph glyph-name="six" unicode="6" horiz-adv-x="819" 
d="M539 430q35 0 75.5 -15t69.5 -42q10 -9 21 -23t21 -33.5t16.5 -45t6.5 -56.5q0 -32 -6.5 -57t-16.5 -44.5t-21 -33.5t-21 -23q-29 -27 -69.5 -42t-75.5 -15h-249q-39 0 -79.5 14.5t-67.5 40.5q-9 9 -20 22.5t-20.5 33t-16 45.5t-6.5 59v270q0 33 6.5 59t16 45.5t20.5 33
t20 22.5q27 26 67.5 40.5t79.5 14.5h233q16 0 37 -1.5t43 -7t43.5 -15.5t40.5 -27q7 -6 16.5 -17t18.5 -28t15 -39.5t6 -50.5v-13q0 -5 -4.5 -9.5t-9.5 -4.5h-102q-5 0 -9.5 4.5t-4.5 9.5v8q0 23 -10 35t-15 16q-17 14 -39 17t-38 3h-203q-48 0 -73 -27.5t-25 -67.5v-55h329
zM210 215q0 -40 25 -67.5t73 -27.5h208q44 0 71 26.5t27 68.5t-27 68.5t-71 26.5h-306v-95z" />
    <glyph glyph-name="seven" unicode="7" horiz-adv-x="767" 
d="M718 700q5 0 9.5 -4.5t4.5 -9.5v-74l-402 -594q-8 -13 -18.5 -15.5t-16.5 -2.5h-159q-5 0 -6.5 5t6.5 15l428 560h-505q-5 0 -9.5 4.5t-4.5 9.5v92q0 5 4.5 9.5t9.5 4.5h659z" />
    <glyph glyph-name="eight" unicode="8" horiz-adv-x="830" 
d="M547 700q56 0 91.5 -19t55.5 -39q23 -23 37 -54.5t14 -74.5q0 -50 -23 -93t-67 -68q20 -13 35 -27.5t25 -28.5q19 -26 27 -55t8 -56q0 -42 -17 -77.5t-44 -58.5q-29 -25 -69.5 -37t-82.5 -12h-244q-42 0 -82.5 12t-69.5 37q-27 23 -44 58.5t-17 77.5q0 27 8 56t27 55
q10 14 25 28.5t35 27.5q-44 25 -67 68t-23 93q0 43 14 74.5t37 54.5q20 20 55.5 39t91.5 19h264zM527 120q19 0 35 7t28 18.5t18.5 26.5t6.5 32q0 14 -5 29.5t-18 28.5t-35 21.5t-55 8.5h-174q-33 0 -55 -8.5t-35 -21.5t-18 -28.5t-5 -29.5q0 -17 6.5 -32t18.5 -26.5
t28 -18.5t35 -7h224zM512 412q49 0 73.5 26t24.5 60q0 33 -22.5 57.5t-72.5 24.5h-200q-50 0 -72.5 -24.5t-22.5 -57.5q0 -34 24.5 -60t73.5 -26h194z" />
    <glyph glyph-name="nine" unicode="9" horiz-adv-x="819" 
d="M280 270q-35 0 -75.5 15t-69.5 42q-10 9 -21.5 23t-21 33.5t-16 44.5t-6.5 57q0 31 6.5 56.5t16 45t21 33.5t21.5 23q29 27 69.5 42t75.5 15h249q39 0 79.5 -14.5t67.5 -40.5q9 -9 20 -22.5t20.5 -33t16 -45.5t6.5 -59v-270q0 -33 -6.5 -59t-16 -45.5t-20.5 -33
t-20 -22.5q-27 -26 -67.5 -40.5t-79.5 -14.5h-233q-17 0 -37.5 1.5t-42.5 7t-43.5 15.5t-40.5 27q-7 6 -16.5 17t-18.5 28t-15 39t-6 51v13q0 5 4.5 9.5t9.5 4.5h102q5 0 9.5 -4.5t4.5 -9.5v-8q0 -23 10 -35t15 -16q17 -14 39 -17t38 -3h203q48 0 73 27.5t25 67.5v55h-329z
M609 485q0 40 -25 67.5t-73 27.5h-208q-44 0 -71 -26.5t-27 -68.5t27 -68.5t71 -26.5h306v95z" />
    <glyph glyph-name="colon" unicode=":" horiz-adv-x="340" 
d="M270 14q0 -5 -4.5 -9.5t-9.5 -4.5h-172q-5 0 -9.5 4.5t-4.5 9.5v143q0 5 4.5 9.5t9.5 4.5h172q5 0 9.5 -4.5t4.5 -9.5v-143zM270 407q0 -5 -4.5 -9.5t-9.5 -4.5h-172q-5 0 -9.5 4.5t-4.5 9.5v143q0 5 4.5 9.5t9.5 4.5h172q5 0 9.5 -4.5t4.5 -9.5v-143z" />
    <glyph glyph-name="semicolon" unicode=";" horiz-adv-x="340" 
d="M270 407q0 -5 -4.5 -9.5t-9.5 -4.5h-172q-5 0 -9.5 4.5t-4.5 9.5v143q0 5 4.5 9.5t9.5 4.5h172q5 0 9.5 -4.5t4.5 -9.5v-143zM150 -156q-2 -4 -8.5 -9.5t-18.5 -5.5h-43q-5 0 -6.5 5t3.5 15l83 151h-76q-5 0 -9.5 4.5t-4.5 9.5v143q0 5 4.5 9.5t9.5 4.5h172q5 0 9.5 -4.5
t4.5 -9.5v-141z" />
    <glyph glyph-name="less" unicode="&#x3c;" horiz-adv-x="535" 
d="M472 244q4 -2 11 -7.5t7 -18.5v-90q0 -8 -6.5 -8.5t-12.5 1.5l-407 167q-5 2 -12 7.5t-7 18.5v72q0 13 7 18.5t12 7.5l407 167q6 2 12.5 1.5t6.5 -8.5v-90q0 -13 -7 -18.5t-11 -7.5l-281 -106z" />
    <glyph glyph-name="equal" unicode="=" horiz-adv-x="680" 
d="M595 397q0 -5 -4.5 -9.5t-9.5 -4.5h-482q-5 0 -9.5 4.5t-4.5 9.5v82q0 5 4.5 9.5t9.5 4.5h482q5 0 9.5 -4.5t4.5 -9.5v-82zM595 211q0 -5 -4.5 -9.5t-9.5 -4.5h-482q-5 0 -9.5 4.5t-4.5 9.5v82q0 5 4.5 9.5t9.5 4.5h482q5 0 9.5 -4.5t4.5 -9.5v-82z" />
    <glyph glyph-name="greater" unicode="&#x3e;" horiz-adv-x="535" 
d="M63 456q-4 2 -11 7.5t-7 18.5v90q0 8 6.5 8.5t12.5 -1.5l407 -167q5 -2 12 -7.5t7 -18.5v-72q0 -13 -7 -18.5t-12 -7.5l-407 -167q-6 -2 -12.5 -1.5t-6.5 8.5v90q0 13 7 18.5t11 7.5l281 106z" />
    <glyph glyph-name="question" unicode="?" horiz-adv-x="642" 
d="M422 14q0 -5 -4.5 -9.5t-9.5 -4.5h-172q-5 0 -9.5 4.5t-4.5 9.5v143q0 5 4.5 9.5t9.5 4.5h172q5 0 9.5 -4.5t4.5 -9.5v-143zM411 296q-8 -7 -19 -18t-13 -33l-1 -11q-2 -14 -14 -14h-88q-5 0 -9.5 4.5t-4.5 9.5v13q0 24 7 44t17.5 35.5t23 27t22.5 19.5l91 75
q11 10 22.5 26t11.5 41q0 29 -20.5 47t-53.5 18h-110q-32 0 -55 -9.5t-37 -20.5t-23.5 -23.5t-17.5 -24.5q-2 -3 -8 -8t-16 3l-67 51q-11 8 -9.5 17t6.5 16q13 20 32 41t41 36q21 14 42 22.5t41 13t38 5.5t33 1h117q35 0 62 -7t46 -16t30.5 -18t16.5 -14q21 -20 34 -50.5
t13 -68.5q0 -47 -21 -83.5t-52 -60.5z" />
    <glyph glyph-name="at" unicode="@" horiz-adv-x="958" 
d="M651 249q-3 -23 -2 -34t3 -16q5 -13 14.5 -16t17.5 -3q22 0 44 12t39 32q28 31 43 74.5t15 91.5t-16 91.5t-45 77.5q-14 16 -35 33.5t-50 32t-66.5 24t-84.5 9.5t-87.5 -8.5t-74.5 -23.5t-61 -34t-47 -39q-53 -52 -81.5 -121.5t-28.5 -147.5q0 -53 11.5 -94t28 -72
t34.5 -51.5t30 -31.5q28 -26 58 -41.5t59.5 -23.5t57.5 -11t53 -3q41 0 95 8.5t123 37.5q5 2 12 3t12 -10l11 -26q2 -5 1.5 -11.5t-11.5 -12.5q-23 -13 -53.5 -23.5t-64 -18t-68.5 -11.5t-68 -4q-66 0 -136.5 18t-135.5 73q-63 54 -100 133t-37 173q0 85 32 164.5t92 142.5
q28 29 64 54.5t79.5 45t94.5 31t109 11.5q60 0 107 -12.5t83.5 -31.5t62.5 -43t44 -46q26 -33 48 -84.5t22 -123.5q0 -42 -9 -79.5t-27 -73.5q-16 -32 -35 -54t-45 -42q-35 -26 -68.5 -36.5t-63.5 -10.5q-7 0 -20 1.5t-28 7t-30 17.5t-26 33q-23 -27 -56.5 -43.5
t-70.5 -16.5q-60 0 -98 45q-26 29 -33.5 63.5t-7.5 66.5q0 55 16 96.5t41 72.5q34 41 69 54.5t61 13.5q33 0 53.5 -12t31.5 -23l2 12q1 5 5 12.5t17 7.5h90q11 0 12 -8t0 -16zM540 374q-5 8 -15 16t-29 8q-14 0 -29.5 -7.5t-28.5 -26.5q-11 -17 -16.5 -39t-5.5 -42
q0 -9 2.5 -25t14.5 -29q6 -6 16 -12t27 -6q19 0 30 7t18 14z" />
    <glyph glyph-name="A" unicode="A" horiz-adv-x="766" 
d="M284 580l-65 -341h328l-65 341h-198zM177 19q-1 -4 -4.5 -11.5t-17.5 -7.5h-104q-8 0 -10 5q-3 3 0 14l137 662q1 5 5 12t17 7h366q13 0 17 -7t5 -12l137 -662q3 -11 0 -14q-3 -5 -10 -5h-104q-14 0 -17.5 7.5t-4.5 11.5l-19 100h-374z" />
    <glyph glyph-name="B" unicode="B" horiz-adv-x="825" 
d="M564 700q52 0 89 -17t60 -43.5t34 -59t11 -63.5q0 -39 -11.5 -68t-28 -48.5t-33 -31.5t-26.5 -17q28 -13 48 -31.5t32.5 -40.5t19 -45.5t6.5 -47.5q0 -32 -11 -65t-35.5 -60t-63 -44.5t-92.5 -17.5h-479q-5 0 -9.5 4.5t-4.5 9.5v672q0 5 4.5 9.5t9.5 4.5h480zM536 120
q43 0 68.5 23t25.5 58q0 15 -5.5 31.5t-19 29.5t-35 21.5t-53.5 8.5h-317v-172h336zM526 412q46 0 73 25t26 63q0 15 -5.5 29t-16.5 25.5t-29 18.5t-44 7h-330v-168h326z" />
    <glyph glyph-name="C" unicode="C" horiz-adv-x="780" 
d="M735 205q12 -7 9.5 -16.5t-4.5 -14.5q-17 -30 -41 -60t-54 -53q-40 -32 -96.5 -54t-131.5 -22q-79 0 -142.5 24.5t-109.5 63.5q-54 46 -89.5 117t-35.5 160t35.5 160t89.5 117q46 39 109.5 63.5t142.5 24.5q75 0 131.5 -22t96.5 -54q30 -23 54 -53t41 -60q2 -5 4.5 -14.5
t-9.5 -16.5l-76 -42q-12 -7 -16.5 -3t-7.5 9q-11 20 -24.5 39.5t-36.5 39.5q-67 59 -155 59q-46 0 -89.5 -16.5t-76.5 -46.5q-35 -32 -56 -79t-21 -105t21 -105t56 -79q33 -30 76.5 -46.5t89.5 -16.5q88 0 155 59q23 20 36.5 39.5t24.5 39.5q3 5 7.5 9t16.5 -3z" />
    <glyph glyph-name="D" unicode="D" horiz-adv-x="834" 
d="M447 700q77 0 143 -29.5t110 -74.5q45 -45 69.5 -108t24.5 -138t-24.5 -138t-69.5 -108q-44 -45 -110 -74.5t-143 -29.5h-363q-5 0 -9.5 4.5t-4.5 9.5v672q0 5 4.5 9.5t9.5 4.5h363zM200 120h227q53 0 96 19t73 51t46.5 73.5t16.5 86.5t-16.5 86.5t-46.5 73.5t-73 51
t-96 19h-227v-460z" />
    <glyph glyph-name="E" unicode="E" horiz-adv-x="798" 
d="M200 410h420q5 0 9.5 -4.5t4.5 -9.5v-92q0 -5 -4.5 -9.5t-9.5 -4.5h-420v-170h544q5 0 9.5 -4.5t4.5 -9.5v-92q0 -5 -4.5 -9.5t-9.5 -4.5h-660q-5 0 -9.5 4.5t-4.5 9.5v672q0 5 4.5 9.5t9.5 4.5h660q5 0 9.5 -4.5t4.5 -9.5v-92q0 -5 -4.5 -9.5t-9.5 -4.5h-544v-170z" />
    <glyph glyph-name="F" unicode="F" horiz-adv-x="788" 
d="M200 410h410q5 0 9.5 -4.5t4.5 -9.5v-92q0 -5 -4.5 -9.5t-9.5 -4.5h-410v-276q0 -5 -4.5 -9.5t-9.5 -4.5h-102q-5 0 -9.5 4.5t-4.5 9.5v672q0 5 4.5 9.5t9.5 4.5h650q5 0 9.5 -4.5t4.5 -9.5v-92q0 -5 -4.5 -9.5t-9.5 -4.5h-534v-170z" />
    <glyph glyph-name="G" unicode="G" horiz-adv-x="811" 
d="M742 356q5 0 9.5 -4.5t4.5 -9.5v-328q0 -5 -4.5 -9.5t-9.5 -4.5h-98q-5 0 -9.5 4.5t-4.5 9.5v64q-27 -27 -56 -44.5t-58.5 -28.5t-58.5 -15.5t-56 -4.5q-69 0 -129.5 24.5t-105.5 62.5q-55 47 -90.5 118t-35.5 160t35.5 160t91.5 118q46 38 109 62.5t142 24.5
q43 0 78 -7.5t63.5 -18.5t50.5 -25t37 -26q26 -21 52.5 -52.5t41.5 -59.5q2 -5 4.5 -14.5t-9.5 -16.5l-76 -42q-12 -7 -16.5 -3t-7.5 9q-11 20 -26.5 40t-32.5 36q-35 33 -74 47t-81 15q-57 1 -100 -19.5t-71 -46.5q-32 -29 -54 -75t-22 -106q0 -56 21 -104t53 -80
q31 -30 70 -46.5t90 -16.5q44 0 80.5 12.5t68.5 33.5q28 19 46.5 40t31.5 47h-161q-5 0 -9.5 4.5t-4.5 9.5v92q0 5 4.5 9.5t9.5 4.5h267z" />
    <glyph glyph-name="H" unicode="H" 
d="M618 410v276q0 5 4.5 9.5t9.5 4.5h102q5 0 9.5 -4.5t4.5 -9.5v-672q0 -5 -4.5 -9.5t-9.5 -4.5h-102q-5 0 -9.5 4.5t-4.5 9.5v276h-418v-276q0 -5 -4.5 -9.5t-9.5 -4.5h-102q-5 0 -9.5 4.5t-4.5 9.5v672q0 5 4.5 9.5t9.5 4.5h102q5 0 9.5 -4.5t4.5 -9.5v-276h418z" />
    <glyph glyph-name="I" unicode="I" horiz-adv-x="273" 
d="M203 14q0 -5 -4.5 -9.5t-9.5 -4.5h-105q-5 0 -9.5 4.5t-4.5 9.5v672q0 5 4.5 9.5t9.5 4.5h105q5 0 9.5 -4.5t4.5 -9.5v-672z" />
    <glyph glyph-name="J" unicode="J" horiz-adv-x="683" 
d="M134 256q5 0 9.5 -4.5t4.5 -9.5v-36q0 -14 4 -32.5t21 -32.5t40 -17.5t37 -3.5h131q14 0 37 3.5t40 17.5t21 32.5t4 32.5v480q0 5 4.5 9.5t9.5 4.5h102q5 0 9.5 -4.5t4.5 -9.5v-486q0 -15 -1.5 -34t-7.5 -39t-17.5 -39.5t-30.5 -36.5q-26 -23 -68 -37t-95 -14h-153
q-53 0 -95 14t-68 37q-19 17 -30.5 36.5t-17.5 39.5t-7.5 39t-1.5 34v42q0 5 4.5 9.5t9.5 4.5h100z" />
    <glyph glyph-name="K" unicode="K" horiz-adv-x="769" 
d="M338 410l236 276q5 6 12.5 10t21.5 4h125q7 0 10 -5.5t-2 -11.5l-296 -333l296 -333q5 -6 2 -11.5t-10 -5.5h-125q-14 0 -21.5 4t-12.5 10l-236 276h-138v-276q0 -5 -4.5 -9.5t-9.5 -4.5h-102q-5 0 -9.5 4.5t-4.5 9.5v672q0 5 4.5 9.5t9.5 4.5h102q5 0 9.5 -4.5t4.5 -9.5
v-276h138z" />
    <glyph glyph-name="L" unicode="L" horiz-adv-x="654" 
d="M620 120q5 0 9.5 -4.5t4.5 -9.5v-92q0 -5 -4.5 -9.5t-9.5 -4.5h-536q-5 0 -9.5 4.5t-4.5 9.5v672q0 5 4.5 9.5t9.5 4.5h104q5 0 9.5 -4.5t4.5 -9.5v-566h418z" />
    <glyph glyph-name="M" unicode="M" horiz-adv-x="964" 
d="M549 15q-4 -9 -9 -12t-14 -3h-88q-9 0 -14 3t-9 12l-217 496v-497q0 -5 -4.5 -9.5t-9.5 -4.5h-100q-5 0 -9.5 4.5t-4.5 9.5v672q0 5 4.5 9.5t9.5 4.5h143q11 0 15.5 -5.5t7.5 -12.5l232 -521l232 521q3 7 7.5 12.5t15.5 5.5h143q5 0 9.5 -4.5t4.5 -9.5v-672
q0 -5 -4.5 -9.5t-9.5 -4.5h-100q-5 0 -9.5 4.5t-4.5 9.5v497z" />
    <glyph glyph-name="N" unicode="N" horiz-adv-x="810" 
d="M610 686q0 5 4.5 9.5t9.5 4.5h102q5 0 9.5 -4.5t4.5 -9.5v-672q0 -5 -4.5 -9.5t-9.5 -4.5h-85q-9 0 -15 3t-12 10l-414 486v-485q0 -5 -4.5 -9.5t-9.5 -4.5h-102q-5 0 -9.5 4.5t-4.5 9.5v672q0 5 4.5 9.5t9.5 4.5h85q9 0 15 -3t12 -10l414 -486v485z" />
    <glyph glyph-name="O" unicode="O" horiz-adv-x="830" 
d="M790 350q0 -71 -27 -139t-81 -121q-19 -19 -45 -37.5t-59.5 -33.5t-74 -24.5t-88.5 -9.5t-88.5 9.5t-74 24.5t-59.5 33.5t-45 37.5q-54 53 -81 121t-27 139t27 139t81 121q19 19 45 37.5t59.5 33.5t74 24.5t88.5 9.5t88.5 -9.5t74 -24.5t59.5 -33.5t45 -37.5
q54 -53 81 -121t27 -139zM655 350q0 54 -18 97.5t-47 75.5q-27 29 -71 51.5t-104 22.5t-104 -22.5t-71 -51.5q-29 -32 -47 -75.5t-18 -97.5t18 -97.5t47 -75.5q27 -29 71 -51.5t104 -22.5t104 22.5t71 51.5q29 32 47 75.5t18 97.5z" />
    <glyph glyph-name="P" unicode="P" horiz-adv-x="792" 
d="M200 14q0 -5 -4.5 -9.5t-9.5 -4.5h-102q-5 0 -9.5 4.5t-4.5 9.5v672q0 5 4.5 9.5t9.5 4.5h458q35 0 75.5 -15t69.5 -42q10 -9 21 -23t21 -33.5t16.5 -45t6.5 -56.5q0 -32 -6.5 -57t-16.5 -44.5t-21 -33.5t-21 -23q-29 -27 -69.5 -42t-75.5 -15h-342v-256zM519 390
q44 0 71 26.5t27 68.5t-27 68.5t-71 26.5h-319v-190h319z" />
    <glyph glyph-name="Q" unicode="Q" horiz-adv-x="830" 
d="M350 -10q-61 10 -112.5 36.5t-89.5 63.5q-54 53 -81 121t-27 139t27 139t81 121q19 19 45 37.5t59.5 33.5t74 24.5t88.5 9.5t88.5 -9.5t74 -24.5t59.5 -33.5t45 -37.5q54 -53 81 -121t27 -139t-27 -139t-81 -121q-38 -37 -89.5 -63.5t-112.5 -36.5v-112q0 -5 -4.5 -9.5
t-9.5 -4.5h-102q-5 0 -9.5 4.5t-4.5 9.5v112zM480 111q25 6 53 20t57 46q23 26 44 68t21 105q0 54 -18 97.5t-47 75.5q-27 29 -71 51.5t-104 22.5t-104 -22.5t-71 -51.5q-29 -32 -47 -75.5t-18 -97.5q0 -63 21 -105t44 -68q29 -32 57 -46t53 -20v111q0 5 4.5 9.5t9.5 4.5
h102q5 0 9.5 -4.5t4.5 -9.5v-111z" />
    <glyph glyph-name="R" unicode="R" horiz-adv-x="802" 
d="M519 390q44 0 71 26.5t27 68.5t-27 68.5t-71 26.5h-319v-190h319zM200 14q0 -5 -4.5 -9.5t-9.5 -4.5h-102q-5 0 -9.5 4.5t-4.5 9.5v672q0 5 4.5 9.5t9.5 4.5h458q35 0 75.5 -15t69.5 -42q32 -29 49 -70t16 -88q-1 -57 -29 -102.5t-80 -68.5q24 -12 41 -29.5t27 -36.5
q12 -23 17 -51.5t5 -54.5v-128q0 -5 -4.5 -9.5t-9.5 -4.5h-102q-5 0 -9.5 4.5t-4.5 9.5v105q0 28 -5.5 55.5t-28.5 51.5q-14 15 -30.5 23.5t-34 13t-34 6t-29.5 1.5h-241v-256z" />
    <glyph glyph-name="S" unicode="S" horiz-adv-x="814" 
d="M562 414q16 0 34.5 -4t37.5 -11t36.5 -17.5t31.5 -22.5q10 -9 21 -22.5t20 -32t15 -42.5t6 -55t-6 -55t-15 -42.5t-20 -32t-21 -22.5q-14 -12 -31.5 -22.5t-36.5 -17.5t-37.5 -11t-34.5 -4h-292q-17 0 -37.5 1.5t-42.5 7t-43.5 15.5t-40.5 27q-7 6 -16.5 17t-18.5 28
t-15 39t-6 51v13q0 5 4.5 9.5t9.5 4.5h102q5 0 9.5 -4.5t4.5 -9.5v-8q0 -23 10 -35t15 -16q17 -14 39 -17t38 -3h261q39 0 62.5 24.5t23.5 59.5t-23.5 59.5t-62.5 24.5h-291q-43 0 -79 16t-60 39q-25 23 -44 60t-19 91t19 91t44 60q24 23 60 39t79 16h278q16 0 37 -1.5
t43 -7t43.5 -15.5t40.5 -27q24 -22 40 -56.5t16 -76.5v-15q0 -5 -4.5 -9.5t-9.5 -4.5h-102q-5 0 -9.5 4.5t-4.5 9.5v8q0 23 -10 35t-15 16q-15 11 -35.5 15.5t-38.5 4.5h-250q-37 0 -61.5 -24t-24.5 -59t24.5 -59t61.5 -24h291z" />
    <glyph glyph-name="T" unicode="T" horiz-adv-x="746" 
d="M439 14q0 -5 -4.5 -9.5t-9.5 -4.5h-104q-5 0 -9.5 4.5t-4.5 9.5v566h-273q-5 0 -9.5 4.5t-4.5 9.5v92q0 5 4.5 9.5t9.5 4.5h678q5 0 9.5 -4.5t4.5 -9.5v-92q0 -5 -4.5 -9.5t-9.5 -4.5h-273v-566z" />
    <glyph glyph-name="U" unicode="U" 
d="M748 204q0 -15 -1.5 -33.5t-7.5 -38t-17 -39.5t-30 -38q-23 -23 -63.5 -39t-100.5 -16h-238q-60 0 -100.5 16t-63.5 39q-19 18 -30 38t-17 39.5t-7.5 38t-1.5 33.5v482q0 5 4.5 9.5t9.5 4.5h102q5 0 9.5 -4.5t4.5 -9.5v-480q0 -28 8.5 -43t16.5 -22q5 -5 22 -13t52 -8
h220q35 0 52 8t22 13q8 7 16.5 22t8.5 43v480q0 5 4.5 9.5t9.5 4.5h102q5 0 9.5 -4.5t4.5 -9.5v-482z" />
    <glyph glyph-name="V" unicode="V" horiz-adv-x="760" 
d="M462 19q-2 -5 -7.5 -12t-18.5 -7h-112q-13 0 -18.5 7t-7.5 12l-271 662q-2 6 -1.5 12.5t8.5 6.5h112q13 0 18.5 -7t7.5 -11l208 -543l208 543q2 4 7.5 11t18.5 7h112q8 0 8.5 -6.5t-1.5 -12.5z" />
    <glyph glyph-name="W" unicode="W" horiz-adv-x="962" 
d="M409 678q2 7 7 14.5t17 7.5h96q12 0 17 -7.5t7 -14.5l157 -508l87 511q3 19 22 19h102q14 0 11 -14l-125 -664q-2 -8 -6 -12.5t-8.5 -6.5t-8.5 -2.5t-5 -0.5h-121q-6 0 -12.5 3.5t-11.5 18.5l-153 483l-153 -483q-5 -15 -11.5 -18.5t-12.5 -3.5h-121q-2 0 -6 0.5
t-8.5 2.5t-8.5 6.5t-5 12.5l-125 664q-3 14 11 14h102q19 0 22 -19l87 -511z" />
    <glyph glyph-name="X" unicode="X" horiz-adv-x="758" 
d="M458 354l278 -340q4 -5 1.5 -9.5t-9.5 -4.5h-129q-14 0 -22 5.5t-13 12.5l-188 243l-188 -243q-5 -7 -13 -12.5t-22 -5.5h-123q-7 0 -9.5 4.5t1.5 9.5l278 340l-271 332q-4 5 -1.5 9.5t9.5 4.5h129q14 0 22 -5.5t13 -12.5l181 -232l181 232q5 7 13 12.5t22 5.5h123
q7 0 9.5 -4.5t-1.5 -9.5z" />
    <glyph glyph-name="Y" unicode="Y" horiz-adv-x="788" 
d="M460 14q0 -5 -4.5 -9.5t-9.5 -4.5h-104q-5 0 -9.5 4.5t-4.5 9.5v246l-306 424q-5 6 -1 11t9 5h109q8 0 17 -3t17 -15l221 -318l221 318q8 12 17 15t17 3h109q5 0 9 -5t-1 -11l-306 -424v-246z" />
    <glyph glyph-name="Z" unicode="Z" horiz-adv-x="773" 
d="M62 580q-5 0 -9.5 4.5t-4.5 9.5v92q0 5 4.5 9.5t9.5 4.5h647q5 0 9.5 -4.5t4.5 -9.5v-78q0 -5 -2 -14.5t-11 -17.5l-477 -456h486q5 0 9.5 -4.5t4.5 -9.5v-92q0 -5 -4.5 -9.5t-9.5 -4.5h-665q-5 0 -9.5 4.5t-4.5 9.5v78q0 5 2 14.5t11 17.5l477 456h-468z" />
    <glyph glyph-name="bracketleft" unicode="[" horiz-adv-x="329" 
d="M180 -40h120q5 0 9.5 -4.5t4.5 -9.5v-92q0 -5 -4.5 -9.5t-9.5 -4.5h-236q-5 0 -9.5 4.5t-4.5 9.5v892q0 5 4.5 9.5t9.5 4.5h236q5 0 9.5 -4.5t4.5 -9.5v-92q0 -5 -4.5 -9.5t-9.5 -4.5h-120v-680z" />
    <glyph glyph-name="backslash" unicode="\" horiz-adv-x="427" 
d="M465 -166q3 -7 1 -13t-11 -6h-64q-14 0 -19 7t-8 14l-342 845q-3 7 -1 13t11 6h64q14 0 19 -7t8 -14z" />
    <glyph glyph-name="bracketright" unicode="]" horiz-adv-x="329" 
d="M29 640q-5 0 -9.5 4.5t-4.5 9.5v92q0 5 4.5 9.5t9.5 4.5h236q5 0 9.5 -4.5t4.5 -9.5v-892q0 -5 -4.5 -9.5t-9.5 -4.5h-236q-5 0 -9.5 4.5t-4.5 9.5v92q0 5 4.5 9.5t9.5 4.5h120v680h-120z" />
    <glyph glyph-name="asciicircum" unicode="^" horiz-adv-x="462" 
d="M154 479q-5 -7 -11.5 -13t-20.5 -6h-81q-5 0 -9 6t0 13l120 203q8 12 16.5 15t14.5 3h96q6 0 14.5 -3t16.5 -15l120 -203q4 -7 0 -13t-9 -6h-81q-14 0 -20.5 6t-11.5 13l-77 113z" />
    <glyph glyph-name="underscore" unicode="_" horiz-adv-x="480" 
d="M495 -147q0 -5 -4.5 -9.5t-9.5 -4.5h-482q-5 0 -9.5 4.5t-4.5 9.5v64q0 5 4.5 9.5t9.5 4.5h482q5 0 9.5 -4.5t4.5 -9.5v-64z" />
    <glyph glyph-name="grave" unicode="`" horiz-adv-x="315" 
d="M253 625q4 -8 1 -14.5t-11 -6.5h-59q-18 0 -27 12l-124 157q-5 6 -2.5 12t10.5 6h116q14 0 20.5 -6t9.5 -13z" />
    <glyph glyph-name="a" unicode="a" horiz-adv-x="694" 
d="M436 448h-178l-48 -242h274zM187 90l-14 -71q-1 -5 -5 -12t-17 -7h-100q-8 0 -10 5q-2 2 -1.5 6.5t1.5 7.5l118 526q2 6 7 12.5t16 6.5h330q11 0 16 -6.5t7 -12.5l118 -526q1 -3 1.5 -7.5t-1.5 -6.5q-3 -5 -10 -5h-100q-13 0 -17 7t-5 12l-14 71h-320z" />
    <glyph glyph-name="b" unicode="b" horiz-adv-x="765" 
d="M544 564q36 0 67 -13t51 -34q17 -17 27.5 -42.5t10.5 -58.5q0 -26 -7 -46.5t-17 -35.5q-9 -14 -23 -27t-33 -23q46 -23 65 -58t20 -76q0 -32 -11.5 -59.5t-33 -47.5t-51.5 -31.5t-66 -11.5h-459q-5 0 -9.5 4.5t-4.5 9.5v536q0 5 4.5 9.5t9.5 4.5h460zM195 116h320
q28 0 44 15t16 37q0 25 -19 40.5t-46 15.5h-315v-108zM507 340q27 0 46 15.5t19 40.5q0 22 -16 37t-44 15h-317v-108h312z" />
    <glyph glyph-name="c" unicode="c" horiz-adv-x="652" 
d="M607 167q12 -7 9.5 -16.5t-4.5 -14.5q-11 -20 -32.5 -44.5t-44.5 -42.5q-34 -26 -80 -43.5t-106 -18.5q-65 -1 -117.5 19.5t-90.5 53.5q-45 38 -73 95t-28 127t28 127t73 95q38 33 90.5 53.5t117.5 19.5q60 -1 106 -18.5t80 -43.5q23 -18 44.5 -42.5t32.5 -44.5
q2 -5 4.5 -14.5t-9.5 -16.5l-69 -38q-12 -7 -16.5 -3t-7.5 9q-9 16 -22 32t-30 29q-26 20 -54.5 28.5t-55.5 8.5q-36 0 -72 -14t-63 -43q-20 -21 -33.5 -51.5t-13.5 -72.5t13.5 -72.5t33.5 -51.5q27 -29 63 -43t72 -14q27 0 55.5 8.5t54.5 28.5q17 13 30 29t22 32q3 5 7.5 9
t16.5 -3z" />
    <glyph glyph-name="d" unicode="d" horiz-adv-x="758" 
d="M438 564q61 0 115 -24.5t89 -59.5q29 -29 52.5 -78.5t23.5 -119.5t-23.5 -119.5t-52.5 -78.5q-35 -35 -89 -59.5t-115 -24.5h-354q-5 0 -9.5 4.5t-4.5 9.5v536q0 5 4.5 9.5t9.5 4.5h354zM195 116h226q38 0 69 14t52.5 37t33.5 53t12 62t-12 62t-33.5 53t-52.5 37t-69 14
h-226v-332z" />
    <glyph glyph-name="e" unicode="e" horiz-adv-x="740" 
d="M589 340q5 0 9.5 -4.5t4.5 -9.5v-88q0 -5 -4.5 -9.5t-9.5 -4.5h-394v-108h491q5 0 9.5 -4.5t4.5 -9.5v-88q0 -5 -4.5 -9.5t-9.5 -4.5h-602q-5 0 -9.5 4.5t-4.5 9.5v536q0 5 4.5 9.5t9.5 4.5h602q5 0 9.5 -4.5t4.5 -9.5v-88q0 -5 -4.5 -9.5t-9.5 -4.5h-491v-108h394z" />
    <glyph glyph-name="f" unicode="f" horiz-adv-x="732" 
d="M581 340q5 0 9.5 -4.5t4.5 -9.5v-88q0 -5 -4.5 -9.5t-9.5 -4.5h-386v-210q0 -5 -4.5 -9.5t-9.5 -4.5h-97q-5 0 -9.5 4.5t-4.5 9.5v536q0 5 4.5 9.5t9.5 4.5h594q5 0 9.5 -4.5t4.5 -9.5v-88q0 -5 -4.5 -9.5t-9.5 -4.5h-483v-108h386z" />
    <glyph glyph-name="g" unicode="g" horiz-adv-x="681" 
d="M612 287q5 0 9.5 -4.5t4.5 -9.5v-259q0 -5 -4.5 -9.5t-9.5 -4.5h-92q-5 0 -9.5 4.5t-4.5 9.5v35q-25 -21 -49.5 -33t-47 -18.5t-42 -8.5t-32.5 -2q-58 0 -107 20t-87 53q-53 46 -77 104t-24 118q0 71 28 127.5t73 94.5q38 33 90.5 53.5t117.5 19.5q60 -1 106 -18.5
t80 -43.5q23 -18 44.5 -42.5t32.5 -44.5q2 -5 4.5 -14.5t-9.5 -16.5l-69 -38q-12 -7 -16.5 -3t-7.5 9q-9 16 -22 32t-30 29q-26 20 -54.5 28.5t-55.5 8.5q-36 0 -72 -14t-63 -43q-20 -21 -33.5 -51.5t-13.5 -72.5q0 -41 13.5 -72.5t33.5 -53.5q21 -23 54 -39t78 -16
q17 0 36.5 3t40 11t40 22t36.5 36h-116q-5 0 -9.5 4.5t-4.5 9.5v86q0 5 4.5 9.5t9.5 4.5h226z" />
    <glyph glyph-name="h" unicode="h" horiz-adv-x="762" 
d="M567 340v210q0 5 4.5 9.5t9.5 4.5h97q5 0 9.5 -4.5t4.5 -9.5v-536q0 -5 -4.5 -9.5t-9.5 -4.5h-97q-5 0 -9.5 4.5t-4.5 9.5v210h-372v-210q0 -5 -4.5 -9.5t-9.5 -4.5h-97q-5 0 -9.5 4.5t-4.5 9.5v536q0 5 4.5 9.5t9.5 4.5h97q5 0 9.5 -4.5t4.5 -9.5v-210h372z" />
    <glyph glyph-name="i" unicode="i" horiz-adv-x="267" 
d="M197 14q0 -5 -4.5 -9.5t-9.5 -4.5h-99q-5 0 -9.5 4.5t-4.5 9.5v536q0 5 4.5 9.5t9.5 4.5h99q5 0 9.5 -4.5t4.5 -9.5v-536z" />
    <glyph glyph-name="j" unicode="j" horiz-adv-x="624" 
d="M340 116q13 0 32.5 2.5t34.5 15.5q5 5 13.5 18.5t8.5 38.5v359q0 5 4.5 9.5t9.5 4.5h97q5 0 9.5 -4.5t4.5 -9.5v-376q0 -49 -15 -80.5t-35 -49.5q-23 -20 -59 -32t-83 -12h-150q-47 0 -83 12t-59 32q-20 18 -35 49.5t-15 80.5v31q0 5 4.5 9.5t9.5 4.5h95q5 0 9.5 -4.5
t4.5 -9.5v-14q0 -14 3.5 -29.5t17.5 -27.5q15 -13 36 -15.5t32 -2.5h108z" />
    <glyph glyph-name="k" unicode="k" horiz-adv-x="703" 
d="M676 14q4 -5 1 -9.5t-9 -4.5h-122q-15 0 -22 5.5t-13 12.5l-180 206h-136v-210q0 -5 -4.5 -9.5t-9.5 -4.5h-97q-5 0 -9.5 4.5t-4.5 9.5v536q0 5 4.5 9.5t9.5 4.5h97q5 0 9.5 -4.5t4.5 -9.5v-210h136l180 206q6 7 13 12.5t22 5.5h122q6 0 9 -4.5t-1 -9.5l-242 -268z" />
    <glyph glyph-name="l" unicode="l" horiz-adv-x="592" 
d="M558 116q5 0 9.5 -4.5t4.5 -9.5v-88q0 -5 -4.5 -9.5t-9.5 -4.5h-474q-5 0 -9.5 4.5t-4.5 9.5v536q0 5 4.5 9.5t9.5 4.5h99q5 0 9.5 -4.5t4.5 -9.5v-434h361z" />
    <glyph glyph-name="m" unicode="m" horiz-adv-x="884" 
d="M504 15q-4 -8 -9 -11.5t-14 -3.5h-78q-16 0 -23 15l-187 360v-361q0 -5 -4.5 -9.5t-9.5 -4.5h-95q-5 0 -9.5 4.5t-4.5 9.5v536q0 5 4.5 9.5t9.5 4.5h126q11 0 17 -6.5t8 -11.5l207 -396l207 396q2 5 8 11.5t17 6.5h126q5 0 9.5 -4.5t4.5 -9.5v-536q0 -5 -4.5 -9.5
t-9.5 -4.5h-95q-5 0 -9.5 4.5t-4.5 9.5v361z" />
    <glyph glyph-name="n" unicode="n" horiz-adv-x="755" 
d="M560 550q0 5 4.5 9.5t9.5 4.5h97q5 0 9.5 -4.5t4.5 -9.5v-536q0 -5 -4.5 -9.5t-9.5 -4.5h-84q-16 0 -29 13l-363 367v-366q0 -5 -4.5 -9.5t-9.5 -4.5h-97q-5 0 -9.5 4.5t-4.5 9.5v536q0 5 4.5 9.5t9.5 4.5h84q16 0 29 -13l363 -367v366z" />
    <glyph glyph-name="o" unicode="o" horiz-adv-x="698" 
d="M349 577q78 0 132 -26.5t89 -59.5q45 -43 66.5 -97t21.5 -112t-21.5 -112t-66.5 -97q-35 -33 -89 -59.5t-132 -26.5t-132 26.5t-89 59.5q-45 43 -66.5 97t-21.5 112t21.5 112t66.5 97q35 33 89 59.5t132 26.5zM349 463q-46 0 -77.5 -16t-48.5 -33q-19 -18 -36 -50.5
t-17 -81.5t17 -81.5t36 -50.5q17 -17 48.5 -33t77.5 -16t77.5 16t48.5 33q19 18 36 50.5t17 81.5t-17 81.5t-36 50.5q-17 17 -48.5 33t-77.5 16z" />
    <glyph glyph-name="p" unicode="p" horiz-adv-x="736" 
d="M195 14q0 -5 -4.5 -9.5t-9.5 -4.5h-97q-5 0 -9.5 4.5t-4.5 9.5v536q0 5 4.5 9.5t9.5 4.5h439q35 0 66 -13t54 -34q20 -20 36.5 -51.5t16.5 -76.5t-16.5 -76.5t-36.5 -51.5q-23 -21 -54 -34t-66 -13h-328v-200zM505 330q30 0 45.5 18t15.5 41t-15.5 41t-45.5 18h-310v-118
h310z" />
    <glyph glyph-name="q" unicode="q" horiz-adv-x="698" 
d="M286 -6q-57 10 -95.5 33t-62.5 46q-45 43 -66.5 97t-21.5 112t21.5 112t66.5 97q35 33 89 59.5t132 26.5t132 -26.5t89 -59.5q45 -43 66.5 -97t21.5 -112t-21.5 -112t-66.5 -97q-24 -23 -62.5 -46t-95.5 -33v-93q0 -5 -4.5 -9.5t-9.5 -4.5h-98q-5 0 -9.5 4.5t-4.5 9.5v93
zM412 111q23 8 40 20t28 24q20 21 34 51.5t14 75.5q0 50 -17 82t-36 50q-17 17 -48.5 33t-77.5 16t-77.5 -16t-48.5 -33q-19 -18 -36 -50t-17 -82q0 -45 14 -75.5t34 -51.5q11 -12 28 -24t40 -20v86q0 5 4.5 9.5t9.5 4.5h98q5 0 9.5 -4.5t4.5 -9.5v-86z" />
    <glyph glyph-name="r" unicode="r" horiz-adv-x="746" 
d="M195 14q0 -5 -4.5 -9.5t-9.5 -4.5h-97q-5 0 -9.5 4.5t-4.5 9.5v536q0 5 4.5 9.5t9.5 4.5h442q38 0 71 -13.5t56 -36.5q21 -21 32 -50t11 -61q0 -55 -30 -96q-12 -17 -29.5 -30.5t-35.5 -23.5q20 -11 35.5 -26.5t23.5 -31.5q10 -19 15 -44.5t5 -47.5v-91q0 -4 -3.5 -8
t-9.5 -4h-99q-6 0 -9.5 4t-3.5 8v71q0 23 -4.5 47t-24.5 46q-12 13 -27.5 20.5t-31 11.5t-29.5 5t-24 1h-219v-200zM505 330q30 0 45.5 18t15.5 41t-15.5 41t-45.5 18h-310v-118h310z" />
    <glyph glyph-name="s" unicode="s" horiz-adv-x="736" 
d="M517 340q32 0 64 -12.5t55 -34.5q15 -14 32.5 -44t17.5 -79t-17.5 -79t-32.5 -44q-23 -22 -55 -34.5t-64 -12.5h-280q-28 0 -65 7.5t-69 34.5q-17 14 -35 42t-18 71v12q0 5 4.5 9.5t9.5 4.5h97q5 0 9.5 -4.5t4.5 -9.5v-1q0 -13 4.5 -21.5t9.5 -13.5q11 -10 23 -12.5
t22 -2.5h262q26 0 43 15.5t17 38.5t-17 38.5t-43 15.5h-277q-32 0 -64 12.5t-55 34.5q-15 14 -32.5 44t-17.5 79t17.5 79t32.5 44q23 22 55 34.5t64 12.5h269q28 0 65 -7.5t69 -34.5q17 -14 35 -42t18 -71v-12q0 -5 -4.5 -9.5t-9.5 -4.5h-97q-5 0 -9.5 4.5t-4.5 9.5v1
q0 13 -4.5 21.5t-9.5 13.5q-11 10 -23 12.5t-22 2.5h-251q-26 0 -43 -15.5t-17 -38.5t17 -38.5t43 -15.5h277z" />
    <glyph glyph-name="t" unicode="t" horiz-adv-x="665" 
d="M396 14q0 -5 -4.5 -9.5t-9.5 -4.5h-99q-5 0 -9.5 4.5t-4.5 9.5v434h-235q-5 0 -9.5 4.5t-4.5 9.5v88q0 5 4.5 9.5t9.5 4.5h597q5 0 9.5 -4.5t4.5 -9.5v-88q0 -5 -4.5 -9.5t-9.5 -4.5h-235v-434z" />
    <glyph glyph-name="u" unicode="u" horiz-adv-x="762" 
d="M195 191q0 -12 3.5 -27.5t18.5 -29.5q15 -13 33.5 -15.5t30.5 -2.5h200q12 0 30.5 2.5t33.5 15.5q15 14 18.5 29.5t3.5 27.5v359q0 5 4.5 9.5t9.5 4.5h97q5 0 9.5 -4.5t4.5 -9.5v-372q0 -13 -1.5 -29t-6 -33.5t-14.5 -35t-26 -32.5t-50 -31.5t-93 -16.5h-240
q-59 0 -93 16.5t-50 31.5q-17 15 -26.5 32.5t-14 35t-6 33.5t-1.5 29v372q0 5 4.5 9.5t9.5 4.5h97q5 0 9.5 -4.5t4.5 -9.5v-359z" />
    <glyph glyph-name="v" unicode="v" horiz-adv-x="662" 
d="M494 546q2 4 7.5 11t18.5 7h108q8 0 8.5 -6.5t-1.5 -12.5l-224 -526q-2 -5 -7.5 -12t-18.5 -7h-108q-13 0 -18.5 7t-7.5 12l-224 526q-2 6 -1.5 12.5t8.5 6.5h108q13 0 18.5 -7t7.5 -11l163 -407z" />
    <glyph glyph-name="w" unicode="w" horiz-adv-x="850" 
d="M690 545q3 19 22 19h97q14 0 11 -14l-108 -528q-3 -15 -12 -18.5t-16 -3.5h-118q-6 0 -12.5 3.5t-11.5 18.5l-117 367l-117 -367q-5 -15 -11.5 -18.5t-12.5 -3.5h-118q-7 0 -16 3.5t-12 18.5l-108 528q-4 14 11 14h97q19 0 22 -19l69 -397l124 394q2 7 7 14.5t17 7.5h96
q12 0 17 -7.5t7 -14.5l124 -394z" />
    <glyph glyph-name="x" unicode="x" horiz-adv-x="653" 
d="M327 190l-142 -172q-5 -7 -13 -12.5t-22 -5.5h-120q-7 0 -9.5 4.5t1.5 9.5l228 268l-228 268q-4 5 -1.5 9.5t9.5 4.5h120q14 0 22 -5.5t13 -12.5l142 -172l141 172q5 7 13 12.5t22 5.5h120q7 0 9.5 -4.5t-1.5 -9.5l-228 -268l228 -268q4 -5 1.5 -9.5t-9.5 -4.5h-120
q-14 0 -22 5.5t-13 12.5z" />
    <glyph glyph-name="y" unicode="y" horiz-adv-x="710" 
d="M418 14q0 -5 -4.5 -9.5t-9.5 -4.5h-98q-5 0 -9.5 4.5t-4.5 9.5v180l-270 354q-3 5 -1 10.5t9 5.5h105q14 0 21.5 -5t12.5 -13l186 -253l186 253q5 8 12.5 13t21.5 5h105q7 0 9 -5.5t-1 -10.5l-270 -354v-180z" />
    <glyph glyph-name="z" unicode="z" horiz-adv-x="703" 
d="M649 116q5 0 9.5 -4.5t4.5 -9.5v-88q0 -5 -4.5 -9.5t-9.5 -4.5h-595q-5 0 -9.5 4.5t-4.5 9.5v73q0 12 4 20t9 12l399 329h-391q-5 0 -9.5 4.5t-4.5 9.5v88q0 5 4.5 9.5t9.5 4.5h580q5 0 9.5 -4.5t4.5 -9.5v-73q0 -12 -4 -20t-9 -12l-399 -329h406z" />
    <glyph glyph-name="braceleft" unicode="{" horiz-adv-x="411" 
d="M242 420q0 -18 -3 -37.5t-14 -37.5q-9 -15 -23 -26.5t-30 -18.5q16 -7 30 -18.5t23 -26.5q11 -18 14 -37.5t3 -37.5v-118q0 -14 3.5 -37t17.5 -40t32.5 -21t32.5 -4h34q5 0 9.5 -4.5t4.5 -9.5v-92q0 -5 -4.5 -9.5t-9.5 -4.5h-50q-60 0 -96 19t-53 38q-18 19 -28 41
t-15 43.5t-6.5 41t-1.5 33.5v83q0 7 -0.5 16.5t-3 20.5t-7.5 21.5t-13 19.5q-12 13 -26.5 17t-22.5 6q-3 1 -8.5 3.5t-5.5 10.5v92q0 8 5.5 10.5t8.5 3.5q8 2 22.5 6t26.5 17q16 17 20 40.5t4 37.5v83q0 14 1.5 33.5t6.5 41t15 43.5t28 41q17 19 53 38t96 19h50
q5 0 9.5 -4.5t4.5 -9.5v-92q0 -5 -4.5 -9.5t-9.5 -4.5h-34q-14 0 -32.5 -4t-32.5 -21t-17.5 -40t-3.5 -37v-118z" />
    <glyph glyph-name="bar" unicode="|" horiz-adv-x="485" 
d="M300 -176q0 -5 -4.5 -9.5t-9.5 -4.5h-87q-5 0 -9.5 4.5t-4.5 9.5v870q0 5 4.5 9.5t9.5 4.5h87q5 0 9.5 -4.5t4.5 -9.5v-870z" />
    <glyph glyph-name="braceright" unicode="}" horiz-adv-x="411" 
d="M299 461q0 -7 0.5 -16.5t3 -20.5t7.5 -21.5t13 -19.5q12 -13 26.5 -17t22.5 -6q3 -1 8.5 -3.5t5.5 -10.5v-92q0 -8 -5.5 -10.5t-8.5 -3.5q-8 -2 -22.5 -6t-26.5 -17q-8 -9 -13 -19.5t-7.5 -21.5t-3 -20.5t-0.5 -16.5v-83q0 -14 -1.5 -33.5t-6.5 -41t-15 -43.5t-28 -41
q-17 -19 -53 -38t-96 -19h-50q-5 0 -9.5 4.5t-4.5 9.5v92q0 5 4.5 9.5t9.5 4.5h34q14 0 32.5 4t32.5 21t17.5 40t3.5 37v118q0 18 3 37.5t14 37.5q9 15 23 26.5t30 18.5q-16 7 -30 18.5t-23 26.5q-11 18 -14 37.5t-3 37.5v118q0 14 -3.5 37t-17.5 40t-32.5 21t-32.5 4h-34
q-5 0 -9.5 4.5t-4.5 9.5v92q0 5 4.5 9.5t9.5 4.5h50q60 0 96 -19t53 -38q18 -19 28 -41t15 -43.5t6.5 -41t1.5 -33.5v-83z" />
    <glyph glyph-name="asciitilde" unicode="~" horiz-adv-x="606" 
d="M556 300q0 -8 -2.5 -12.5t-7.5 -9.5q-11 -11 -26.5 -21.5t-27.5 -16.5q-18 -9 -41 -15t-45 -6q-30 0 -56 10t-51 21t-48.5 19.5t-53.5 7.5q-20 0 -38 -5t-36 -13q-17 -8 -28 -15t-21 -14q-8 -6 -16 -6t-8 12v80q0 8 2.5 12.5t7.5 9.5q11 11 26.5 21.5t27.5 16.5
q18 9 41 15t45 6q30 0 56 -10t51 -21t48.5 -19.5t53.5 -7.5q20 0 38 5t36 13q17 8 28 15t21 14q8 6 16 6t8 -12v-80z" />
    <glyph glyph-name="uni00A0" unicode="&#xa0;" horiz-adv-x="233" 
 />
    <glyph glyph-name="exclamdown" unicode="&#xa1;" horiz-adv-x="380" 
d="M290 543q0 -5 -4.5 -9.5t-9.5 -4.5h-172q-5 0 -9.5 4.5t-4.5 9.5v143q0 5 4.5 9.5t9.5 4.5h172q5 0 9.5 -4.5t4.5 -9.5v-143zM285 -14q0 -5 -4.5 -9.5t-9.5 -4.5h-162q-5 0 -9.5 4.5t-4.5 9.5v69l47 412q2 13 14 13h68q12 0 14 -13l47 -412v-69z" />
    <glyph glyph-name="cent" unicode="&#xa2;" horiz-adv-x="729" 
d="M443 674q30 -4 70 -17t82 -47q11 -9 36.5 -34t47.5 -66q2 -5 4.5 -14.5t-9.5 -16.5l-76 -42q-12 -7 -16.5 -3t-7.5 9q-9 17 -21.5 35.5t-34.5 36.5q-29 24 -62 35t-65 11q-42 0 -78 -15t-61 -38q-30 -28 -48.5 -70t-18.5 -88t18.5 -88t48.5 -70q25 -23 61 -38t78 -15
q32 0 65 11t62 35q22 18 34.5 36.5t21.5 35.5q3 5 7.5 9t16.5 -3l76 -42q12 -7 9.5 -16.5t-4.5 -14.5q-22 -41 -47.5 -66t-36.5 -34q-42 -34 -82 -47t-70 -17v-72q0 -5 -4.5 -9.5t-9.5 -4.5h-102q-5 0 -9.5 4.5t-4.5 9.5v75q-29 6 -53 15.5t-43 20t-32.5 20t-21.5 16.5
q-49 42 -81 105t-32 144t32 144t81 105q8 7 21.5 16.5t32.5 20t43 20t53 15.5v75q0 5 4.5 9.5t9.5 4.5h102q5 0 9.5 -4.5t4.5 -9.5v-72z" />
    <glyph glyph-name="sterling" unicode="&#xa3;" horiz-adv-x="862" 
d="M302 274v-154h472q5 0 9.5 -4.5t4.5 -9.5v-92q0 -5 -4.5 -9.5t-9.5 -4.5h-588q-5 0 -9.5 4.5t-4.5 9.5v260h-88q-5 0 -9.5 4.5t-4.5 9.5v92q0 5 4.5 9.5t9.5 4.5h88v106q0 15 1.5 34t7.5 39t17.5 39.5t30.5 36.5q26 23 68 37t95 14h190q53 0 95 -14t68 -37
q19 -17 30.5 -36.5t17.5 -39.5t7.5 -39t1.5 -34v-12q0 -5 -4.5 -9.5t-9.5 -4.5h-100q-5 0 -9.5 4.5t-4.5 9.5v6q0 14 -4 32.5t-21 32.5t-40 17.5t-37 3.5h-168q-14 0 -37 -3.5t-40 -17.5t-21 -32.5t-4 -32.5v-100h372q5 0 9.5 -4.5t4.5 -9.5v-92q0 -5 -4.5 -9.5t-9.5 -4.5
h-372z" />
    <glyph glyph-name="currency" unicode="&#xa4;" horiz-adv-x="564" 
d="M456 441q7 -13 16.5 -38t9.5 -61t-9.5 -61t-16.5 -38l59 -59q4 -4 4 -10t-4 -10l-55 -55q-4 -4 -10 -4t-10 4l-59 59q-13 -7 -38 -16.5t-61 -9.5t-61 9.5t-38 16.5l-59 -59q-4 -4 -10 -4t-10 4l-55 55q-4 4 -4 10t4 10l59 59q-7 13 -16.5 38t-9.5 61t9.5 61t16.5 38
l-59 59q-4 4 -4 10t4 10l55 55q4 4 10 4t10 -4l59 -59q13 7 38 16.5t61 9.5t61 -9.5t38 -16.5l59 59q4 4 10 4t10 -4l55 -55q4 -4 4 -10t-4 -10zM282 440q-41 0 -69.5 -28.5t-28.5 -69.5t28.5 -69.5t69.5 -28.5t69.5 28.5t28.5 69.5t-28.5 69.5t-69.5 28.5z" />
    <glyph glyph-name="yen" unicode="&#xa5;" horiz-adv-x="748" 
d="M588 336q5 0 9.5 -4.5t4.5 -9.5v-82q0 -5 -4.5 -9.5t-9.5 -4.5h-148v-212q0 -5 -4.5 -9.5t-9.5 -4.5h-104q-5 0 -9.5 4.5t-4.5 9.5v212h-148q-5 0 -9.5 4.5t-4.5 9.5v82q0 5 4.5 9.5t9.5 4.5h96l-254 348q-5 6 -1 11t9 5h109q8 0 17 -3t17 -15l221 -318l221 318
q8 12 17 15t17 3h109q5 0 9 -5t-1 -11l-254 -348h96z" />
    <glyph glyph-name="brokenbar" unicode="&#xa6;" horiz-adv-x="485" 
d="M300 367q0 -5 -4.5 -9.5t-9.5 -4.5h-87q-5 0 -9.5 4.5t-4.5 9.5v327q0 5 4.5 9.5t9.5 4.5h87q5 0 9.5 -4.5t4.5 -9.5v-327zM300 -176q0 -5 -4.5 -9.5t-9.5 -4.5h-87q-5 0 -9.5 4.5t-4.5 9.5v327q0 5 4.5 9.5t9.5 4.5h87q5 0 9.5 -4.5t4.5 -9.5v-327z" />
    <glyph glyph-name="section" unicode="&#xa7;" horiz-adv-x="768" 
d="M253 318q-7 -4 -15 -11t-15.5 -16.5t-12.5 -23t-5 -29.5q0 -33 23.5 -57.5t62.5 -24.5h224q7 4 15 11t15.5 16.5t12.5 22.5t5 30q0 33 -23.5 57.5t-62.5 24.5h-224zM469 444q18 0 40.5 -2t46.5 -9t48 -20t45 -35q20 -22 34 -53.5t15 -69.5q1 -44 -18.5 -89t-64.5 -79
q18 -17 28.5 -34.5t16.5 -34t8 -31.5t2 -27q1 -34 -8.5 -66t-35.5 -60t-66 -46t-88 -18h-162q-56 0 -92 14.5t-58 33.5q-20 17 -38 48t-18 74v15q0 5 4.5 9.5t9.5 4.5h102q5 0 9.5 -4.5t4.5 -9.5v-5q0 -11 4.5 -22.5t18.5 -22.5q14 -10 30.5 -12.5t28.5 -2.5h143
q35 0 55.5 21.5t20.5 48.5t-20.5 48.5t-55.5 21.5h-160q-18 0 -40.5 2t-46.5 9t-48 20t-45 35q-20 22 -34 53.5t-15 69.5q-1 44 18.5 89t64.5 79q-18 16 -28.5 34t-16.5 34.5t-8 31.5t-2 27q-1 34 8.5 66t35.5 60t66 46t88 18h162q56 0 92 -14.5t58 -33.5q20 -17 38 -48
t18 -74v-15q0 -5 -4.5 -9.5t-9.5 -4.5h-102q-5 0 -9.5 4.5t-4.5 9.5v5q0 11 -4.5 22.5t-18.5 22.5q-14 10 -30.5 12.5t-28.5 2.5h-143q-35 0 -55.5 -21.5t-20.5 -48.5t20.5 -48.5t55.5 -21.5h160z" />
    <glyph glyph-name="dieresis" unicode="&#xa8;" horiz-adv-x="585" 
d="M540 626q0 -5 -4.5 -9.5t-9.5 -4.5h-175q-5 0 -9.5 4.5t-4.5 9.5v64q0 5 4.5 9.5t9.5 4.5h175q5 0 9.5 -4.5t4.5 -9.5v-64zM248 626q0 -5 -4.5 -9.5t-9.5 -4.5h-175q-5 0 -9.5 4.5t-4.5 9.5v64q0 5 4.5 9.5t9.5 4.5h175q5 0 9.5 -4.5t4.5 -9.5v-64z" />
    <glyph glyph-name="copyright" unicode="&#xa9;" horiz-adv-x="860" 
d="M800 350q0 -76 -29.5 -143.5t-79.5 -117.5t-117.5 -79.5t-143.5 -29.5t-143.5 29.5t-117.5 79.5t-79.5 117.5t-29.5 143.5t29.5 143.5t79.5 117.5t117.5 79.5t143.5 29.5t143.5 -29.5t117.5 -79.5t79.5 -117.5t29.5 -143.5zM726 350q0 61 -23.5 115t-63.5 94t-94 63.5
t-115 23.5t-115 -23.5t-94 -63.5t-63.5 -94t-23.5 -115t23.5 -115t63.5 -94t94 -63.5t115 -23.5t115 23.5t94 63.5t63.5 94t23.5 115zM538 389q-12 -7 -16.5 -3t-7.5 9q-6 11 -12.5 17.5t-10.5 9.5q-8 6 -20.5 11.5t-30.5 5.5q-20 0 -36.5 -7t-27.5 -18q-25 -27 -25 -64
t25 -64q11 -11 27.5 -18t36.5 -7q18 0 30.5 5.5t20.5 11.5q4 3 10.5 9.5t12.5 17.5q3 5 7.5 9t16.5 -3l70 -38q6 -4 9.5 -11t-4.5 -20q-8 -14 -23 -30t-26 -24q-21 -17 -53 -30t-76 -13q-43 0 -78.5 14t-62.5 37q-32 27 -50.5 66.5t-18.5 87.5t18.5 87.5t50.5 66.5
q27 23 62.5 37t78.5 14q44 0 76 -13t53 -30q11 -8 26 -24t23 -30q8 -13 4.5 -20t-9.5 -11z" />
    <glyph glyph-name="ordfeminine" unicode="&#xaa;" horiz-adv-x="528" 
d="M316 620h-104l-37 -188h178zM159 352l-9 -47q-1 -4 -4.5 -11.5t-17.5 -7.5h-67q-8 0 -10 5q-2 2 -1.5 6.5t1.5 7.5l85 376q2 6 7 12.5t16 6.5h210q11 0 16 -6.5t7 -12.5l85 -376q1 -3 1.5 -7.5t-1.5 -6.5q-3 -5 -10 -5h-67q-14 0 -17.5 7.5t-4.5 11.5l-9 47h-210z" />
    <glyph glyph-name="guillemotleft" unicode="&#xab;" horiz-adv-x="548" 
d="M284 153q3 -5 1 -10.5t-9 -5.5h-109q-3 0 -14.5 2t-19.5 16l-77 130q-6 11 -6 17t6 17l77 130q8 14 19.5 16t14.5 2h109q7 0 9 -5.5t-1 -10.5l-92 -149zM506 153q3 -5 1 -10.5t-9 -5.5h-109q-3 0 -14.5 2t-19.5 16l-77 130q-6 11 -6 17t6 17l77 130q8 14 19.5 16t14.5 2
h109q7 0 9 -5.5t-1 -10.5l-92 -149z" />
    <glyph glyph-name="logicalnot" unicode="&#xac;" horiz-adv-x="565" 
d="M44 305q-5 0 -9.5 4.5t-4.5 9.5v78q0 5 4.5 9.5t9.5 4.5h472q5 0 9.5 -4.5t4.5 -9.5v-184q0 -5 -4.5 -9.5t-9.5 -4.5h-84q-5 0 -9.5 4.5t-4.5 9.5v92h-374z" />
    <glyph glyph-name="uni00AD" unicode="&#xad;" horiz-adv-x="309" 
d="M279 312q0 -5 -4.5 -9.5t-9.5 -4.5h-221q-5 0 -9.5 4.5t-4.5 9.5v92q0 5 4.5 9.5t9.5 4.5h221q5 0 9.5 -4.5t4.5 -9.5v-92z" />
    <glyph glyph-name="registered" unicode="&#xae;" horiz-adv-x="860" 
d="M800 350q0 -76 -29.5 -143.5t-79.5 -117.5t-117.5 -79.5t-143.5 -29.5t-143.5 29.5t-117.5 79.5t-79.5 117.5t-29.5 143.5t29.5 143.5t79.5 117.5t117.5 79.5t143.5 29.5t143.5 -29.5t117.5 -79.5t79.5 -117.5t29.5 -143.5zM726 350q0 61 -23.5 115t-63.5 94t-94 63.5
t-115 23.5t-115 -23.5t-94 -63.5t-63.5 -94t-23.5 -115t23.5 -115t63.5 -94t94 -63.5t115 -23.5t115 23.5t94 63.5t63.5 94t23.5 115zM495 391q17 0 17 17t-17 17h-129v-34h129zM366 177q0 -5 -4.5 -9.5t-9.5 -4.5h-92q-5 0 -9.5 4.5t-4.5 9.5v350q0 5 4.5 9.5t9.5 4.5h258
q28 0 51 -10.5t38 -25.5q14 -14 22.5 -33.5t8.5 -44.5q0 -17 -4 -32t-11 -27q-8 -15 -18.5 -23.5t-15.5 -12.5q19 -16 28 -36q7 -15 9 -29.5t2 -26.5v-63q0 -5 -4.5 -9.5t-9.5 -4.5h-92q-5 0 -9.5 4.5t-4.5 9.5v32q0 15 -3 29.5t-16 28.5q-15 16 -34 20t-35 4h-54v-114z" />
    <glyph glyph-name="macron" unicode="&#xaf;" horiz-adv-x="474" 
d="M444 629q0 -5 -4.5 -9.5t-9.5 -4.5h-386q-5 0 -9.5 4.5t-4.5 9.5v70q0 5 4.5 9.5t9.5 4.5h386q5 0 9.5 -4.5t4.5 -9.5v-70z" />
    <glyph glyph-name="degree" unicode="&#xb0;" horiz-adv-x="382" 
d="M337 554q0 -30 -11.5 -56.5t-31.5 -46.5t-46.5 -31.5t-56.5 -11.5t-56.5 11.5t-46.5 31.5t-31.5 46.5t-11.5 56.5t11.5 56.5t31.5 46.5t46.5 31.5t56.5 11.5t56.5 -11.5t46.5 -31.5t31.5 -46.5t11.5 -56.5zM267 554q0 32 -22 54t-54 22t-54 -22t-22 -54t22 -54t54 -22
t54 22t22 54z" />
    <glyph glyph-name="plusminus" unicode="&#xb1;" horiz-adv-x="680" 
d="M395 172q0 -5 -4.5 -9.5t-9.5 -4.5h-82q-5 0 -9.5 4.5t-4.5 9.5v152h-186q-5 0 -9.5 4.5t-4.5 9.5v82q0 5 4.5 9.5t9.5 4.5h186v152q0 5 4.5 9.5t9.5 4.5h82q5 0 9.5 -4.5t4.5 -9.5v-152h186q5 0 9.5 -4.5t4.5 -9.5v-82q0 -5 -4.5 -9.5t-9.5 -4.5h-186v-152zM595 14
q0 -5 -4.5 -9.5t-9.5 -4.5h-482q-6 0 -10 5t-4 10v82q0 6 4.5 9.5t9.5 3.5h482q5 0 9.5 -4.5t4.5 -9.5v-82z" />
    <glyph glyph-name="uni00B2" unicode="&#xb2;" horiz-adv-x="492" 
d="M428 380q5 0 9.5 -4.5t4.5 -9.5v-72q0 -5 -4.5 -9.5t-9.5 -4.5h-364q-5 0 -9.5 4.5t-4.5 9.5v37q0 11 2 23.5t10 24.5q6 10 16.5 18.5t19.5 14.5l202 127q17 11 21.5 20.5t4.5 18.5q0 16 -10 25t-27 9h-73q-10 0 -20.5 -2t-20.5 -11t-12.5 -19t-2.5 -18v-5
q0 -5 -4.5 -9.5t-9.5 -4.5h-82q-5 0 -9.5 4.5t-4.5 9.5v23q0 20 5 43.5t29 45.5q23 21 49.5 26t49.5 5h137q23 0 40.5 -5.5t30 -13t20 -15.5t11.5 -14q19 -27 19 -67q0 -26 -8 -44t-16 -29q-11 -15 -29 -29.5t-38 -26.5l-129 -76h207z" />
    <glyph glyph-name="uni00B3" unicode="&#xb3;" horiz-adv-x="499" 
d="M315 547q31 0 56.5 -11t42.5 -28q19 -19 27 -41t8 -50q0 -25 -8.5 -51.5t-34.5 -49.5q-19 -17 -45.5 -26.5t-54.5 -9.5h-126q-8 0 -19.5 1t-24.5 4t-26.5 9t-25.5 17q-10 9 -22 30t-12 56v5q0 5 4.5 9.5t9.5 4.5h82q9 0 11.5 -6.5t2.5 -8.5q1 -7 3 -12.5t8 -10.5
q8 -7 17 -8.5t15 -1.5h77q26 0 40 15.5t14 34.5t-14 34.5t-40 15.5h-113q-5 0 -9.5 4.5t-4.5 9.5v54l98 64h-176q-5 0 -9.5 4.5t-4.5 9.5v72q0 5 4.5 9.5t9.5 4.5h345q5 0 9.5 -4.5t4.5 -9.5v-63z" />
    <glyph glyph-name="acute" unicode="&#xb4;" horiz-adv-x="315" 
d="M158 616q-9 -12 -27 -12h-59q-8 0 -11 6.5t1 14.5l66 147q3 7 9.5 13t20.5 6h116q8 0 10.5 -6t-2.5 -12z" />
    <glyph glyph-name="uni00B5" unicode="&#xb5;" horiz-adv-x="664" 
d="M594 14q0 -5 -4.5 -9.5t-9.5 -4.5h-102q-5 0 -9.5 4.5t-4.5 9.5v41q-9 -11 -22.5 -22t-30 -21t-36.5 -16t-43 -6t-43 6t-36.5 16t-30 21t-22.5 22v-244q0 -5 -4.5 -9.5t-9.5 -4.5h-102q-5 0 -9.5 4.5t-4.5 9.5v739q0 5 4.5 9.5t9.5 4.5h102q5 0 9.5 -4.5t4.5 -9.5v-337
q0 -23 12.5 -40.5t32 -29t43 -17.5t44.5 -6t44.5 6t43 17.5t32 29t12.5 40.5v337q0 5 4.5 9.5t9.5 4.5h102q5 0 9.5 -4.5t4.5 -9.5v-536z" />
    <glyph glyph-name="uni00B5" unicode="&#x3bc;" horiz-adv-x="664" 
d="M594 14q0 -5 -4.5 -9.5t-9.5 -4.5h-102q-5 0 -9.5 4.5t-4.5 9.5v41q-9 -11 -22.5 -22t-30 -21t-36.5 -16t-43 -6t-43 6t-36.5 16t-30 21t-22.5 22v-244q0 -5 -4.5 -9.5t-9.5 -4.5h-102q-5 0 -9.5 4.5t-4.5 9.5v739q0 5 4.5 9.5t9.5 4.5h102q5 0 9.5 -4.5t4.5 -9.5v-337
q0 -23 12.5 -40.5t32 -29t43 -17.5t44.5 -6t44.5 6t43 17.5t32 29t12.5 40.5v337q0 5 4.5 9.5t9.5 4.5h102q5 0 9.5 -4.5t4.5 -9.5v-536z" />
    <glyph glyph-name="paragraph" unicode="&#xb6;" horiz-adv-x="638" 
d="M345 610v-731q0 -5 -4.5 -9.5t-9.5 -4.5h-88q-5 0 -9.5 4.5t-4.5 9.5v453q-34 1 -60 10.5t-45.5 23t-32.5 29t-21 29.5q-13 21 -19 44.5t-6 47.5q0 27 10.5 59t32.5 59.5t57 46.5t85 19h334q5 0 9.5 -4.5t4.5 -9.5v-62q0 -5 -4.5 -9.5t-9.5 -4.5h-36v-731q0 -5 -4.5 -9.5
t-9.5 -4.5h-88q-5 0 -9.5 4.5t-4.5 9.5v731h-67z" />
    <glyph glyph-name="periodcentered" unicode="&#xb7;" horiz-adv-x="382" 
d="M297 222q0 -5 -4.5 -9.5t-9.5 -4.5h-184q-5 0 -9.5 4.5t-4.5 9.5v172q0 5 4.5 9.5t9.5 4.5h184q5 0 9.5 -4.5t4.5 -9.5v-172z" />
    <glyph glyph-name="cedilla" unicode="&#xb8;" horiz-adv-x="400" 
d="M229 -43q19 0 36 -7.5t28 -18.5q7 -7 17 -23t10 -43t-10 -43t-17 -23q-11 -11 -28 -18.5t-36 -7.5h-135q-5 0 -9.5 4.5t-4.5 9.5v42q0 5 4.5 9.5t9.5 4.5h122q23 0 23 22t-23 22h-102q-5 0 -9.5 4.5t-4.5 9.5v99h78v-43h51z" />
    <glyph glyph-name="uni00B9" unicode="&#xb9;" horiz-adv-x="269" 
d="M64 553q-5 0 -9.5 4.5t-4.5 9.5v44q0 12 7 17q4 3 18 6q23 7 36 20q8 8 14.5 19.5t8.5 26.5h71q5 0 9.5 -4.5t4.5 -9.5v-392q0 -5 -4.5 -9.5t-9.5 -4.5h-82q-5 0 -9.5 4.5t-4.5 9.5v259h-45z" />
    <glyph glyph-name="ordmasculine" unicode="&#xba;" horiz-adv-x="532" 
d="M266 703q55 0 93.5 -19.5t61.5 -42.5q29 -29 45 -67.5t16 -80.5t-16 -80.5t-45 -67.5q-23 -23 -61.5 -42.5t-93.5 -19.5t-93.5 19.5t-61.5 42.5q-29 29 -45 67.5t-16 80.5t16 80.5t45 67.5q23 23 61.5 42.5t93.5 19.5zM266 623q-24 0 -44 -8t-38 -28q-16 -18 -25 -42
t-9 -52t9 -52t25 -42q18 -20 38 -28t44 -8t44 8t38 28q16 18 25 42t9 52t-9 52t-25 42q-18 20 -38 28t-44 8z" />
    <glyph glyph-name="guillemotright" unicode="&#xbb;" horiz-adv-x="548" 
d="M264 451q-3 5 -1 10.5t9 5.5h109q3 0 14.5 -2t19.5 -16l77 -130q6 -11 6 -17t-6 -17l-77 -130q-8 -14 -19.5 -16t-14.5 -2h-109q-7 0 -9 5.5t1 10.5l92 149zM42 451q-3 5 -1 10.5t9 5.5h109q3 0 14.5 -2t19.5 -16l77 -130q6 -11 6 -17t-6 -17l-77 -130q-8 -14 -19.5 -16
t-14.5 -2h-109q-7 0 -9 5.5t1 10.5l92 149z" />
    <glyph glyph-name="onequarter" unicode="&#xbc;" horiz-adv-x="890" 
d="M563 700q8 0 10.5 -5.5t-0.5 -13.5l-316 -674q-3 -7 -8.5 -13.5t-19.5 -6.5h-64q-8 0 -10.5 5.5t0.5 13.5l316 674q3 7 8.5 13.5t19.5 6.5h64zM816 187q5 0 9.5 -4.5t4.5 -9.5v-72q0 -5 -4.5 -9.5t-9.5 -4.5h-55v-73q0 -5 -4.5 -9.5t-9.5 -4.5h-78q-5 0 -9.5 4.5
t-4.5 9.5v73h-231q-5 0 -9.5 4.5t-4.5 9.5v68l267 251h70q5 0 9.5 -4.5t4.5 -9.5v-219h55zM655 288l-100 -101h100v101zM74 553q-5 0 -9.5 4.5t-4.5 9.5v44q0 12 7 17q4 3 18 6q23 7 36 20q8 8 14.5 19.5t8.5 26.5h71q5 0 9.5 -4.5t4.5 -9.5v-392q0 -5 -4.5 -9.5t-9.5 -4.5
h-82q-5 0 -9.5 4.5t-4.5 9.5v259h-45z" />
    <glyph glyph-name="onehalf" unicode="&#xbd;" horiz-adv-x="939" 
d="M563 700q8 0 10.5 -5.5t-0.5 -13.5l-316 -674q-3 -7 -8.5 -13.5t-19.5 -6.5h-64q-8 0 -10.5 5.5t0.5 13.5l316 674q3 7 8.5 13.5t19.5 6.5h64zM865 100q5 0 9.5 -4.5t4.5 -9.5v-72q0 -5 -4.5 -9.5t-9.5 -4.5h-364q-5 0 -9.5 4.5t-4.5 9.5v37q0 11 2 23.5t10 24.5
q6 10 16.5 18.5t19.5 14.5l202 127q17 11 21.5 20.5t4.5 18.5q0 16 -10 25t-27 9h-73q-10 0 -20.5 -2t-20.5 -11t-12.5 -19t-2.5 -18v-5q0 -5 -4.5 -9.5t-9.5 -4.5h-82q-5 0 -9.5 4.5t-4.5 9.5v23q0 20 5 43.5t29 45.5q23 21 49.5 26t49.5 5h137q23 0 40.5 -5.5t30 -13
t20 -15.5t11.5 -14q19 -27 19 -67q0 -26 -8 -44t-16 -29q-11 -15 -29 -29.5t-38 -26.5l-129 -76h207zM74 553q-5 0 -9.5 4.5t-4.5 9.5v44q0 12 7 17q4 3 18 6q23 7 36 20q8 8 14.5 19.5t8.5 26.5h71q5 0 9.5 -4.5t4.5 -9.5v-392q0 -5 -4.5 -9.5t-9.5 -4.5h-82q-5 0 -9.5 4.5
t-4.5 9.5v259h-45z" />
    <glyph glyph-name="threequarters" unicode="&#xbe;" horiz-adv-x="1099" 
d="M772 700q8 0 10.5 -5.5t-0.5 -13.5l-316 -674q-3 -7 -8.5 -13.5t-19.5 -6.5h-64q-8 0 -10.5 5.5t0.5 13.5l316 674q3 7 8.5 13.5t19.5 6.5h64zM1025 187q5 0 9.5 -4.5t4.5 -9.5v-72q0 -5 -4.5 -9.5t-9.5 -4.5h-55v-73q0 -5 -4.5 -9.5t-9.5 -4.5h-78q-5 0 -9.5 4.5
t-4.5 9.5v73h-231q-5 0 -9.5 4.5t-4.5 9.5v68l267 251h70q5 0 9.5 -4.5t4.5 -9.5v-219h55zM864 288l-100 -101h100v101zM325 547q31 0 56.5 -11t42.5 -28q19 -19 27 -41t8 -50q0 -25 -8.5 -51.5t-34.5 -49.5q-19 -17 -45.5 -26.5t-54.5 -9.5h-126q-8 0 -19.5 1t-24.5 4
t-26.5 9t-25.5 17q-10 9 -22 30t-12 56v5q0 5 4.5 9.5t9.5 4.5h82q9 0 11.5 -6.5t2.5 -8.5q1 -7 3 -12.5t8 -10.5q8 -7 17 -8.5t15 -1.5h77q26 0 40 15.5t14 34.5t-14 34.5t-40 15.5h-113q-5 0 -9.5 4.5t-4.5 9.5v54l98 64h-176q-5 0 -9.5 4.5t-4.5 9.5v72q0 5 4.5 9.5
t9.5 4.5h345q5 0 9.5 -4.5t4.5 -9.5v-63z" />
    <glyph glyph-name="questiondown" unicode="&#xbf;" horiz-adv-x="642" 
d="M210 686q0 5 4.5 9.5t9.5 4.5h172q5 0 9.5 -4.5t4.5 -9.5v-143q0 -5 -4.5 -9.5t-9.5 -4.5h-172q-5 0 -9.5 4.5t-4.5 9.5v143zM221 404q8 7 19 18t13 33l1 11q2 14 14 14h88q5 0 9.5 -4.5t4.5 -9.5v-13q0 -24 -7 -44t-17.5 -35.5t-23 -27t-22.5 -19.5l-91 -75
q-11 -10 -22.5 -26t-11.5 -41q0 -29 20.5 -47t53.5 -18h110q32 0 55 9.5t37 20.5t23.5 23.5t17.5 24.5q2 3 8 8t16 -3l67 -51q11 -8 9.5 -17t-6.5 -16q-13 -20 -32 -41t-41 -36q-21 -14 -42 -22.5t-41 -13t-38 -5.5t-33 -1h-117q-35 0 -62 7t-46 16t-30.5 18t-16.5 14
q-21 20 -34 50.5t-13 68.5q0 47 21 83.5t52 60.5z" />
    <glyph glyph-name="Agrave" unicode="&#xc0;" horiz-adv-x="766" 
d="M284 580l-65 -341h328l-65 341h-198zM177 19q-1 -4 -4.5 -11.5t-17.5 -7.5h-104q-8 0 -10 5q-3 3 0 14l137 662q1 5 5 12t17 7h366q13 0 17 -7t5 -12l137 -662q3 -11 0 -14q-3 -5 -10 -5h-104q-14 0 -17.5 7.5t-4.5 11.5l-19 100h-374zM444 776q4 -8 1 -14.5t-11 -6.5
h-66q-2 0 -11 1.5t-16 10.5l-130 165q-5 6 -2.5 12t10.5 6h125q14 0 20.5 -6t9.5 -13z" />
    <glyph glyph-name="Aacute" unicode="&#xc1;" horiz-adv-x="766" 
d="M284 580l-65 -341h328l-65 341h-198zM177 19q-1 -4 -4.5 -11.5t-17.5 -7.5h-104q-8 0 -10 5q-3 3 0 14l137 662q1 5 5 12t17 7h366q13 0 17 -7t5 -12l137 -662q3 -11 0 -14q-3 -5 -10 -5h-104q-14 0 -17.5 7.5t-4.5 11.5l-19 100h-374zM422 767q-7 -9 -16 -10.5t-11 -1.5
h-66q-8 0 -11 6.5t1 14.5l70 155q3 7 9.5 13t20.5 6h125q8 0 10.5 -6t-2.5 -12z" />
    <glyph glyph-name="Acircumflex" unicode="&#xc2;" horiz-adv-x="766" 
d="M284 580l-65 -341h328l-65 341h-198zM177 19q-1 -4 -4.5 -11.5t-17.5 -7.5h-104q-8 0 -10 5q-3 3 0 14l137 662q1 5 5 12t17 7h366q13 0 17 -7t5 -12l137 -662q3 -11 0 -14q-3 -5 -10 -5h-104q-14 0 -17.5 7.5t-4.5 11.5l-19 100h-374zM327 770q-8 -10 -14.5 -12.5
t-13.5 -2.5h-71q-8 0 -10.5 5.5t2.5 13.5l106 161q6 10 13 12.5t15 2.5h64q8 0 15 -2.5t13 -12.5l106 -161q5 -8 2.5 -13.5t-10.5 -5.5h-71q-7 0 -13.5 2.5t-14.5 12.5l-59 71z" />
    <glyph glyph-name="Atilde" unicode="&#xc3;" horiz-adv-x="766" 
d="M284 580l-65 -341h328l-65 341h-198zM177 19q-1 -4 -4.5 -11.5t-17.5 -7.5h-104q-8 0 -10 5q-3 3 0 14l137 662q1 5 5 12t17 7h366q13 0 17 -7t5 -12l137 -662q3 -11 0 -14q-3 -5 -10 -5h-104q-14 0 -17.5 7.5t-4.5 11.5l-19 100h-374zM605 831q0 -8 -2.5 -12.5
t-7.5 -9.5q-9 -10 -22.5 -19t-25.5 -15q-18 -9 -38.5 -14t-37.5 -5q-26 -1 -50.5 8t-49.5 20q-22 10 -44 17.5t-48 7.5q-20 0 -37 -5.5t-31 -11.5q-9 -4 -20.5 -10t-20.5 -13t-17 -7t-8 12v72q0 8 2.5 12.5t7.5 9.5q9 10 22.5 19t25.5 15q18 9 38.5 14t37.5 5q26 1 50.5 -8
t49.5 -20q22 -10 44 -17.5t48 -7.5q20 0 37 5.5t31 11.5q9 4 20.5 10t20.5 13t17 7t8 -12v-72z" />
    <glyph glyph-name="Adieresis" unicode="&#xc4;" horiz-adv-x="766" 
d="M284 580l-65 -341h328l-65 341h-198zM177 19q-1 -4 -4.5 -11.5t-17.5 -7.5h-104q-8 0 -10 5q-3 3 0 14l137 662q1 5 5 12t17 7h366q13 0 17 -7t5 -12l137 -662q3 -11 0 -14q-3 -5 -10 -5h-104q-14 0 -17.5 7.5t-4.5 11.5l-19 100h-374zM317 871q5 0 9.5 -4.5t4.5 -9.5
v-85q0 -5 -4.5 -9.5t-9.5 -4.5h-210q-5 0 -9.5 4.5t-4.5 9.5v85q0 5 4.5 9.5t9.5 4.5h210zM647 871q5 0 9.5 -4.5t4.5 -9.5v-85q0 -5 -4.5 -9.5t-9.5 -4.5h-210q-5 0 -9.5 4.5t-4.5 9.5v85q0 5 4.5 9.5t9.5 4.5h210z" />
    <glyph glyph-name="Aring" unicode="&#xc5;" horiz-adv-x="766" 
d="M284 580l-65 -341h328l-65 341h-198zM177 19q-1 -4 -4.5 -11.5t-17.5 -7.5h-104q-8 0 -10 5q-3 3 0 14l137 662q1 5 5 12t17 7h366q13 0 17 -7t5 -12l137 -662q3 -11 0 -14q-3 -5 -10 -5h-104q-14 0 -17.5 7.5t-4.5 11.5l-19 100h-374zM482 845q0 -21 -8 -39.5t-21.5 -32
t-31.5 -21t-39 -7.5t-39.5 7.5t-32 21t-21 32t-7.5 39.5t7.5 39t21 31.5t32 21.5t39.5 8t39 -8t31.5 -21.5t21.5 -31.5t8 -39zM426 845q0 18 -13 31t-31 13t-31 -13t-13 -31t13 -31t31 -13t31 13t13 31z" />
    <glyph glyph-name="AE" unicode="&#xc6;" horiz-adv-x="1251" 
d="M685 410h388q5 0 9.5 -4.5t4.5 -9.5v-92q0 -5 -4.5 -9.5t-9.5 -4.5h-388v-170h512q5 0 9.5 -4.5t4.5 -9.5v-92q0 -5 -4.5 -9.5t-9.5 -4.5h-628q-5 0 -9.5 4.5t-4.5 9.5v105h-340l-32 -100q-2 -6 -8 -12.5t-17 -6.5h-107q-6 0 -8.5 3t-2.5 6.5t1 6.5t1 4l218 658
q5 15 13 18.5t14 3.5h910q5 0 9.5 -4.5t4.5 -9.5v-92q0 -5 -4.5 -9.5t-9.5 -4.5h-512v-170zM359 580l-107 -341h303v341h-196z" />
    <glyph glyph-name="Ccedilla" unicode="&#xc7;" horiz-adv-x="780" 
d="M492 -43q26 0 44 -9.5t28 -19.5q11 -11 20 -28t9 -42t-9 -42t-20 -28q-10 -10 -28 -19.5t-44 -9.5h-139q-5 0 -9.5 4.5t-4.5 9.5v49q0 5 4.5 9.5t9.5 4.5h126q23 0 23 22t-23 22h-105q-5 0 -9.5 4.5t-4.5 9.5v95q-63 8 -112 31.5t-83 52.5q-54 46 -89.5 117t-35.5 160
t35.5 160t89.5 117q46 39 109.5 63.5t142.5 24.5q75 0 131.5 -22t96.5 -54q30 -23 54 -53t41 -60q2 -5 4.5 -14.5t-9.5 -16.5l-76 -42q-12 -7 -16.5 -3t-7.5 9q-11 20 -24.5 39.5t-36.5 39.5q-67 59 -155 59q-46 0 -89.5 -16.5t-76.5 -46.5q-35 -32 -56 -79t-21 -105
t21 -105t56 -79q33 -30 76.5 -46.5t89.5 -16.5q88 0 155 59q23 20 36.5 39.5t24.5 39.5q3 5 7.5 9t16.5 -3l76 -42q12 -7 9.5 -16.5t-4.5 -14.5q-20 -36 -45 -64.5t-51 -48.5q-35 -28 -84 -49t-112 -26v-29h44z" />
    <glyph glyph-name="Egrave" unicode="&#xc8;" horiz-adv-x="798" 
d="M200 410h420q5 0 9.5 -4.5t4.5 -9.5v-92q0 -5 -4.5 -9.5t-9.5 -4.5h-420v-170h544q5 0 9.5 -4.5t4.5 -9.5v-92q0 -5 -4.5 -9.5t-9.5 -4.5h-660q-5 0 -9.5 4.5t-4.5 9.5v672q0 5 4.5 9.5t9.5 4.5h660q5 0 9.5 -4.5t4.5 -9.5v-92q0 -5 -4.5 -9.5t-9.5 -4.5h-544v-170z
M488 776q4 -8 1 -14.5t-11 -6.5h-66q-2 0 -11 1.5t-16 10.5l-130 165q-5 6 -2.5 12t10.5 6h125q14 0 20.5 -6t9.5 -13z" />
    <glyph glyph-name="Eacute" unicode="&#xc9;" horiz-adv-x="798" 
d="M200 410h420q5 0 9.5 -4.5t4.5 -9.5v-92q0 -5 -4.5 -9.5t-9.5 -4.5h-420v-170h544q5 0 9.5 -4.5t4.5 -9.5v-92q0 -5 -4.5 -9.5t-9.5 -4.5h-660q-5 0 -9.5 4.5t-4.5 9.5v672q0 5 4.5 9.5t9.5 4.5h660q5 0 9.5 -4.5t4.5 -9.5v-92q0 -5 -4.5 -9.5t-9.5 -4.5h-544v-170z
M423 767q-7 -9 -16 -10.5t-11 -1.5h-66q-8 0 -11 6.5t1 14.5l70 155q3 7 9.5 13t20.5 6h125q8 0 10.5 -6t-2.5 -12z" />
    <glyph glyph-name="Ecircumflex" unicode="&#xca;" horiz-adv-x="798" 
d="M200 410h420q5 0 9.5 -4.5t4.5 -9.5v-92q0 -5 -4.5 -9.5t-9.5 -4.5h-420v-170h544q5 0 9.5 -4.5t4.5 -9.5v-92q0 -5 -4.5 -9.5t-9.5 -4.5h-660q-5 0 -9.5 4.5t-4.5 9.5v672q0 5 4.5 9.5t9.5 4.5h660q5 0 9.5 -4.5t4.5 -9.5v-92q0 -5 -4.5 -9.5t-9.5 -4.5h-544v-170z
M355 770q-8 -10 -14.5 -12.5t-13.5 -2.5h-71q-8 0 -10.5 5.5t2.5 13.5l106 161q6 10 13 12.5t15 2.5h64q8 0 15 -2.5t13 -12.5l106 -161q5 -8 2.5 -13.5t-10.5 -5.5h-71q-7 0 -13.5 2.5t-14.5 12.5l-59 71z" />
    <glyph glyph-name="Edieresis" unicode="&#xcb;" horiz-adv-x="798" 
d="M200 410h420q5 0 9.5 -4.5t4.5 -9.5v-92q0 -5 -4.5 -9.5t-9.5 -4.5h-420v-170h544q5 0 9.5 -4.5t4.5 -9.5v-92q0 -5 -4.5 -9.5t-9.5 -4.5h-660q-5 0 -9.5 4.5t-4.5 9.5v672q0 5 4.5 9.5t9.5 4.5h660q5 0 9.5 -4.5t4.5 -9.5v-92q0 -5 -4.5 -9.5t-9.5 -4.5h-544v-170z
M351 871q5 0 9.5 -4.5t4.5 -9.5v-85q0 -5 -4.5 -9.5t-9.5 -4.5h-210q-5 0 -9.5 4.5t-4.5 9.5v85q0 5 4.5 9.5t9.5 4.5h210zM681 871q5 0 9.5 -4.5t4.5 -9.5v-85q0 -5 -4.5 -9.5t-9.5 -4.5h-210q-5 0 -9.5 4.5t-4.5 9.5v85q0 5 4.5 9.5t9.5 4.5h210z" />
    <glyph glyph-name="Igrave" unicode="&#xcc;" horiz-adv-x="273" 
d="M203 14q0 -5 -4.5 -9.5t-9.5 -4.5h-105q-5 0 -9.5 4.5t-4.5 9.5v672q0 5 4.5 9.5t9.5 4.5h105q5 0 9.5 -4.5t4.5 -9.5v-672zM187 776q4 -8 1 -14.5t-11 -6.5h-66q-2 0 -11 1.5t-16 10.5l-130 165q-5 6 -2.5 12t10.5 6h125q14 0 20.5 -6t9.5 -13z" />
    <glyph glyph-name="Iacute" unicode="&#xcd;" horiz-adv-x="273" 
d="M203 14q0 -5 -4.5 -9.5t-9.5 -4.5h-105q-5 0 -9.5 4.5t-4.5 9.5v672q0 5 4.5 9.5t9.5 4.5h105q5 0 9.5 -4.5t4.5 -9.5v-672zM185 767q-7 -9 -16 -10.5t-11 -1.5h-66q-8 0 -11 6.5t1 14.5l70 155q3 7 9.5 13t20.5 6h125q8 0 10.5 -6t-2.5 -12z" />
    <glyph glyph-name="Icircumflex" unicode="&#xce;" horiz-adv-x="273" 
d="M203 14q0 -5 -4.5 -9.5t-9.5 -4.5h-105q-5 0 -9.5 4.5t-4.5 9.5v672q0 5 4.5 9.5t9.5 4.5h105q5 0 9.5 -4.5t4.5 -9.5v-672zM78 770q-8 -10 -14.5 -12.5t-13.5 -2.5h-71q-8 0 -10.5 5.5t2.5 13.5l106 161q6 10 13 12.5t15 2.5h64q8 0 15 -2.5t13 -12.5l106 -161
q5 -8 2.5 -13.5t-10.5 -5.5h-71q-7 0 -13.5 2.5t-14.5 12.5l-59 71z" />
    <glyph glyph-name="Idieresis" unicode="&#xcf;" horiz-adv-x="273" 
d="M203 14q0 -5 -4.5 -9.5t-9.5 -4.5h-105q-5 0 -9.5 4.5t-4.5 9.5v672q0 5 4.5 9.5t9.5 4.5h105q5 0 9.5 -4.5t4.5 -9.5v-672zM78 871q5 0 9.5 -4.5t4.5 -9.5v-85q0 -5 -4.5 -9.5t-9.5 -4.5h-210q-5 0 -9.5 4.5t-4.5 9.5v85q0 5 4.5 9.5t9.5 4.5h210zM408 871q5 0 9.5 -4.5
t4.5 -9.5v-85q0 -5 -4.5 -9.5t-9.5 -4.5h-210q-5 0 -9.5 4.5t-4.5 9.5v85q0 5 4.5 9.5t9.5 4.5h210z" />
    <glyph glyph-name="Eth" unicode="&#xd0;" horiz-adv-x="884" 
d="M120 686q0 5 4.5 9.5t9.5 4.5h363q77 0 143 -29.5t110 -74.5q45 -45 69.5 -108t24.5 -138t-24.5 -138t-69.5 -108q-44 -45 -110 -74.5t-143 -29.5h-363q-5 0 -9.5 4.5t-4.5 9.5v281h-106q-5 0 -9.5 4.5t-4.5 9.5v82q0 5 4.5 9.5t9.5 4.5h106v281zM250 405h200
q5 0 9.5 -4.5t4.5 -9.5v-82q0 -5 -4.5 -9.5t-9.5 -4.5h-200v-175h227q53 0 96 19t73 51t46.5 73.5t16.5 86.5t-16.5 86.5t-46.5 73.5t-73 51t-96 19h-227v-175z" />
    <glyph glyph-name="Ntilde" unicode="&#xd1;" horiz-adv-x="810" 
d="M610 686q0 5 4.5 9.5t9.5 4.5h102q5 0 9.5 -4.5t4.5 -9.5v-672q0 -5 -4.5 -9.5t-9.5 -4.5h-85q-9 0 -15 3t-12 10l-414 486v-485q0 -5 -4.5 -9.5t-9.5 -4.5h-102q-5 0 -9.5 4.5t-4.5 9.5v672q0 5 4.5 9.5t9.5 4.5h85q9 0 15 -3t12 -10l414 -486v485zM635 831
q0 -8 -2.5 -12.5t-7.5 -9.5q-9 -10 -22.5 -19t-25.5 -15q-18 -9 -38.5 -14t-37.5 -5q-26 -1 -50.5 8t-49.5 20q-22 10 -44 17.5t-48 7.5q-20 0 -37 -5.5t-31 -11.5q-9 -4 -20.5 -10t-20.5 -13t-17 -7t-8 12v72q0 8 2.5 12.5t7.5 9.5q9 10 22.5 19t25.5 15q18 9 38.5 14
t37.5 5q26 1 50.5 -8t49.5 -20q22 -10 44 -17.5t48 -7.5q20 0 37 5.5t31 11.5q9 4 20.5 10t20.5 13t17 7t8 -12v-72z" />
    <glyph glyph-name="Ograve" unicode="&#xd2;" horiz-adv-x="830" 
d="M790 350q0 -71 -27 -139t-81 -121q-19 -19 -45 -37.5t-59.5 -33.5t-74 -24.5t-88.5 -9.5t-88.5 9.5t-74 24.5t-59.5 33.5t-45 37.5q-54 53 -81 121t-27 139t27 139t81 121q19 19 45 37.5t59.5 33.5t74 24.5t88.5 9.5t88.5 -9.5t74 -24.5t59.5 -33.5t45 -37.5
q54 -53 81 -121t27 -139zM655 350q0 54 -18 97.5t-47 75.5q-27 29 -71 51.5t-104 22.5t-104 -22.5t-71 -51.5q-29 -32 -47 -75.5t-18 -97.5t18 -97.5t47 -75.5q27 -29 71 -51.5t104 -22.5t104 22.5t71 51.5q29 32 47 75.5t18 97.5zM476 776q4 -8 1 -14.5t-11 -6.5h-66
q-2 0 -11 1.5t-16 10.5l-130 165q-5 6 -2.5 12t10.5 6h125q14 0 20.5 -6t9.5 -13z" />
    <glyph glyph-name="Oacute" unicode="&#xd3;" horiz-adv-x="830" 
d="M790 350q0 -71 -27 -139t-81 -121q-19 -19 -45 -37.5t-59.5 -33.5t-74 -24.5t-88.5 -9.5t-88.5 9.5t-74 24.5t-59.5 33.5t-45 37.5q-54 53 -81 121t-27 139t27 139t81 121q19 19 45 37.5t59.5 33.5t74 24.5t88.5 9.5t88.5 -9.5t74 -24.5t59.5 -33.5t45 -37.5
q54 -53 81 -121t27 -139zM655 350q0 54 -18 97.5t-47 75.5q-27 29 -71 51.5t-104 22.5t-104 -22.5t-71 -51.5q-29 -32 -47 -75.5t-18 -97.5t18 -97.5t47 -75.5q27 -29 71 -51.5t104 -22.5t104 22.5t71 51.5q29 32 47 75.5t18 97.5zM455 767q-7 -9 -16 -10.5t-11 -1.5h-66
q-8 0 -11 6.5t1 14.5l70 155q3 7 9.5 13t20.5 6h125q8 0 10.5 -6t-2.5 -12z" />
    <glyph glyph-name="Ocircumflex" unicode="&#xd4;" horiz-adv-x="830" 
d="M790 350q0 -71 -27 -139t-81 -121q-19 -19 -45 -37.5t-59.5 -33.5t-74 -24.5t-88.5 -9.5t-88.5 9.5t-74 24.5t-59.5 33.5t-45 37.5q-54 53 -81 121t-27 139t27 139t81 121q19 19 45 37.5t59.5 33.5t74 24.5t88.5 9.5t88.5 -9.5t74 -24.5t59.5 -33.5t45 -37.5
q54 -53 81 -121t27 -139zM655 350q0 54 -18 97.5t-47 75.5q-27 29 -71 51.5t-104 22.5t-104 -22.5t-71 -51.5q-29 -32 -47 -75.5t-18 -97.5t18 -97.5t47 -75.5q27 -29 71 -51.5t104 -22.5t104 22.5t71 51.5q29 32 47 75.5t18 97.5zM350 770q-8 -10 -14.5 -12.5t-13.5 -2.5
h-71q-8 0 -10.5 5.5t2.5 13.5l106 161q6 10 13 12.5t15 2.5h64q8 0 15 -2.5t13 -12.5l106 -161q5 -8 2.5 -13.5t-10.5 -5.5h-71q-7 0 -13.5 2.5t-14.5 12.5l-59 71z" />
    <glyph glyph-name="Otilde" unicode="&#xd5;" horiz-adv-x="830" 
d="M790 350q0 -71 -27 -139t-81 -121q-19 -19 -45 -37.5t-59.5 -33.5t-74 -24.5t-88.5 -9.5t-88.5 9.5t-74 24.5t-59.5 33.5t-45 37.5q-54 53 -81 121t-27 139t27 139t81 121q19 19 45 37.5t59.5 33.5t74 24.5t88.5 9.5t88.5 -9.5t74 -24.5t59.5 -33.5t45 -37.5
q54 -53 81 -121t27 -139zM655 350q0 54 -18 97.5t-47 75.5q-27 29 -71 51.5t-104 22.5t-104 -22.5t-71 -51.5q-29 -32 -47 -75.5t-18 -97.5t18 -97.5t47 -75.5q27 -29 71 -51.5t104 -22.5t104 22.5t71 51.5q29 32 47 75.5t18 97.5zM631 831q0 -8 -2.5 -12.5t-7.5 -9.5
q-9 -10 -22.5 -19t-25.5 -15q-18 -9 -38.5 -14t-37.5 -5q-26 -1 -50.5 8t-49.5 20q-22 10 -44 17.5t-48 7.5q-20 0 -37 -5.5t-31 -11.5q-9 -4 -20.5 -10t-20.5 -13t-17 -7t-8 12v72q0 8 2.5 12.5t7.5 9.5q9 10 22.5 19t25.5 15q18 9 38.5 14t37.5 5q26 1 50.5 -8t49.5 -20
q22 -10 44 -17.5t48 -7.5q20 0 37 5.5t31 11.5q9 4 20.5 10t20.5 13t17 7t8 -12v-72z" />
    <glyph glyph-name="Odieresis" unicode="&#xd6;" horiz-adv-x="830" 
d="M790 350q0 -71 -27 -139t-81 -121q-19 -19 -45 -37.5t-59.5 -33.5t-74 -24.5t-88.5 -9.5t-88.5 9.5t-74 24.5t-59.5 33.5t-45 37.5q-54 53 -81 121t-27 139t27 139t81 121q19 19 45 37.5t59.5 33.5t74 24.5t88.5 9.5t88.5 -9.5t74 -24.5t59.5 -33.5t45 -37.5
q54 -53 81 -121t27 -139zM655 350q0 54 -18 97.5t-47 75.5q-27 29 -71 51.5t-104 22.5t-104 -22.5t-71 -51.5q-29 -32 -47 -75.5t-18 -97.5t18 -97.5t47 -75.5q27 -29 71 -51.5t104 -22.5t104 22.5t71 51.5q29 32 47 75.5t18 97.5zM353 871q5 0 9.5 -4.5t4.5 -9.5v-85
q0 -5 -4.5 -9.5t-9.5 -4.5h-210q-5 0 -9.5 4.5t-4.5 9.5v85q0 5 4.5 9.5t9.5 4.5h210zM683 871q5 0 9.5 -4.5t4.5 -9.5v-85q0 -5 -4.5 -9.5t-9.5 -4.5h-210q-5 0 -9.5 4.5t-4.5 9.5v85q0 5 4.5 9.5t9.5 4.5h210z" />
    <glyph glyph-name="multiply" unicode="&#xd7;" horiz-adv-x="608" 
d="M519 205q4 -4 4 -10t-4 -10l-55 -55q-4 -4 -10 -4t-10 4l-140 141l-140 -141q-4 -4 -10 -4t-10 4l-55 55q-4 4 -4 10t4 10l141 140l-141 140q-4 4 -4 10t4 10l55 55q4 4 10 4t10 -4l140 -141l140 141q4 4 10 4t10 -4l55 -55q4 -4 4 -10t-4 -10l-141 -140z" />
    <glyph glyph-name="Oslash" unicode="&#xd8;" horiz-adv-x="830" 
d="M665 625q33 -27 56.5 -60.5t38.5 -69.5t22.5 -73t7.5 -72q0 -71 -27 -139t-81 -121q-20 -19 -46 -37.5t-59 -33.5t-73.5 -24.5t-88.5 -9.5q-58 0 -102.5 12.5t-81.5 32.5l-19 -26q-9 -12 -17.5 -15.5t-14.5 -3.5h-58q-8 0 -11 5.5t2 13.5l52 71q-33 27 -56.5 60.5
t-38.5 69.5t-22.5 73t-7.5 72q0 71 27 139t81 121q19 19 45.5 37.5t59.5 33.5t73.5 24.5t88.5 9.5q58 0 102.5 -12.5t81.5 -32.5l19 26q9 12 17.5 15.5t14.5 3.5h58q8 0 11 -5.5t-2 -13.5zM303 129q33 -16 62 -21t50 -5q50 0 96 19.5t79 54.5q29 32 47 75.5t18 97.5
q0 55 -18 97t-47 76zM527 571q-33 16 -62 21t-50 5q-50 0 -96 -19.5t-79 -54.5q-29 -32 -47 -75.5t-18 -97.5q0 -55 18 -97t47 -76z" />
    <glyph glyph-name="Ugrave" unicode="&#xd9;" 
d="M748 204q0 -15 -1.5 -33.5t-7.5 -38t-17 -39.5t-30 -38q-23 -23 -63.5 -39t-100.5 -16h-238q-60 0 -100.5 16t-63.5 39q-19 18 -30 38t-17 39.5t-7.5 38t-1.5 33.5v482q0 5 4.5 9.5t9.5 4.5h102q5 0 9.5 -4.5t4.5 -9.5v-480q0 -28 8.5 -43t16.5 -22q5 -5 22 -13t52 -8
h220q35 0 52 8t22 13q8 7 16.5 22t8.5 43v480q0 5 4.5 9.5t9.5 4.5h102q5 0 9.5 -4.5t4.5 -9.5v-482zM466 776q4 -8 1 -14.5t-11 -6.5h-66q-2 0 -11 1.5t-16 10.5l-130 165q-5 6 -2.5 12t10.5 6h125q14 0 20.5 -6t9.5 -13z" />
    <glyph glyph-name="Uacute" unicode="&#xda;" 
d="M748 204q0 -15 -1.5 -33.5t-7.5 -38t-17 -39.5t-30 -38q-23 -23 -63.5 -39t-100.5 -16h-238q-60 0 -100.5 16t-63.5 39q-19 18 -30 38t-17 39.5t-7.5 38t-1.5 33.5v482q0 5 4.5 9.5t9.5 4.5h102q5 0 9.5 -4.5t4.5 -9.5v-480q0 -28 8.5 -43t16.5 -22q5 -5 22 -13t52 -8
h220q35 0 52 8t22 13q8 7 16.5 22t8.5 43v480q0 5 4.5 9.5t9.5 4.5h102q5 0 9.5 -4.5t4.5 -9.5v-482zM445 767q-7 -9 -16 -10.5t-11 -1.5h-66q-8 0 -11 6.5t1 14.5l70 155q3 7 9.5 13t20.5 6h125q8 0 10.5 -6t-2.5 -12z" />
    <glyph glyph-name="Ucircumflex" unicode="&#xdb;" 
d="M748 204q0 -15 -1.5 -33.5t-7.5 -38t-17 -39.5t-30 -38q-23 -23 -63.5 -39t-100.5 -16h-238q-60 0 -100.5 16t-63.5 39q-19 18 -30 38t-17 39.5t-7.5 38t-1.5 33.5v482q0 5 4.5 9.5t9.5 4.5h102q5 0 9.5 -4.5t4.5 -9.5v-480q0 -28 8.5 -43t16.5 -22q5 -5 22 -13t52 -8
h220q35 0 52 8t22 13q8 7 16.5 22t8.5 43v480q0 5 4.5 9.5t9.5 4.5h102q5 0 9.5 -4.5t4.5 -9.5v-482zM350 770q-8 -10 -14.5 -12.5t-13.5 -2.5h-71q-8 0 -10.5 5.5t2.5 13.5l106 161q6 10 13 12.5t15 2.5h64q8 0 15 -2.5t13 -12.5l106 -161q5 -8 2.5 -13.5t-10.5 -5.5h-71
q-7 0 -13.5 2.5t-14.5 12.5l-59 71z" />
    <glyph glyph-name="Udieresis" unicode="&#xdc;" 
d="M748 204q0 -15 -1.5 -33.5t-7.5 -38t-17 -39.5t-30 -38q-23 -23 -63.5 -39t-100.5 -16h-238q-60 0 -100.5 16t-63.5 39q-19 18 -30 38t-17 39.5t-7.5 38t-1.5 33.5v482q0 5 4.5 9.5t9.5 4.5h102q5 0 9.5 -4.5t4.5 -9.5v-480q0 -28 8.5 -43t16.5 -22q5 -5 22 -13t52 -8
h220q35 0 52 8t22 13q8 7 16.5 22t8.5 43v480q0 5 4.5 9.5t9.5 4.5h102q5 0 9.5 -4.5t4.5 -9.5v-482zM353 871q5 0 9.5 -4.5t4.5 -9.5v-85q0 -5 -4.5 -9.5t-9.5 -4.5h-210q-5 0 -9.5 4.5t-4.5 9.5v85q0 5 4.5 9.5t9.5 4.5h210zM683 871q5 0 9.5 -4.5t4.5 -9.5v-85
q0 -5 -4.5 -9.5t-9.5 -4.5h-210q-5 0 -9.5 4.5t-4.5 9.5v85q0 5 4.5 9.5t9.5 4.5h210z" />
    <glyph glyph-name="Yacute" unicode="&#xdd;" horiz-adv-x="788" 
d="M460 14q0 -5 -4.5 -9.5t-9.5 -4.5h-104q-5 0 -9.5 4.5t-4.5 9.5v246l-306 424q-5 6 -1 11t9 5h109q8 0 17 -3t17 -15l221 -318l221 318q8 12 17 15t17 3h109q5 0 9 -5t-1 -11l-306 -424v-246zM435 767q-7 -9 -16 -10.5t-11 -1.5h-66q-8 0 -11 6.5t1 14.5l70 155
q3 7 9.5 13t20.5 6h125q8 0 10.5 -6t-2.5 -12z" />
    <glyph glyph-name="Thorn" unicode="&#xde;" horiz-adv-x="637" 
d="M402 575q35 0 75.5 -15t69.5 -42q10 -9 21 -23t21 -33.5t16.5 -45t6.5 -56.5q0 -32 -6.5 -57t-16.5 -44.5t-21 -33.5t-21 -23q-29 -27 -69.5 -42t-75.5 -15h-202v-131q0 -5 -4.5 -9.5t-9.5 -4.5h-102q-5 0 -9.5 4.5t-4.5 9.5v672q0 5 4.5 9.5t9.5 4.5h102q5 0 9.5 -4.5
t4.5 -9.5v-111h202zM379 265q44 0 71 26.5t27 68.5t-27 68.5t-71 26.5h-179v-190h179z" />
    <glyph glyph-name="germandbls" unicode="&#xdf;" horiz-adv-x="745" 
d="M70 224h-61q-5 0 -9.5 4.5t-4.5 9.5v88q0 5 4.5 9.5t9.5 4.5h61v29q0 44 13 80t47 65q33 29 74.5 39.5t93.5 10.5h162q42 0 80 -8t69 -29t46 -50t15 -62q0 -26 -3.5 -46.5t-16.5 -39.5q-11 -17 -24.5 -27.5t-25.5 -17.5q46 -23 65 -58t20 -76q0 -32 -11.5 -59.5
t-33 -47.5t-51.5 -31.5t-66 -11.5h-238q-9 0 -12.5 5t-3.5 10v86q0 5 3.5 10t12.5 5h210q28 0 44 15t16 37q0 25 -19 40.5t-46 15.5h-203q-9 0 -13.5 5t-4.5 11v83q0 4 4 10.5t13 6.5h191q27 0 46 15.5t19 40.5q0 22 -16 37t-44 15h-189q-49 0 -74 -22q-16 -14 -20 -33
t-4 -35v-343q0 -5 -4 -10t-11 -5h-96q-5 0 -9.5 4.5t-4.5 9.5v210z" />
    <glyph glyph-name="agrave" unicode="&#xe0;" horiz-adv-x="694" 
d="M436 448h-178l-48 -242h274zM187 90l-14 -71q-1 -5 -5 -12t-17 -7h-100q-8 0 -10 5q-2 2 -1.5 6.5t1.5 7.5l118 526q2 6 7 12.5t16 6.5h330q11 0 16 -6.5t7 -12.5l118 -526q1 -3 1.5 -7.5t-1.5 -6.5q-3 -5 -10 -5h-100q-13 0 -17 7t-5 12l-14 71h-320zM413 625
q4 -8 1 -14.5t-11 -6.5h-59q-18 0 -27 12l-124 157q-5 6 -2.5 12t10.5 6h116q14 0 20.5 -6t9.5 -13z" />
    <glyph glyph-name="aacute" unicode="&#xe1;" horiz-adv-x="694" 
d="M436 448h-178l-48 -242h274zM187 90l-14 -71q-1 -5 -5 -12t-17 -7h-100q-8 0 -10 5q-2 2 -1.5 6.5t1.5 7.5l118 526q2 6 7 12.5t16 6.5h330q11 0 16 -6.5t7 -12.5l118 -526q1 -3 1.5 -7.5t-1.5 -6.5q-3 -5 -10 -5h-100q-13 0 -17 7t-5 12l-14 71h-320zM386 616
q-9 -12 -27 -12h-59q-8 0 -11 6.5t1 14.5l66 147q3 7 9.5 13t20.5 6h116q8 0 10.5 -6t-2.5 -12z" />
    <glyph glyph-name="acircumflex" unicode="&#xe2;" horiz-adv-x="694" 
d="M436 448h-178l-48 -242h274zM187 90l-14 -71q-1 -5 -5 -12t-17 -7h-100q-8 0 -10 5q-2 2 -1.5 6.5t1.5 7.5l118 526q2 6 7 12.5t16 6.5h330q11 0 16 -6.5t7 -12.5l118 -526q1 -3 1.5 -7.5t-1.5 -6.5q-3 -5 -10 -5h-100q-13 0 -17 7t-5 12l-14 71h-320zM294 619
q-8 -10 -14.5 -12.5t-13.5 -2.5h-69q-8 0 -10.5 5.5t2.5 13.5l101 153q6 10 13 12.5t15 2.5h60q8 0 15 -2.5t13 -12.5l101 -153q5 -8 2.5 -13.5t-10.5 -5.5h-69q-7 0 -13.5 2.5t-14.5 12.5l-54 66z" />
    <glyph glyph-name="atilde" unicode="&#xe3;" horiz-adv-x="694" 
d="M436 448h-178l-48 -242h274zM187 90l-14 -71q-1 -5 -5 -12t-17 -7h-100q-8 0 -10 5q-2 2 -1.5 6.5t1.5 7.5l118 526q2 6 7 12.5t16 6.5h330q11 0 16 -6.5t7 -12.5l118 -526q1 -3 1.5 -7.5t-1.5 -6.5q-3 -5 -10 -5h-100q-13 0 -17 7t-5 12l-14 71h-320zM575 682
q0 -8 -2.5 -12.5t-7.5 -9.5q-9 -10 -22.5 -19t-25.5 -15q-18 -9 -38.5 -14t-37.5 -5q-26 -1 -50.5 8t-49.5 20q-22 10 -44 17.5t-48 7.5q-20 0 -37 -5.5t-31 -11.5q-9 -4 -20.5 -10t-20.5 -13t-17 -7t-8 12v60q0 8 2.5 12.5t7.5 9.5q9 10 22.5 19t25.5 15q18 9 38.5 14
t37.5 5q26 1 50.5 -8t49.5 -20q22 -10 44 -17.5t48 -7.5q20 0 37 5.5t31 11.5q9 4 20.5 10t20.5 13t17 7t8 -12v-60z" />
    <glyph glyph-name="adieresis" unicode="&#xe4;" horiz-adv-x="694" 
d="M436 448h-178l-48 -242h274zM187 90l-14 -71q-1 -5 -5 -12t-17 -7h-100q-8 0 -10 5q-2 2 -1.5 6.5t1.5 7.5l118 526q2 6 7 12.5t16 6.5h330q11 0 16 -6.5t7 -12.5l118 -526q1 -3 1.5 -7.5t-1.5 -6.5q-3 -5 -10 -5h-100q-13 0 -17 7t-5 12l-14 71h-320zM590 626
q0 -5 -4.5 -9.5t-9.5 -4.5h-175q-5 0 -9.5 4.5t-4.5 9.5v64q0 5 4.5 9.5t9.5 4.5h175q5 0 9.5 -4.5t4.5 -9.5v-64zM298 626q0 -5 -4.5 -9.5t-9.5 -4.5h-175q-5 0 -9.5 4.5t-4.5 9.5v64q0 5 4.5 9.5t9.5 4.5h175q5 0 9.5 -4.5t4.5 -9.5v-64z" />
    <glyph glyph-name="aring" unicode="&#xe5;" horiz-adv-x="694" 
d="M436 448h-178l-48 -242h274zM187 90l-14 -71q-1 -5 -5 -12t-17 -7h-100q-8 0 -10 5q-2 2 -1.5 6.5t1.5 7.5l118 526q2 6 7 12.5t16 6.5h330q11 0 16 -6.5t7 -12.5l118 -526q1 -3 1.5 -7.5t-1.5 -6.5q-3 -5 -10 -5h-100q-13 0 -17 7t-5 12l-14 71h-320zM448 692
q0 -40 -28 -68t-68 -28t-68 28t-28 68t28 68t68 28t68 -28t28 -68zM396 692q0 18 -13 31t-31 13t-31 -13t-13 -31t13 -31t31 -13t31 13t13 31z" />
    <glyph glyph-name="ae" unicode="&#xe6;" horiz-adv-x="1127" 
d="M976 340q5 0 9.5 -4.5t4.5 -9.5v-88q0 -5 -4.5 -9.5t-9.5 -4.5h-351v-108h448q5 0 9.5 -4.5t4.5 -9.5v-88q0 -5 -4.5 -9.5t-9.5 -4.5h-559q-5 0 -9.5 4.5t-4.5 9.5v76h-299l-24 -71q-3 -8 -9.5 -13.5t-15.5 -5.5h-101q-8 0 -10 6t1 14l191 522q2 7 8 14.5t19 7.5h813
q5 0 9.5 -4.5t4.5 -9.5v-88q0 -5 -4.5 -9.5t-9.5 -4.5h-448v-108h351zM500 448h-178l-82 -242h260v242z" />
    <glyph glyph-name="ccedilla" unicode="&#xe7;" horiz-adv-x="652" 
d="M607 167q12 -7 9.5 -16.5t-4.5 -14.5q-11 -20 -32.5 -45t-44.5 -42q-11 -9 -27 -18.5t-36 -18.5t-45 -15.5t-54 -8.5v-31h51q19 0 36 -7.5t28 -18.5q7 -7 17 -23t10 -43t-10 -43t-17 -23q-11 -11 -28 -18.5t-36 -7.5h-135q-5 0 -9.5 4.5t-4.5 9.5v42q0 5 4.5 9.5t9.5 4.5
h122q23 0 23 22t-23 22h-102q-5 0 -9.5 4.5t-4.5 9.5v90q-45 7 -84.5 25t-69.5 44q-45 38 -73 95t-28 127t28 127t73 95q38 33 90.5 53.5t117.5 19.5q60 -1 106 -18.5t80 -43.5q23 -18 44.5 -42.5t32.5 -44.5q2 -5 4.5 -14.5t-9.5 -16.5l-69 -38q-12 -7 -16.5 -3t-7.5 9
q-9 16 -22 32t-30 29q-26 20 -54.5 28.5t-55.5 8.5q-36 0 -72 -14t-63 -43q-20 -21 -33.5 -51.5t-13.5 -72.5t13.5 -72.5t33.5 -51.5q27 -29 63 -43t72 -14q27 0 55.5 8.5t54.5 28.5q17 13 30 29t22 32q3 5 7.5 9t16.5 -3z" />
    <glyph glyph-name="egrave" unicode="&#xe8;" horiz-adv-x="740" 
d="M589 340q5 0 9.5 -4.5t4.5 -9.5v-88q0 -5 -4.5 -9.5t-9.5 -4.5h-394v-108h491q5 0 9.5 -4.5t4.5 -9.5v-88q0 -5 -4.5 -9.5t-9.5 -4.5h-602q-5 0 -9.5 4.5t-4.5 9.5v536q0 5 4.5 9.5t9.5 4.5h602q5 0 9.5 -4.5t4.5 -9.5v-88q0 -5 -4.5 -9.5t-9.5 -4.5h-491v-108h394z
M443 625q4 -8 1 -14.5t-11 -6.5h-59q-18 0 -27 12l-124 157q-5 6 -2.5 12t10.5 6h116q14 0 20.5 -6t9.5 -13z" />
    <glyph glyph-name="eacute" unicode="&#xe9;" horiz-adv-x="740" 
d="M589 340q5 0 9.5 -4.5t4.5 -9.5v-88q0 -5 -4.5 -9.5t-9.5 -4.5h-394v-108h491q5 0 9.5 -4.5t4.5 -9.5v-88q0 -5 -4.5 -9.5t-9.5 -4.5h-602q-5 0 -9.5 4.5t-4.5 9.5v536q0 5 4.5 9.5t9.5 4.5h602q5 0 9.5 -4.5t4.5 -9.5v-88q0 -5 -4.5 -9.5t-9.5 -4.5h-491v-108h394z
M394 616q-9 -12 -27 -12h-59q-8 0 -11 6.5t1 14.5l66 147q3 7 9.5 13t20.5 6h116q8 0 10.5 -6t-2.5 -12z" />
    <glyph glyph-name="ecircumflex" unicode="&#xea;" horiz-adv-x="740" 
d="M589 340q5 0 9.5 -4.5t4.5 -9.5v-88q0 -5 -4.5 -9.5t-9.5 -4.5h-394v-108h491q5 0 9.5 -4.5t4.5 -9.5v-88q0 -5 -4.5 -9.5t-9.5 -4.5h-602q-5 0 -9.5 4.5t-4.5 9.5v536q0 5 4.5 9.5t9.5 4.5h602q5 0 9.5 -4.5t4.5 -9.5v-88q0 -5 -4.5 -9.5t-9.5 -4.5h-491v-108h394z
M321 619q-8 -10 -14.5 -12.5t-13.5 -2.5h-69q-8 0 -10.5 5.5t2.5 13.5l101 153q6 10 13 12.5t15 2.5h60q8 0 15 -2.5t13 -12.5l101 -153q5 -8 2.5 -13.5t-10.5 -5.5h-69q-7 0 -13.5 2.5t-14.5 12.5l-54 66z" />
    <glyph glyph-name="edieresis" unicode="&#xeb;" horiz-adv-x="740" 
d="M589 340q5 0 9.5 -4.5t4.5 -9.5v-88q0 -5 -4.5 -9.5t-9.5 -4.5h-394v-108h491q5 0 9.5 -4.5t4.5 -9.5v-88q0 -5 -4.5 -9.5t-9.5 -4.5h-602q-5 0 -9.5 4.5t-4.5 9.5v536q0 5 4.5 9.5t9.5 4.5h602q5 0 9.5 -4.5t4.5 -9.5v-88q0 -5 -4.5 -9.5t-9.5 -4.5h-491v-108h394z
M630 626q0 -5 -4.5 -9.5t-9.5 -4.5h-175q-5 0 -9.5 4.5t-4.5 9.5v64q0 5 4.5 9.5t9.5 4.5h175q5 0 9.5 -4.5t4.5 -9.5v-64zM338 626q0 -5 -4.5 -9.5t-9.5 -4.5h-175q-5 0 -9.5 4.5t-4.5 9.5v64q0 5 4.5 9.5t9.5 4.5h175q5 0 9.5 -4.5t4.5 -9.5v-64z" />
    <glyph glyph-name="igrave" unicode="&#xec;" horiz-adv-x="267" 
d="M197 14q0 -5 -4.5 -9.5t-9.5 -4.5h-99q-5 0 -9.5 4.5t-4.5 9.5v536q0 5 4.5 9.5t9.5 4.5h99q5 0 9.5 -4.5t4.5 -9.5v-536zM188 625q4 -8 1 -14.5t-11 -6.5h-59q-18 0 -27 12l-124 157q-5 6 -2.5 12t10.5 6h116q14 0 20.5 -6t9.5 -13z" />
    <glyph glyph-name="iacute" unicode="&#xed;" horiz-adv-x="267" 
d="M197 14q0 -5 -4.5 -9.5t-9.5 -4.5h-99q-5 0 -9.5 4.5t-4.5 9.5v536q0 5 4.5 9.5t9.5 4.5h99q5 0 9.5 -4.5t4.5 -9.5v-536zM178 616q-9 -12 -27 -12h-59q-8 0 -11 6.5t1 14.5l66 147q3 7 9.5 13t20.5 6h116q8 0 10.5 -6t-2.5 -12z" />
    <glyph glyph-name="icircumflex" unicode="&#xee;" horiz-adv-x="267" 
d="M197 14q0 -5 -4.5 -9.5t-9.5 -4.5h-99q-5 0 -9.5 4.5t-4.5 9.5v536q0 5 4.5 9.5t9.5 4.5h99q5 0 9.5 -4.5t4.5 -9.5v-536zM81 619q-8 -10 -14.5 -12.5t-13.5 -2.5h-69q-8 0 -10.5 5.5t2.5 13.5l101 153q6 10 13 12.5t15 2.5h60q8 0 15 -2.5t13 -12.5l101 -153
q5 -8 2.5 -13.5t-10.5 -5.5h-69q-7 0 -13.5 2.5t-14.5 12.5l-54 66z" />
    <glyph glyph-name="idieresis" unicode="&#xef;" horiz-adv-x="267" 
d="M197 14q0 -5 -4.5 -9.5t-9.5 -4.5h-99q-5 0 -9.5 4.5t-4.5 9.5v536q0 5 4.5 9.5t9.5 4.5h99q5 0 9.5 -4.5t4.5 -9.5v-536zM382 626q0 -5 -4.5 -9.5t-9.5 -4.5h-175q-5 0 -9.5 4.5t-4.5 9.5v64q0 5 4.5 9.5t9.5 4.5h175q5 0 9.5 -4.5t4.5 -9.5v-64zM90 626q0 -5 -4.5 -9.5
t-9.5 -4.5h-175q-5 0 -9.5 4.5t-4.5 9.5v64q0 5 4.5 9.5t9.5 4.5h175q5 0 9.5 -4.5t4.5 -9.5v-64z" />
    <glyph glyph-name="eth" unicode="&#xf0;" horiz-adv-x="804" 
d="M116 550q0 5 4.5 9.5t9.5 4.5h354q61 0 115 -24.5t89 -59.5q29 -29 52.5 -78.5t23.5 -119.5t-23.5 -119.5t-52.5 -78.5q-35 -35 -89 -59.5t-115 -24.5h-354q-5 0 -9.5 4.5t-4.5 9.5v219h-102q-5 0 -9.5 4.5t-4.5 9.5v70q0 5 4.5 9.5t9.5 4.5h102v219zM241 331h171
q5 0 9.5 -4.5t4.5 -9.5v-70q0 -5 -4.5 -9.5t-9.5 -4.5h-171v-117h226q38 0 69 14t52.5 37t33.5 53t12 62t-12 62t-33.5 53t-52.5 37t-69 14h-226v-117z" />
    <glyph glyph-name="ntilde" unicode="&#xf1;" horiz-adv-x="755" 
d="M560 550q0 5 4.5 9.5t9.5 4.5h97q5 0 9.5 -4.5t4.5 -9.5v-536q0 -5 -4.5 -9.5t-9.5 -4.5h-84q-16 0 -29 13l-363 367v-366q0 -5 -4.5 -9.5t-9.5 -4.5h-97q-5 0 -9.5 4.5t-4.5 9.5v536q0 5 4.5 9.5t9.5 4.5h84q16 0 29 -13l363 -367v366zM605 682q0 -8 -2.5 -12.5
t-7.5 -9.5q-9 -10 -22.5 -19t-25.5 -15q-18 -9 -38.5 -14t-37.5 -5q-26 -1 -50.5 8t-49.5 20q-22 10 -44 17.5t-48 7.5q-20 0 -37 -5.5t-31 -11.5q-9 -4 -20.5 -10t-20.5 -13t-17 -7t-8 12v60q0 8 2.5 12.5t7.5 9.5q9 10 22.5 19t25.5 15q18 9 38.5 14t37.5 5q26 1 50.5 -8
t49.5 -20q22 -10 44 -17.5t48 -7.5q20 0 37 5.5t31 11.5q9 4 20.5 10t20.5 13t17 7t8 -12v-60z" />
    <glyph glyph-name="ograve" unicode="&#xf2;" horiz-adv-x="698" 
d="M349 577q78 0 132 -26.5t89 -59.5q45 -43 66.5 -97t21.5 -112t-21.5 -112t-66.5 -97q-35 -33 -89 -59.5t-132 -26.5t-132 26.5t-89 59.5q-45 43 -66.5 97t-21.5 112t21.5 112t66.5 97q35 33 89 59.5t132 26.5zM349 463q-46 0 -77.5 -16t-48.5 -33q-19 -18 -36 -50.5
t-17 -81.5t17 -81.5t36 -50.5q17 -17 48.5 -33t77.5 -16t77.5 16t48.5 33q19 18 36 50.5t17 81.5t-17 81.5t-36 50.5q-17 17 -48.5 33t-77.5 16zM403 625q4 -8 1 -14.5t-11 -6.5h-59q-18 0 -27 12l-124 157q-5 6 -2.5 12t10.5 6h116q14 0 20.5 -6t9.5 -13z" />
    <glyph glyph-name="oacute" unicode="&#xf3;" horiz-adv-x="698" 
d="M349 577q78 0 132 -26.5t89 -59.5q45 -43 66.5 -97t21.5 -112t-21.5 -112t-66.5 -97q-35 -33 -89 -59.5t-132 -26.5t-132 26.5t-89 59.5q-45 43 -66.5 97t-21.5 112t21.5 112t66.5 97q35 33 89 59.5t132 26.5zM349 463q-46 0 -77.5 -16t-48.5 -33q-19 -18 -36 -50.5
t-17 -81.5t17 -81.5t36 -50.5q17 -17 48.5 -33t77.5 -16t77.5 16t48.5 33q19 18 36 50.5t17 81.5t-17 81.5t-36 50.5q-17 17 -48.5 33t-77.5 16zM384 616q-9 -12 -27 -12h-59q-8 0 -11 6.5t1 14.5l66 147q3 7 9.5 13t20.5 6h116q8 0 10.5 -6t-2.5 -12z" />
    <glyph glyph-name="ocircumflex" unicode="&#xf4;" horiz-adv-x="698" 
d="M349 577q78 0 132 -26.5t89 -59.5q45 -43 66.5 -97t21.5 -112t-21.5 -112t-66.5 -97q-35 -33 -89 -59.5t-132 -26.5t-132 26.5t-89 59.5q-45 43 -66.5 97t-21.5 112t21.5 112t66.5 97q35 33 89 59.5t132 26.5zM349 463q-46 0 -77.5 -16t-48.5 -33q-19 -18 -36 -50.5
t-17 -81.5t17 -81.5t36 -50.5q17 -17 48.5 -33t77.5 -16t77.5 16t48.5 33q19 18 36 50.5t17 81.5t-17 81.5t-36 50.5q-17 17 -48.5 33t-77.5 16zM296 619q-8 -10 -14.5 -12.5t-13.5 -2.5h-69q-8 0 -10.5 5.5t2.5 13.5l101 153q6 10 13 12.5t15 2.5h60q8 0 15 -2.5t13 -12.5
l101 -153q5 -8 2.5 -13.5t-10.5 -5.5h-69q-7 0 -13.5 2.5t-14.5 12.5l-54 66z" />
    <glyph glyph-name="otilde" unicode="&#xf5;" horiz-adv-x="698" 
d="M349 577q78 0 132 -26.5t89 -59.5q45 -43 66.5 -97t21.5 -112t-21.5 -112t-66.5 -97q-35 -33 -89 -59.5t-132 -26.5t-132 26.5t-89 59.5q-45 43 -66.5 97t-21.5 112t21.5 112t66.5 97q35 33 89 59.5t132 26.5zM349 463q-46 0 -77.5 -16t-48.5 -33q-19 -18 -36 -50.5
t-17 -81.5t17 -81.5t36 -50.5q17 -17 48.5 -33t77.5 -16t77.5 16t48.5 33q19 18 36 50.5t17 81.5t-17 81.5t-36 50.5q-17 17 -48.5 33t-77.5 16zM577 682q0 -8 -2.5 -12.5t-7.5 -9.5q-9 -10 -22.5 -19t-25.5 -15q-18 -9 -38.5 -14t-37.5 -5q-26 -1 -50.5 8t-49.5 20
q-22 10 -44 17.5t-48 7.5q-20 0 -37 -5.5t-31 -11.5q-9 -4 -20.5 -10t-20.5 -13t-17 -7t-8 12v60q0 8 2.5 12.5t7.5 9.5q9 10 22.5 19t25.5 15q18 9 38.5 14t37.5 5q26 1 50.5 -8t49.5 -20q22 -10 44 -17.5t48 -7.5q20 0 37 5.5t31 11.5q9 4 20.5 10t20.5 13t17 7t8 -12v-60
z" />
    <glyph glyph-name="odieresis" unicode="&#xf6;" horiz-adv-x="698" 
d="M349 577q78 0 132 -26.5t89 -59.5q45 -43 66.5 -97t21.5 -112t-21.5 -112t-66.5 -97q-35 -33 -89 -59.5t-132 -26.5t-132 26.5t-89 59.5q-45 43 -66.5 97t-21.5 112t21.5 112t66.5 97q35 33 89 59.5t132 26.5zM349 463q-46 0 -77.5 -16t-48.5 -33q-19 -18 -36 -50.5
t-17 -81.5t17 -81.5t36 -50.5q17 -17 48.5 -33t77.5 -16t77.5 16t48.5 33q19 18 36 50.5t17 81.5t-17 81.5t-36 50.5q-17 17 -48.5 33t-77.5 16zM593 626q0 -5 -4.5 -9.5t-9.5 -4.5h-175q-5 0 -9.5 4.5t-4.5 9.5v64q0 5 4.5 9.5t9.5 4.5h175q5 0 9.5 -4.5t4.5 -9.5v-64z
M301 626q0 -5 -4.5 -9.5t-9.5 -4.5h-175q-5 0 -9.5 4.5t-4.5 9.5v64q0 5 4.5 9.5t9.5 4.5h175q5 0 9.5 -4.5t4.5 -9.5v-64z" />
    <glyph glyph-name="divide" unicode="&#xf7;" horiz-adv-x="680" 
d="M595 304q0 -5 -4.5 -9.5t-9.5 -4.5h-482q-5 0 -9.5 4.5t-4.5 9.5v82q0 5 4.5 9.5t9.5 4.5h482q5 0 9.5 -4.5t4.5 -9.5v-82zM418 534q0 -33 -22.5 -55.5t-55.5 -22.5t-55.5 22.5t-22.5 55.5t22.5 55.5t55.5 22.5t55.5 -22.5t22.5 -55.5zM418 156q0 -33 -22.5 -55.5
t-55.5 -22.5t-55.5 22.5t-22.5 55.5t22.5 55.5t55.5 22.5t55.5 -22.5t22.5 -55.5z" />
    <glyph glyph-name="oslash" unicode="&#xf8;" horiz-adv-x="698" 
d="M274 116q18 -8 35.5 -11.5t37.5 -3.5q48 0 79.5 16t48.5 33q18 18 35.5 50.5t17.5 81.5q0 39 -12 69t-32 54zM424 448q-18 8 -35.5 11.5t-37.5 3.5q-48 0 -79.5 -16t-48.5 -33q-18 -18 -35.5 -50.5t-17.5 -81.5q0 -39 12 -69t32 -54zM570 491q45 -42 66.5 -97t21.5 -112
q0 -58 -22 -112t-66 -97q-35 -33 -89 -59.5t-132 -26.5q-48 0 -83 9.5t-62 23.5l-11 -14q-5 -5 -12.5 -12t-19.5 -7h-50q-8 0 -11 5.5t2 13.5l40 54l-14 13q-45 42 -66.5 97t-21.5 112q0 58 22 112t66 97q35 33 89 59.5t132 26.5q48 0 83 -9.5t62 -23.5l11 14q5 5 12.5 12
t19.5 7h50q8 0 11 -5.5t-2 -13.5l-40 -54z" />
    <glyph glyph-name="ugrave" unicode="&#xf9;" horiz-adv-x="762" 
d="M195 191q0 -12 3.5 -27.5t18.5 -29.5q15 -13 33.5 -15.5t30.5 -2.5h200q12 0 30.5 2.5t33.5 15.5q15 14 18.5 29.5t3.5 27.5v359q0 5 4.5 9.5t9.5 4.5h97q5 0 9.5 -4.5t4.5 -9.5v-372q0 -13 -1.5 -29t-6 -33.5t-14.5 -35t-26 -32.5t-50 -31.5t-93 -16.5h-240
q-59 0 -93 16.5t-50 31.5q-17 15 -26.5 32.5t-14 35t-6 33.5t-1.5 29v372q0 5 4.5 9.5t9.5 4.5h97q5 0 9.5 -4.5t4.5 -9.5v-359zM443 625q4 -8 1 -14.5t-11 -6.5h-59q-18 0 -27 12l-124 157q-5 6 -2.5 12t10.5 6h116q14 0 20.5 -6t9.5 -13z" />
    <glyph glyph-name="uacute" unicode="&#xfa;" horiz-adv-x="762" 
d="M195 191q0 -12 3.5 -27.5t18.5 -29.5q15 -13 33.5 -15.5t30.5 -2.5h200q12 0 30.5 2.5t33.5 15.5q15 14 18.5 29.5t3.5 27.5v359q0 5 4.5 9.5t9.5 4.5h97q5 0 9.5 -4.5t4.5 -9.5v-372q0 -13 -1.5 -29t-6 -33.5t-14.5 -35t-26 -32.5t-50 -31.5t-93 -16.5h-240
q-59 0 -93 16.5t-50 31.5q-17 15 -26.5 32.5t-14 35t-6 33.5t-1.5 29v372q0 5 4.5 9.5t9.5 4.5h97q5 0 9.5 -4.5t4.5 -9.5v-359zM414 616q-9 -12 -27 -12h-59q-8 0 -11 6.5t1 14.5l66 147q3 7 9.5 13t20.5 6h116q8 0 10.5 -6t-2.5 -12z" />
    <glyph glyph-name="ucircumflex" unicode="&#xfb;" horiz-adv-x="762" 
d="M195 191q0 -12 3.5 -27.5t18.5 -29.5q15 -13 33.5 -15.5t30.5 -2.5h200q12 0 30.5 2.5t33.5 15.5q15 14 18.5 29.5t3.5 27.5v359q0 5 4.5 9.5t9.5 4.5h97q5 0 9.5 -4.5t4.5 -9.5v-372q0 -13 -1.5 -29t-6 -33.5t-14.5 -35t-26 -32.5t-50 -31.5t-93 -16.5h-240
q-59 0 -93 16.5t-50 31.5q-17 15 -26.5 32.5t-14 35t-6 33.5t-1.5 29v372q0 5 4.5 9.5t9.5 4.5h97q5 0 9.5 -4.5t4.5 -9.5v-359zM326 619q-8 -10 -14.5 -12.5t-13.5 -2.5h-69q-8 0 -10.5 5.5t2.5 13.5l101 153q6 10 13 12.5t15 2.5h60q8 0 15 -2.5t13 -12.5l101 -153
q5 -8 2.5 -13.5t-10.5 -5.5h-69q-7 0 -13.5 2.5t-14.5 12.5l-54 66z" />
    <glyph glyph-name="udieresis" unicode="&#xfc;" horiz-adv-x="762" 
d="M195 191q0 -12 3.5 -27.5t18.5 -29.5q15 -13 33.5 -15.5t30.5 -2.5h200q12 0 30.5 2.5t33.5 15.5q15 14 18.5 29.5t3.5 27.5v359q0 5 4.5 9.5t9.5 4.5h97q5 0 9.5 -4.5t4.5 -9.5v-372q0 -13 -1.5 -29t-6 -33.5t-14.5 -35t-26 -32.5t-50 -31.5t-93 -16.5h-240
q-59 0 -93 16.5t-50 31.5q-17 15 -26.5 32.5t-14 35t-6 33.5t-1.5 29v372q0 5 4.5 9.5t9.5 4.5h97q5 0 9.5 -4.5t4.5 -9.5v-359zM630 626q0 -5 -4.5 -9.5t-9.5 -4.5h-175q-5 0 -9.5 4.5t-4.5 9.5v64q0 5 4.5 9.5t9.5 4.5h175q5 0 9.5 -4.5t4.5 -9.5v-64zM338 626
q0 -5 -4.5 -9.5t-9.5 -4.5h-175q-5 0 -9.5 4.5t-4.5 9.5v64q0 5 4.5 9.5t9.5 4.5h175q5 0 9.5 -4.5t4.5 -9.5v-64z" />
    <glyph glyph-name="yacute" unicode="&#xfd;" horiz-adv-x="710" 
d="M418 14q0 -5 -4.5 -9.5t-9.5 -4.5h-98q-5 0 -9.5 4.5t-4.5 9.5v180l-270 354q-3 5 -1 10.5t9 5.5h105q14 0 21.5 -5t12.5 -13l186 -253l186 253q5 8 12.5 13t21.5 5h105q7 0 9 -5.5t-1 -10.5l-270 -354v-180zM378 616q-9 -12 -27 -12h-59q-8 0 -11 6.5t1 14.5l66 147
q3 7 9.5 13t20.5 6h116q8 0 10.5 -6t-2.5 -12z" />
    <glyph glyph-name="thorn" unicode="&#xfe;" horiz-adv-x="596" 
d="M195 15q0 -7 -4.5 -11t-9.5 -4h-97q-5 0 -9.5 4t-4.5 11v548q0 7 4.5 11t9.5 4h97q5 0 9.5 -4t4.5 -11v-91h195q37 0 69.5 -14t55.5 -35t39.5 -53.5t16.5 -80.5t-16.5 -80.5t-39.5 -53.5t-55.5 -35t-69.5 -14h-195v-91zM372 222q33 0 51 20.5t18 46.5t-18 46.5t-51 20.5
h-177v-134h177z" />
    <glyph glyph-name="ydieresis" unicode="&#xff;" horiz-adv-x="710" 
d="M418 14q0 -5 -4.5 -9.5t-9.5 -4.5h-98q-5 0 -9.5 4.5t-4.5 9.5v180l-270 354q-3 5 -1 10.5t9 5.5h105q14 0 21.5 -5t12.5 -13l186 -253l186 253q5 8 12.5 13t21.5 5h105q7 0 9 -5.5t-1 -10.5l-270 -354v-180zM604 626q0 -5 -4.5 -9.5t-9.5 -4.5h-175q-5 0 -9.5 4.5
t-4.5 9.5v64q0 5 4.5 9.5t9.5 4.5h175q5 0 9.5 -4.5t4.5 -9.5v-64zM312 626q0 -5 -4.5 -9.5t-9.5 -4.5h-175q-5 0 -9.5 4.5t-4.5 9.5v64q0 5 4.5 9.5t9.5 4.5h175q5 0 9.5 -4.5t4.5 -9.5v-64z" />
    <glyph glyph-name="Amacron" unicode="&#x100;" horiz-adv-x="766" 
d="M284 580l-65 -341h328l-65 341h-198zM177 19q-1 -4 -4.5 -11.5t-17.5 -7.5h-104q-8 0 -10 5q-3 3 0 14l137 662q1 5 5 12t17 7h366q13 0 17 -7t5 -12l137 -662q3 -11 0 -14q-3 -5 -10 -5h-104q-14 0 -17.5 7.5t-4.5 11.5l-19 100h-374zM588 780q0 -5 -4.5 -9.5t-9.5 -4.5
h-392q-5 0 -9.5 4.5t-4.5 9.5v82q0 5 4.5 9.5t9.5 4.5h392q5 0 9.5 -4.5t4.5 -9.5v-82z" />
    <glyph glyph-name="amacron" unicode="&#x101;" horiz-adv-x="694" 
d="M436 448h-178l-48 -242h274zM187 90l-14 -71q-1 -5 -5 -12t-17 -7h-100q-8 0 -10 5q-2 2 -1.5 6.5t1.5 7.5l118 526q2 6 7 12.5t16 6.5h330q11 0 16 -6.5t7 -12.5l118 -526q1 -3 1.5 -7.5t-1.5 -6.5q-3 -5 -10 -5h-100q-13 0 -17 7t-5 12l-14 71h-320zM551 629
q0 -5 -4.5 -9.5t-9.5 -4.5h-386q-5 0 -9.5 4.5t-4.5 9.5v70q0 5 4.5 9.5t9.5 4.5h386q5 0 9.5 -4.5t4.5 -9.5v-70z" />
    <glyph glyph-name="Abreve" unicode="&#x102;" horiz-adv-x="766" 
d="M284 580l-65 -341h328l-65 341h-198zM177 19q-1 -4 -4.5 -11.5t-17.5 -7.5h-104q-8 0 -10 5q-3 3 0 14l137 662q1 5 5 12t17 7h366q13 0 17 -7t5 -12l137 -662q3 -11 0 -14q-3 -5 -10 -5h-104q-14 0 -17.5 7.5t-4.5 11.5l-19 100h-374zM559 877q5 0 9.5 -4.5t4.5 -9.5
v-30q0 -32 -23 -55t-55 -23h-232q-32 0 -55 23t-23 55v30q0 5 4.5 9.5t9.5 4.5h90q5 0 9.5 -4.5t4.5 -9.5v-3q0 -11 11.5 -17t29.5 -6h70q18 0 29.5 6t11.5 17v3q0 5 4.5 9.5t9.5 4.5h90z" />
    <glyph glyph-name="abreve" unicode="&#x103;" horiz-adv-x="694" 
d="M436 448h-178l-48 -242h274zM187 90l-14 -71q-1 -5 -5 -12t-17 -7h-100q-8 0 -10 5q-2 2 -1.5 6.5t1.5 7.5l118 526q2 6 7 12.5t16 6.5h330q11 0 16 -6.5t7 -12.5l118 -526q1 -3 1.5 -7.5t-1.5 -6.5q-3 -5 -10 -5h-100q-13 0 -17 7t-5 12l-14 71h-320zM499 709q2 0 7 -2
t5 -10v-26q0 -28 -19.5 -47.5t-47.5 -19.5h-198q-28 0 -47.5 19.5t-19.5 47.5v26q0 8 5 10t7 2h77q5 0 8.5 -3.5t3.5 -8.5v-3q0 -10 11 -15t24 -5h60q13 0 24 5t11 15v3q0 5 3.5 8.5t8.5 3.5h77z" />
    <glyph glyph-name="Aogonek" unicode="&#x104;" horiz-adv-x="766" 
d="M284 580l-65 -341h328l-65 341h-198zM177 19q-1 -4 -4.5 -11.5t-17.5 -7.5h-104q-8 0 -10 5q-3 3 0 14l137 662q1 5 5 12t17 7h366q13 0 17 -7t5 -12l137 -662q3 -13 -5 -21l-108 -104q-17 -16 -17 -31q0 -11 7 -19t18 -8h80q5 0 9.5 -4.5t4.5 -9.5v-49q0 -5 -4.5 -9.5
t-9.5 -4.5h-102q-29 0 -46.5 9.5t-26.5 18.5q-12 12 -19.5 29.5t-7.5 37.5q0 32 17.5 53.5t36.5 38.5l63 54h-4q-14 0 -17.5 7.5t-4.5 11.5l-19 100h-374z" />
    <glyph glyph-name="aogonek" unicode="&#x105;" horiz-adv-x="694" 
d="M436 448h-178l-48 -242h274zM187 90l-14 -71q-1 -5 -5 -12t-17 -7h-100q-8 0 -10 5q-2 2 -1.5 6.5t1.5 7.5l118 526q2 6 7 12.5t16 6.5h330q11 0 16 -6.5t7 -12.5l118 -526q1 -2 1 -8.5t-7 -13.5l-115 -107q-4 -4 -7.5 -9t-3.5 -13q0 -10 6.5 -17.5t18.5 -7.5h83
q5 0 9.5 -4.5t4.5 -9.5v-42q0 -5 -4.5 -9.5t-9.5 -4.5h-103q-19 0 -36 7t-28 18q-12 11 -19.5 27.5t-7.5 36.5q0 17 8 35.5t34 41.5l70 61h-4q-13 0 -17 7t-5 12l-14 71h-320z" />
    <glyph glyph-name="Cacute" unicode="&#x106;" horiz-adv-x="780" 
d="M735 205q12 -7 9.5 -16.5t-4.5 -14.5q-17 -30 -41 -60t-54 -53q-40 -32 -96.5 -54t-131.5 -22q-79 0 -142.5 24.5t-109.5 63.5q-54 46 -89.5 117t-35.5 160t35.5 160t89.5 117q46 39 109.5 63.5t142.5 24.5q75 0 131.5 -22t96.5 -54q30 -23 54 -53t41 -60q2 -5 4.5 -14.5
t-9.5 -16.5l-76 -42q-12 -7 -16.5 -3t-7.5 9q-11 20 -24.5 39.5t-36.5 39.5q-67 59 -155 59q-46 0 -89.5 -16.5t-76.5 -46.5q-35 -32 -56 -79t-21 -105t21 -105t56 -79q33 -30 76.5 -46.5t89.5 -16.5q88 0 155 59q23 20 36.5 39.5t24.5 39.5q3 5 7.5 9t16.5 -3zM445 767
q-7 -9 -16 -10.5t-11 -1.5h-66q-8 0 -11 6.5t1 14.5l70 155q3 7 9.5 13t20.5 6h125q8 0 10.5 -6t-2.5 -12z" />
    <glyph glyph-name="cacute" unicode="&#x107;" horiz-adv-x="652" 
d="M607 167q12 -7 9.5 -16.5t-4.5 -14.5q-11 -20 -32.5 -44.5t-44.5 -42.5q-34 -26 -80 -43.5t-106 -18.5q-65 -1 -117.5 19.5t-90.5 53.5q-45 38 -73 95t-28 127t28 127t73 95q38 33 90.5 53.5t117.5 19.5q60 -1 106 -18.5t80 -43.5q23 -18 44.5 -42.5t32.5 -44.5
q2 -5 4.5 -14.5t-9.5 -16.5l-69 -38q-12 -7 -16.5 -3t-7.5 9q-9 16 -22 32t-30 29q-26 20 -54.5 28.5t-55.5 8.5q-36 0 -72 -14t-63 -43q-20 -21 -33.5 -51.5t-13.5 -72.5t13.5 -72.5t33.5 -51.5q27 -29 63 -43t72 -14q27 0 55.5 8.5t54.5 28.5q17 13 30 29t22 32q3 5 7.5 9
t16.5 -3zM368 616q-9 -12 -27 -12h-59q-8 0 -11 6.5t1 14.5l66 147q3 7 9.5 13t20.5 6h116q8 0 10.5 -6t-2.5 -12z" />
    <glyph glyph-name="Ccircumflex" unicode="&#x108;" horiz-adv-x="780" 
d="M735 205q12 -7 9.5 -16.5t-4.5 -14.5q-17 -30 -41 -60t-54 -53q-40 -32 -96.5 -54t-131.5 -22q-79 0 -142.5 24.5t-109.5 63.5q-54 46 -89.5 117t-35.5 160t35.5 160t89.5 117q46 39 109.5 63.5t142.5 24.5q75 0 131.5 -22t96.5 -54q30 -23 54 -53t41 -60q2 -5 4.5 -14.5
t-9.5 -16.5l-76 -42q-12 -7 -16.5 -3t-7.5 9q-11 20 -24.5 39.5t-36.5 39.5q-67 59 -155 59q-46 0 -89.5 -16.5t-76.5 -46.5q-35 -32 -56 -79t-21 -105t21 -105t56 -79q33 -30 76.5 -46.5t89.5 -16.5q88 0 155 59q23 20 36.5 39.5t24.5 39.5q3 5 7.5 9t16.5 -3zM350 770
q-8 -10 -14.5 -12.5t-13.5 -2.5h-71q-8 0 -10.5 5.5t2.5 13.5l106 161q6 10 13 12.5t15 2.5h64q8 0 15 -2.5t13 -12.5l106 -161q5 -8 2.5 -13.5t-10.5 -5.5h-71q-7 0 -13.5 2.5t-14.5 12.5l-59 71z" />
    <glyph glyph-name="ccircumflex" unicode="&#x109;" horiz-adv-x="652" 
d="M607 167q12 -7 9.5 -16.5t-4.5 -14.5q-11 -20 -32.5 -44.5t-44.5 -42.5q-34 -26 -80 -43.5t-106 -18.5q-65 -1 -117.5 19.5t-90.5 53.5q-45 38 -73 95t-28 127t28 127t73 95q38 33 90.5 53.5t117.5 19.5q60 -1 106 -18.5t80 -43.5q23 -18 44.5 -42.5t32.5 -44.5
q2 -5 4.5 -14.5t-9.5 -16.5l-69 -38q-12 -7 -16.5 -3t-7.5 9q-9 16 -22 32t-30 29q-26 20 -54.5 28.5t-55.5 8.5q-36 0 -72 -14t-63 -43q-20 -21 -33.5 -51.5t-13.5 -72.5t13.5 -72.5t33.5 -51.5q27 -29 63 -43t72 -14q27 0 55.5 8.5t54.5 28.5q17 13 30 29t22 32q3 5 7.5 9
t16.5 -3zM284 619q-8 -10 -14.5 -12.5t-13.5 -2.5h-69q-8 0 -10.5 5.5t2.5 13.5l101 153q6 10 13 12.5t15 2.5h60q8 0 15 -2.5t13 -12.5l101 -153q5 -8 2.5 -13.5t-10.5 -5.5h-69q-7 0 -13.5 2.5t-14.5 12.5l-54 66z" />
    <glyph glyph-name="Cdotaccent" unicode="&#x10a;" horiz-adv-x="780" 
d="M735 205q12 -7 9.5 -16.5t-4.5 -14.5q-17 -30 -41 -60t-54 -53q-40 -32 -96.5 -54t-131.5 -22q-79 0 -142.5 24.5t-109.5 63.5q-54 46 -89.5 117t-35.5 160t35.5 160t89.5 117q46 39 109.5 63.5t142.5 24.5q75 0 131.5 -22t96.5 -54q30 -23 54 -53t41 -60q2 -5 4.5 -14.5
t-9.5 -16.5l-76 -42q-12 -7 -16.5 -3t-7.5 9q-11 20 -24.5 39.5t-36.5 39.5q-67 59 -155 59q-46 0 -89.5 -16.5t-76.5 -46.5q-35 -32 -56 -79t-21 -105t21 -105t56 -79q33 -30 76.5 -46.5t89.5 -16.5q88 0 155 59q23 20 36.5 39.5t24.5 39.5q3 5 7.5 9t16.5 -3zM503 769
q0 -5 -4.5 -9.5t-9.5 -4.5h-142q-5 0 -9.5 4.5t-4.5 9.5v116q0 5 4.5 9.5t9.5 4.5h142q5 0 9.5 -4.5t4.5 -9.5v-116z" />
    <glyph glyph-name="cdotaccent" unicode="&#x10b;" horiz-adv-x="652" 
d="M607 167q12 -7 9.5 -16.5t-4.5 -14.5q-11 -20 -32.5 -44.5t-44.5 -42.5q-34 -26 -80 -43.5t-106 -18.5q-65 -1 -117.5 19.5t-90.5 53.5q-45 38 -73 95t-28 127t28 127t73 95q38 33 90.5 53.5t117.5 19.5q60 -1 106 -18.5t80 -43.5q23 -18 44.5 -42.5t32.5 -44.5
q2 -5 4.5 -14.5t-9.5 -16.5l-69 -38q-12 -7 -16.5 -3t-7.5 9q-9 16 -22 32t-30 29q-26 20 -54.5 28.5t-55.5 8.5q-36 0 -72 -14t-63 -43q-20 -21 -33.5 -51.5t-13.5 -72.5t13.5 -72.5t33.5 -51.5q27 -29 63 -43t72 -14q27 0 55.5 8.5t54.5 28.5q17 13 30 29t22 32q3 5 7.5 9
t16.5 -3zM412 618q0 -5 -4.5 -9.5t-9.5 -4.5h-124q-5 0 -9.5 4.5t-4.5 9.5v104q0 5 4.5 9.5t9.5 4.5h124q5 0 9.5 -4.5t4.5 -9.5v-104z" />
    <glyph glyph-name="Ccaron" unicode="&#x10c;" horiz-adv-x="780" 
d="M735 205q12 -7 9.5 -16.5t-4.5 -14.5q-17 -30 -41 -60t-54 -53q-40 -32 -96.5 -54t-131.5 -22q-79 0 -142.5 24.5t-109.5 63.5q-54 46 -89.5 117t-35.5 160t35.5 160t89.5 117q46 39 109.5 63.5t142.5 24.5q75 0 131.5 -22t96.5 -54q30 -23 54 -53t41 -60q2 -5 4.5 -14.5
t-9.5 -16.5l-76 -42q-12 -7 -16.5 -3t-7.5 9q-11 20 -24.5 39.5t-36.5 39.5q-67 59 -155 59q-46 0 -89.5 -16.5t-76.5 -46.5q-35 -32 -56 -79t-21 -105t21 -105t56 -79q33 -30 76.5 -46.5t89.5 -16.5q88 0 155 59q23 20 36.5 39.5t24.5 39.5q3 5 7.5 9t16.5 -3zM468 935
q8 10 14.5 12.5t13.5 2.5h71q8 0 10.5 -5.5t-2.5 -13.5l-106 -161q-6 -10 -13 -12.5t-15 -2.5h-64q-8 0 -15 2.5t-13 12.5l-106 161q-5 8 -2.5 13.5t10.5 5.5h71q7 0 13.5 -2.5t14.5 -12.5l59 -71z" />
    <glyph glyph-name="ccaron" unicode="&#x10d;" horiz-adv-x="652" 
d="M607 167q12 -7 9.5 -16.5t-4.5 -14.5q-11 -20 -32.5 -44.5t-44.5 -42.5q-34 -26 -80 -43.5t-106 -18.5q-65 -1 -117.5 19.5t-90.5 53.5q-45 38 -73 95t-28 127t28 127t73 95q38 33 90.5 53.5t117.5 19.5q60 -1 106 -18.5t80 -43.5q23 -18 44.5 -42.5t32.5 -44.5
q2 -5 4.5 -14.5t-9.5 -16.5l-69 -38q-12 -7 -16.5 -3t-7.5 9q-9 16 -22 32t-30 29q-26 20 -54.5 28.5t-55.5 8.5q-36 0 -72 -14t-63 -43q-20 -21 -33.5 -51.5t-13.5 -72.5t13.5 -72.5t33.5 -51.5q27 -29 63 -43t72 -14q27 0 55.5 8.5t54.5 28.5q17 13 30 29t22 32q3 5 7.5 9
t16.5 -3zM392 776q8 10 14.5 12.5t13.5 2.5h69q8 0 10.5 -5.5t-2.5 -13.5l-101 -153q-6 -10 -13 -12.5t-15 -2.5h-60q-8 0 -15 2.5t-13 12.5l-101 153q-5 8 -2.5 13.5t10.5 5.5h69q7 0 13.5 -2.5t14.5 -12.5l54 -66z" />
    <glyph glyph-name="Dcaron" unicode="&#x10e;" horiz-adv-x="834" 
d="M447 700q77 0 143 -29.5t110 -74.5q45 -45 69.5 -108t24.5 -138t-24.5 -138t-69.5 -108q-44 -45 -110 -74.5t-143 -29.5h-363q-5 0 -9.5 4.5t-4.5 9.5v672q0 5 4.5 9.5t9.5 4.5h363zM200 120h227q53 0 96 19t73 51t46.5 73.5t16.5 86.5t-16.5 86.5t-46.5 73.5t-73 51
t-96 19h-227v-460zM428 935q8 10 14.5 12.5t13.5 2.5h71q8 0 10.5 -5.5t-2.5 -13.5l-106 -161q-6 -10 -13 -12.5t-15 -2.5h-64q-8 0 -15 2.5t-13 12.5l-106 161q-5 8 -2.5 13.5t10.5 5.5h71q7 0 13.5 -2.5t14.5 -12.5l59 -71z" />
    <glyph glyph-name="dcaron" unicode="&#x10f;" horiz-adv-x="758" 
d="M438 564q61 0 115 -24.5t89 -59.5q29 -29 52.5 -78.5t23.5 -119.5t-23.5 -119.5t-52.5 -78.5q-35 -35 -89 -59.5t-115 -24.5h-354q-5 0 -9.5 4.5t-4.5 9.5v536q0 5 4.5 9.5t9.5 4.5h354zM195 116h226q38 0 69 14t52.5 37t33.5 53t12 62t-12 62t-33.5 53t-52.5 37t-69 14
h-226v-332zM396 776q8 10 14.5 12.5t13.5 2.5h69q8 0 10.5 -5.5t-2.5 -13.5l-101 -153q-6 -10 -13 -12.5t-15 -2.5h-60q-8 0 -15 2.5t-13 12.5l-101 153q-5 8 -2.5 13.5t10.5 5.5h69q7 0 13.5 -2.5t14.5 -12.5l54 -66z" />
    <glyph glyph-name="Dcroat" unicode="&#x110;" horiz-adv-x="884" 
d="M120 686q0 5 4.5 9.5t9.5 4.5h363q77 0 143 -29.5t110 -74.5q45 -45 69.5 -108t24.5 -138t-24.5 -138t-69.5 -108q-44 -45 -110 -74.5t-143 -29.5h-363q-5 0 -9.5 4.5t-4.5 9.5v281h-106q-5 0 -9.5 4.5t-4.5 9.5v82q0 5 4.5 9.5t9.5 4.5h106v281zM250 405h200
q5 0 9.5 -4.5t4.5 -9.5v-82q0 -5 -4.5 -9.5t-9.5 -4.5h-200v-175h227q53 0 96 19t73 51t46.5 73.5t16.5 86.5t-16.5 86.5t-46.5 73.5t-73 51t-96 19h-227v-175z" />
    <glyph glyph-name="dcroat" unicode="&#x111;" horiz-adv-x="804" 
d="M116 550q0 5 4.5 9.5t9.5 4.5h354q61 0 115 -24.5t89 -59.5q29 -29 52.5 -78.5t23.5 -119.5t-23.5 -119.5t-52.5 -78.5q-35 -35 -89 -59.5t-115 -24.5h-354q-5 0 -9.5 4.5t-4.5 9.5v219h-102q-5 0 -9.5 4.5t-4.5 9.5v70q0 5 4.5 9.5t9.5 4.5h102v219zM241 331h171
q5 0 9.5 -4.5t4.5 -9.5v-70q0 -5 -4.5 -9.5t-9.5 -4.5h-171v-117h226q38 0 69 14t52.5 37t33.5 53t12 62t-12 62t-33.5 53t-52.5 37t-69 14h-226v-117z" />
    <glyph glyph-name="Emacron" unicode="&#x112;" horiz-adv-x="798" 
d="M200 410h420q5 0 9.5 -4.5t4.5 -9.5v-92q0 -5 -4.5 -9.5t-9.5 -4.5h-420v-170h544q5 0 9.5 -4.5t4.5 -9.5v-92q0 -5 -4.5 -9.5t-9.5 -4.5h-660q-5 0 -9.5 4.5t-4.5 9.5v672q0 5 4.5 9.5t9.5 4.5h660q5 0 9.5 -4.5t4.5 -9.5v-92q0 -5 -4.5 -9.5t-9.5 -4.5h-544v-170z
M610 780q0 -5 -4.5 -9.5t-9.5 -4.5h-392q-5 0 -9.5 4.5t-4.5 9.5v82q0 5 4.5 9.5t9.5 4.5h392q5 0 9.5 -4.5t4.5 -9.5v-82z" />
    <glyph glyph-name="emacron" unicode="&#x113;" horiz-adv-x="740" 
d="M589 340q5 0 9.5 -4.5t4.5 -9.5v-88q0 -5 -4.5 -9.5t-9.5 -4.5h-394v-108h491q5 0 9.5 -4.5t4.5 -9.5v-88q0 -5 -4.5 -9.5t-9.5 -4.5h-602q-5 0 -9.5 4.5t-4.5 9.5v536q0 5 4.5 9.5t9.5 4.5h602q5 0 9.5 -4.5t4.5 -9.5v-88q0 -5 -4.5 -9.5t-9.5 -4.5h-491v-108h394z
M584 629q0 -5 -4.5 -9.5t-9.5 -4.5h-386q-5 0 -9.5 4.5t-4.5 9.5v70q0 5 4.5 9.5t9.5 4.5h386q5 0 9.5 -4.5t4.5 -9.5v-70z" />
    <glyph glyph-name="Edotaccent" unicode="&#x116;" horiz-adv-x="798" 
d="M200 410h420q5 0 9.5 -4.5t4.5 -9.5v-92q0 -5 -4.5 -9.5t-9.5 -4.5h-420v-170h544q5 0 9.5 -4.5t4.5 -9.5v-92q0 -5 -4.5 -9.5t-9.5 -4.5h-660q-5 0 -9.5 4.5t-4.5 9.5v672q0 5 4.5 9.5t9.5 4.5h660q5 0 9.5 -4.5t4.5 -9.5v-92q0 -5 -4.5 -9.5t-9.5 -4.5h-544v-170z
M500 769q0 -5 -4.5 -9.5t-9.5 -4.5h-142q-5 0 -9.5 4.5t-4.5 9.5v116q0 5 4.5 9.5t9.5 4.5h142q5 0 9.5 -4.5t4.5 -9.5v-116z" />
    <glyph glyph-name="edotaccent" unicode="&#x117;" horiz-adv-x="740" 
d="M589 340q5 0 9.5 -4.5t4.5 -9.5v-88q0 -5 -4.5 -9.5t-9.5 -4.5h-394v-108h491q5 0 9.5 -4.5t4.5 -9.5v-88q0 -5 -4.5 -9.5t-9.5 -4.5h-602q-5 0 -9.5 4.5t-4.5 9.5v536q0 5 4.5 9.5t9.5 4.5h602q5 0 9.5 -4.5t4.5 -9.5v-88q0 -5 -4.5 -9.5t-9.5 -4.5h-491v-108h394z
M447 618q0 -5 -4.5 -9.5t-9.5 -4.5h-124q-5 0 -9.5 4.5t-4.5 9.5v104q0 5 4.5 9.5t9.5 4.5h124q5 0 9.5 -4.5t4.5 -9.5v-104z" />
    <glyph glyph-name="Eogonek" unicode="&#x118;" horiz-adv-x="798" 
d="M200 410h420q5 0 9.5 -4.5t4.5 -9.5v-92q0 -5 -4.5 -9.5t-9.5 -4.5h-420v-170h544q5 0 9.5 -4.5t4.5 -9.5v-92q0 -5 -4.5 -9.5t-9.5 -4.5h-25l-107 -106q-8 -7 -12.5 -14t-4.5 -17q0 -11 7 -19t18 -8h80q5 0 9.5 -4.5t4.5 -9.5v-49q0 -5 -4.5 -9.5t-9.5 -4.5h-102
q-29 0 -46.5 9.5t-26.5 18.5q-12 12 -19.5 29.5t-7.5 37.5q0 32 17.5 53.5t36.5 38.5l63 54h-531q-5 0 -9.5 4.5t-4.5 9.5v672q0 5 4.5 9.5t9.5 4.5h660q5 0 9.5 -4.5t4.5 -9.5v-92q0 -5 -4.5 -9.5t-9.5 -4.5h-544v-170z" />
    <glyph glyph-name="eogonek" unicode="&#x119;" horiz-adv-x="740" 
d="M589 340q5 0 9.5 -4.5t4.5 -9.5v-88q0 -5 -4.5 -9.5t-9.5 -4.5h-394v-108h491q5 0 9.5 -4.5t4.5 -9.5v-88q0 -5 -4.5 -9.5t-9.5 -4.5h-22l-114 -110q-5 -5 -8 -9.5t-3 -12.5q0 -10 6.5 -17.5t18.5 -7.5h83q5 0 9.5 -4.5t4.5 -9.5v-42q0 -5 -4.5 -9.5t-9.5 -4.5h-103
q-19 0 -36 7t-28 18q-12 11 -19.5 27.5t-7.5 36.5q0 17 8 35.5t34 41.5l69 61h-480q-5 0 -9.5 4.5t-4.5 9.5v536q0 5 4.5 9.5t9.5 4.5h602q5 0 9.5 -4.5t4.5 -9.5v-88q0 -5 -4.5 -9.5t-9.5 -4.5h-491v-108h394z" />
    <glyph glyph-name="Ecaron" unicode="&#x11a;" horiz-adv-x="798" 
d="M200 410h420q5 0 9.5 -4.5t4.5 -9.5v-92q0 -5 -4.5 -9.5t-9.5 -4.5h-420v-170h544q5 0 9.5 -4.5t4.5 -9.5v-92q0 -5 -4.5 -9.5t-9.5 -4.5h-660q-5 0 -9.5 4.5t-4.5 9.5v672q0 5 4.5 9.5t9.5 4.5h660q5 0 9.5 -4.5t4.5 -9.5v-92q0 -5 -4.5 -9.5t-9.5 -4.5h-544v-170z
M473 935q8 10 14.5 12.5t13.5 2.5h71q8 0 10.5 -5.5t-2.5 -13.5l-106 -161q-6 -10 -13 -12.5t-15 -2.5h-64q-8 0 -15 2.5t-13 12.5l-106 161q-5 8 -2.5 13.5t10.5 5.5h71q7 0 13.5 -2.5t14.5 -12.5l59 -71z" />
    <glyph glyph-name="ecaron" unicode="&#x11b;" horiz-adv-x="740" 
d="M589 340q5 0 9.5 -4.5t4.5 -9.5v-88q0 -5 -4.5 -9.5t-9.5 -4.5h-394v-108h491q5 0 9.5 -4.5t4.5 -9.5v-88q0 -5 -4.5 -9.5t-9.5 -4.5h-602q-5 0 -9.5 4.5t-4.5 9.5v536q0 5 4.5 9.5t9.5 4.5h602q5 0 9.5 -4.5t4.5 -9.5v-88q0 -5 -4.5 -9.5t-9.5 -4.5h-491v-108h394z
M429 776q8 10 14.5 12.5t13.5 2.5h69q8 0 10.5 -5.5t-2.5 -13.5l-101 -153q-6 -10 -13 -12.5t-15 -2.5h-60q-8 0 -15 2.5t-13 12.5l-101 153q-5 8 -2.5 13.5t10.5 5.5h69q7 0 13.5 -2.5t14.5 -12.5l54 -66z" />
    <glyph glyph-name="Gcircumflex" unicode="&#x11c;" horiz-adv-x="811" 
d="M742 356q5 0 9.5 -4.5t4.5 -9.5v-328q0 -5 -4.5 -9.5t-9.5 -4.5h-98q-5 0 -9.5 4.5t-4.5 9.5v64q-27 -27 -56 -44.5t-58.5 -28.5t-58.5 -15.5t-56 -4.5q-69 0 -129.5 24.5t-105.5 62.5q-55 47 -90.5 118t-35.5 160t35.5 160t91.5 118q46 38 109 62.5t142 24.5
q43 0 78 -7.5t63.5 -18.5t50.5 -25t37 -26q26 -21 52.5 -52.5t41.5 -59.5q2 -5 4.5 -14.5t-9.5 -16.5l-76 -42q-12 -7 -16.5 -3t-7.5 9q-11 20 -26.5 40t-32.5 36q-35 33 -74 47t-81 15q-57 1 -100 -19.5t-71 -46.5q-32 -29 -54 -75t-22 -106q0 -56 21 -104t53 -80
q31 -30 70 -46.5t90 -16.5q44 0 80.5 12.5t68.5 33.5q28 19 46.5 40t31.5 47h-161q-5 0 -9.5 4.5t-4.5 9.5v92q0 5 4.5 9.5t9.5 4.5h267zM350 770q-8 -10 -14.5 -12.5t-13.5 -2.5h-71q-8 0 -10.5 5.5t2.5 13.5l106 161q6 10 13 12.5t15 2.5h64q8 0 15 -2.5t13 -12.5
l106 -161q5 -8 2.5 -13.5t-10.5 -5.5h-71q-7 0 -13.5 2.5t-14.5 12.5l-59 71z" />
    <glyph glyph-name="gcircumflex" unicode="&#x11d;" horiz-adv-x="681" 
d="M612 287q5 0 9.5 -4.5t4.5 -9.5v-259q0 -5 -4.5 -9.5t-9.5 -4.5h-92q-5 0 -9.5 4.5t-4.5 9.5v35q-25 -21 -49.5 -33t-47 -18.5t-42 -8.5t-32.5 -2q-58 0 -107 20t-87 53q-53 46 -77 104t-24 118q0 71 28 127.5t73 94.5q38 33 90.5 53.5t117.5 19.5q60 -1 106 -18.5
t80 -43.5q23 -18 44.5 -42.5t32.5 -44.5q2 -5 4.5 -14.5t-9.5 -16.5l-69 -38q-12 -7 -16.5 -3t-7.5 9q-9 16 -22 32t-30 29q-26 20 -54.5 28.5t-55.5 8.5q-36 0 -72 -14t-63 -43q-20 -21 -33.5 -51.5t-13.5 -72.5q0 -41 13.5 -72.5t33.5 -53.5q21 -23 54 -39t78 -16
q17 0 36.5 3t40 11t40 22t36.5 36h-116q-5 0 -9.5 4.5t-4.5 9.5v86q0 5 4.5 9.5t9.5 4.5h226zM283 619q-8 -10 -14.5 -12.5t-13.5 -2.5h-69q-8 0 -10.5 5.5t2.5 13.5l101 153q6 10 13 12.5t15 2.5h60q8 0 15 -2.5t13 -12.5l101 -153q5 -8 2.5 -13.5t-10.5 -5.5h-69
q-7 0 -13.5 2.5t-14.5 12.5l-54 66z" />
    <glyph glyph-name="Gbreve" unicode="&#x11e;" horiz-adv-x="811" 
d="M742 356q5 0 9.5 -4.5t4.5 -9.5v-328q0 -5 -4.5 -9.5t-9.5 -4.5h-98q-5 0 -9.5 4.5t-4.5 9.5v64q-27 -27 -56 -44.5t-58.5 -28.5t-58.5 -15.5t-56 -4.5q-69 0 -129.5 24.5t-105.5 62.5q-55 47 -90.5 118t-35.5 160t35.5 160t91.5 118q46 38 109 62.5t142 24.5
q43 0 78 -7.5t63.5 -18.5t50.5 -25t37 -26q26 -21 52.5 -52.5t41.5 -59.5q2 -5 4.5 -14.5t-9.5 -16.5l-76 -42q-12 -7 -16.5 -3t-7.5 9q-11 20 -26.5 40t-32.5 36q-35 33 -74 47t-81 15q-57 1 -100 -19.5t-71 -46.5q-32 -29 -54 -75t-22 -106q0 -56 21 -104t53 -80
q31 -30 70 -46.5t90 -16.5q44 0 80.5 12.5t68.5 33.5q28 19 46.5 40t31.5 47h-161q-5 0 -9.5 4.5t-4.5 9.5v92q0 5 4.5 9.5t9.5 4.5h267zM589 877q5 0 9.5 -4.5t4.5 -9.5v-30q0 -32 -23 -55t-55 -23h-232q-32 0 -55 23t-23 55v30q0 5 4.5 9.5t9.5 4.5h90q5 0 9.5 -4.5
t4.5 -9.5v-3q0 -11 11.5 -17t29.5 -6h70q18 0 29.5 6t11.5 17v3q0 5 4.5 9.5t9.5 4.5h90z" />
    <glyph glyph-name="gbreve" unicode="&#x11f;" horiz-adv-x="681" 
d="M612 287q5 0 9.5 -4.5t4.5 -9.5v-259q0 -5 -4.5 -9.5t-9.5 -4.5h-92q-5 0 -9.5 4.5t-4.5 9.5v35q-25 -21 -49.5 -33t-47 -18.5t-42 -8.5t-32.5 -2q-58 0 -107 20t-87 53q-53 46 -77 104t-24 118q0 71 28 127.5t73 94.5q38 33 90.5 53.5t117.5 19.5q60 -1 106 -18.5
t80 -43.5q23 -18 44.5 -42.5t32.5 -44.5q2 -5 4.5 -14.5t-9.5 -16.5l-69 -38q-12 -7 -16.5 -3t-7.5 9q-9 16 -22 32t-30 29q-26 20 -54.5 28.5t-55.5 8.5q-36 0 -72 -14t-63 -43q-20 -21 -33.5 -51.5t-13.5 -72.5q0 -41 13.5 -72.5t33.5 -53.5q21 -23 54 -39t78 -16
q17 0 36.5 3t40 11t40 22t36.5 36h-116q-5 0 -9.5 4.5t-4.5 9.5v86q0 5 4.5 9.5t9.5 4.5h226zM491 709q2 0 7 -2t5 -10v-26q0 -28 -19.5 -47.5t-47.5 -19.5h-198q-28 0 -47.5 19.5t-19.5 47.5v26q0 8 5 10t7 2h77q5 0 8.5 -3.5t3.5 -8.5v-3q0 -10 11 -15t24 -5h60q13 0 24 5
t11 15v3q0 5 3.5 8.5t8.5 3.5h77z" />
    <glyph glyph-name="Gdotaccent" unicode="&#x120;" horiz-adv-x="811" 
d="M742 356q5 0 9.5 -4.5t4.5 -9.5v-328q0 -5 -4.5 -9.5t-9.5 -4.5h-98q-5 0 -9.5 4.5t-4.5 9.5v64q-27 -27 -56 -44.5t-58.5 -28.5t-58.5 -15.5t-56 -4.5q-69 0 -129.5 24.5t-105.5 62.5q-55 47 -90.5 118t-35.5 160t35.5 160t91.5 118q46 38 109 62.5t142 24.5
q43 0 78 -7.5t63.5 -18.5t50.5 -25t37 -26q26 -21 52.5 -52.5t41.5 -59.5q2 -5 4.5 -14.5t-9.5 -16.5l-76 -42q-12 -7 -16.5 -3t-7.5 9q-11 20 -26.5 40t-32.5 36q-35 33 -74 47t-81 15q-57 1 -100 -19.5t-71 -46.5q-32 -29 -54 -75t-22 -106q0 -56 21 -104t53 -80
q31 -30 70 -46.5t90 -16.5q44 0 80.5 12.5t68.5 33.5q28 19 46.5 40t31.5 47h-161q-5 0 -9.5 4.5t-4.5 9.5v92q0 5 4.5 9.5t9.5 4.5h267zM499 769q0 -5 -4.5 -9.5t-9.5 -4.5h-142q-5 0 -9.5 4.5t-4.5 9.5v116q0 5 4.5 9.5t9.5 4.5h142q5 0 9.5 -4.5t4.5 -9.5v-116z" />
    <glyph glyph-name="gdotaccent" unicode="&#x121;" horiz-adv-x="681" 
d="M612 287q5 0 9.5 -4.5t4.5 -9.5v-259q0 -5 -4.5 -9.5t-9.5 -4.5h-92q-5 0 -9.5 4.5t-4.5 9.5v35q-25 -21 -49.5 -33t-47 -18.5t-42 -8.5t-32.5 -2q-58 0 -107 20t-87 53q-53 46 -77 104t-24 118q0 71 28 127.5t73 94.5q38 33 90.5 53.5t117.5 19.5q60 -1 106 -18.5
t80 -43.5q23 -18 44.5 -42.5t32.5 -44.5q2 -5 4.5 -14.5t-9.5 -16.5l-69 -38q-12 -7 -16.5 -3t-7.5 9q-9 16 -22 32t-30 29q-26 20 -54.5 28.5t-55.5 8.5q-36 0 -72 -14t-63 -43q-20 -21 -33.5 -51.5t-13.5 -72.5q0 -41 13.5 -72.5t33.5 -53.5q21 -23 54 -39t78 -16
q17 0 36.5 3t40 11t40 22t36.5 36h-116q-5 0 -9.5 4.5t-4.5 9.5v86q0 5 4.5 9.5t9.5 4.5h226zM416 618q0 -5 -4.5 -9.5t-9.5 -4.5h-124q-5 0 -9.5 4.5t-4.5 9.5v104q0 5 4.5 9.5t9.5 4.5h124q5 0 9.5 -4.5t4.5 -9.5v-104z" />
    <glyph glyph-name="Gcommaaccent" unicode="&#x122;" horiz-adv-x="811" 
d="M742 356q5 0 9.5 -4.5t4.5 -9.5v-328q0 -5 -4.5 -9.5t-9.5 -4.5h-98q-5 0 -9.5 4.5t-4.5 9.5v64q-27 -27 -56 -44.5t-58.5 -28.5t-58.5 -15.5t-56 -4.5q-69 0 -129.5 24.5t-105.5 62.5q-55 47 -90.5 118t-35.5 160t35.5 160t91.5 118q46 38 109 62.5t142 24.5
q43 0 78 -7.5t63.5 -18.5t50.5 -25t37 -26q26 -21 52.5 -52.5t41.5 -59.5q2 -5 4.5 -14.5t-9.5 -16.5l-76 -42q-12 -7 -16.5 -3t-7.5 9q-11 20 -26.5 40t-32.5 36q-35 33 -74 47t-81 15q-57 1 -100 -19.5t-71 -46.5q-32 -29 -54 -75t-22 -106q0 -56 21 -104t53 -80
q31 -30 70 -46.5t90 -16.5q44 0 80.5 12.5t68.5 33.5q28 19 46.5 40t31.5 47h-161q-5 0 -9.5 4.5t-4.5 9.5v92q0 5 4.5 9.5t9.5 4.5h267zM403 -282q-7 -10 -13.5 -12.5t-13.5 -2.5h-28q-6 0 -6.5 5.5t2.5 11.5l60 111h-60q-5 0 -9.5 4.5t-4.5 9.5v100q0 5 4.5 9.5t9.5 4.5
h132q5 0 9.5 -4.5t4.5 -9.5v-103z" />
    <glyph glyph-name="gcommaaccent" unicode="&#x123;" horiz-adv-x="681" 
d="M612 287q5 0 9.5 -4.5t4.5 -9.5v-259q0 -5 -4.5 -9.5t-9.5 -4.5h-92q-5 0 -9.5 4.5t-4.5 9.5v35q-25 -21 -49.5 -33t-47 -18.5t-42 -8.5t-32.5 -2q-58 0 -107 20t-87 53q-53 46 -77 104t-24 118q0 71 28 127.5t73 94.5q38 33 90.5 53.5t117.5 19.5q60 -1 106 -18.5
t80 -43.5q23 -18 44.5 -42.5t32.5 -44.5q2 -5 4.5 -14.5t-9.5 -16.5l-69 -38q-12 -7 -16.5 -3t-7.5 9q-9 16 -22 32t-30 29q-26 20 -54.5 28.5t-55.5 8.5q-36 0 -72 -14t-63 -43q-20 -21 -33.5 -51.5t-13.5 -72.5q0 -41 13.5 -72.5t33.5 -53.5q21 -23 54 -39t78 -16
q17 0 36.5 3t40 11t40 22t36.5 36h-116q-5 0 -9.5 4.5t-4.5 9.5v86q0 5 4.5 9.5t9.5 4.5h226zM329 -266q-7 -10 -13.5 -12.5t-13.5 -2.5h-25q-6 0 -6.5 5.5t2.5 11.5l56 103h-55q-5 0 -9.5 4.5t-4.5 9.5v92q0 5 4.5 9.5t9.5 4.5h122q5 0 9.5 -4.5t4.5 -9.5v-95z" />
    <glyph glyph-name="Hcircumflex" unicode="&#x124;" 
d="M618 410v276q0 5 4.5 9.5t9.5 4.5h102q5 0 9.5 -4.5t4.5 -9.5v-672q0 -5 -4.5 -9.5t-9.5 -4.5h-102q-5 0 -9.5 4.5t-4.5 9.5v276h-418v-276q0 -5 -4.5 -9.5t-9.5 -4.5h-102q-5 0 -9.5 4.5t-4.5 9.5v672q0 5 4.5 9.5t9.5 4.5h102q5 0 9.5 -4.5t4.5 -9.5v-276h418zM354 770
q-8 -10 -14.5 -12.5t-13.5 -2.5h-71q-8 0 -10.5 5.5t2.5 13.5l106 161q6 10 13 12.5t15 2.5h64q8 0 15 -2.5t13 -12.5l106 -161q5 -8 2.5 -13.5t-10.5 -5.5h-71q-7 0 -13.5 2.5t-14.5 12.5l-59 71z" />
    <glyph glyph-name="hcircumflex" unicode="&#x125;" horiz-adv-x="762" 
d="M567 340v210q0 5 4.5 9.5t9.5 4.5h97q5 0 9.5 -4.5t4.5 -9.5v-536q0 -5 -4.5 -9.5t-9.5 -4.5h-97q-5 0 -9.5 4.5t-4.5 9.5v210h-372v-210q0 -5 -4.5 -9.5t-9.5 -4.5h-97q-5 0 -9.5 4.5t-4.5 9.5v536q0 5 4.5 9.5t9.5 4.5h97q5 0 9.5 -4.5t4.5 -9.5v-210h372zM328 619
q-8 -10 -14.5 -12.5t-13.5 -2.5h-69q-8 0 -10.5 5.5t2.5 13.5l101 153q6 10 13 12.5t15 2.5h60q8 0 15 -2.5t13 -12.5l101 -153q5 -8 2.5 -13.5t-10.5 -5.5h-69q-7 0 -13.5 2.5t-14.5 12.5l-54 66z" />
    <glyph glyph-name="Hbar" unicode="&#x126;" 
d="M808 532q0 -5 -4.5 -9.5t-9.5 -4.5h-46v-504q0 -5 -4.5 -9.5t-9.5 -4.5h-102q-5 0 -9.5 4.5t-4.5 9.5v276h-418v-276q0 -5 -4.5 -9.5t-9.5 -4.5h-102q-5 0 -9.5 4.5t-4.5 9.5v504h-45q-5 0 -9.5 4.5t-4.5 9.5v70q0 5 4.5 9.5t9.5 4.5h45v70q0 5 4.5 9.5t9.5 4.5h102
q5 0 9.5 -4.5t4.5 -9.5v-70h418v70q0 5 4.5 9.5t9.5 4.5h102q5 0 9.5 -4.5t4.5 -9.5v-70h46q5 0 9.5 -4.5t4.5 -9.5v-70zM618 410v108h-418v-108h418z" />
    <glyph glyph-name="hbar" unicode="&#x127;" horiz-adv-x="762" 
d="M752 429q0 -5 -4.5 -9.5t-9.5 -4.5h-46v-401q0 -5 -4.5 -9.5t-9.5 -4.5h-97q-5 0 -9.5 4.5t-4.5 9.5v210h-372v-210q0 -5 -4.5 -9.5t-9.5 -4.5h-97q-5 0 -9.5 4.5t-4.5 9.5v401h-46q-5 0 -9.5 4.5t-4.5 9.5v60q0 5 4.5 9.5t9.5 4.5h46v47q0 5 4.5 9.5t9.5 4.5h97
q5 0 9.5 -4.5t4.5 -9.5v-47h372v47q0 5 4.5 9.5t9.5 4.5h97q5 0 9.5 -4.5t4.5 -9.5v-47h46q5 0 9.5 -4.5t4.5 -9.5v-60zM567 340v75h-372v-75h372z" />
    <glyph glyph-name="Imacron" unicode="&#x12a;" horiz-adv-x="273" 
d="M203 14q0 -5 -4.5 -9.5t-9.5 -4.5h-105q-5 0 -9.5 4.5t-4.5 9.5v672q0 5 4.5 9.5t9.5 4.5h105q5 0 9.5 -4.5t4.5 -9.5v-672zM348 780q0 -5 -4.5 -9.5t-9.5 -4.5h-392q-5 0 -9.5 4.5t-4.5 9.5v82q0 5 4.5 9.5t9.5 4.5h392q5 0 9.5 -4.5t4.5 -9.5v-82z" />
    <glyph glyph-name="imacron" unicode="&#x12b;" horiz-adv-x="267" 
d="M197 14q0 -5 -4.5 -9.5t-9.5 -4.5h-99q-5 0 -9.5 4.5t-4.5 9.5v536q0 5 4.5 9.5t9.5 4.5h99q5 0 9.5 -4.5t4.5 -9.5v-536zM342 629q0 -5 -4.5 -9.5t-9.5 -4.5h-386q-5 0 -9.5 4.5t-4.5 9.5v70q0 5 4.5 9.5t9.5 4.5h386q5 0 9.5 -4.5t4.5 -9.5v-70z" />
    <glyph glyph-name="Iogonek" unicode="&#x12e;" horiz-adv-x="273" 
d="M203 14q0 -5 -1 -8.5t-6 -8.5l-107 -103q-17 -16 -17 -31q0 -11 7 -19t18 -8h80q5 0 9.5 -4.5t4.5 -9.5v-49q0 -5 -4.5 -9.5t-9.5 -4.5h-102q-29 0 -46.5 9.5t-26.5 18.5q-12 12 -19.5 29.5t-7.5 37.5q0 32 17.5 53.5t36.5 38.5l63 54h-8q-5 0 -9.5 4.5t-4.5 9.5v672
q0 5 4.5 9.5t9.5 4.5h105q5 0 9.5 -4.5t4.5 -9.5v-672z" />
    <glyph glyph-name="iogonek" unicode="&#x12f;" horiz-adv-x="267" 
d="M197 14q0 -10 -7 -17l-115 -107q-4 -4 -7.5 -9t-3.5 -13q0 -10 6.5 -17.5t18.5 -7.5h83q5 0 9.5 -4.5t4.5 -9.5v-42q0 -5 -4.5 -9.5t-9.5 -4.5h-103q-19 0 -36 7t-28 18q-12 11 -19.5 27.5t-7.5 36.5q0 17 8 35.5t34 41.5l70 61h-6q-5 0 -9.5 4.5t-4.5 9.5v536
q0 5 4.5 9.5t9.5 4.5h99q5 0 9.5 -4.5t4.5 -9.5v-536z" />
    <glyph glyph-name="Idotaccent" unicode="&#x130;" horiz-adv-x="273" 
d="M203 14q0 -5 -4.5 -9.5t-9.5 -4.5h-105q-5 0 -9.5 4.5t-4.5 9.5v672q0 5 4.5 9.5t9.5 4.5h105q5 0 9.5 -4.5t4.5 -9.5v-672zM221 769q0 -5 -4.5 -9.5t-9.5 -4.5h-142q-5 0 -9.5 4.5t-4.5 9.5v116q0 5 4.5 9.5t9.5 4.5h142q5 0 9.5 -4.5t4.5 -9.5v-116z" />
    <glyph glyph-name="dotlessi" unicode="&#x131;" horiz-adv-x="267" 
d="M197 14q0 -5 -4.5 -9.5t-9.5 -4.5h-99q-5 0 -9.5 4.5t-4.5 9.5v536q0 5 4.5 9.5t9.5 4.5h99q5 0 9.5 -4.5t4.5 -9.5v-536z" />
    <glyph glyph-name="Jcircumflex" unicode="&#x134;" horiz-adv-x="683" 
d="M134 256q5 0 9.5 -4.5t4.5 -9.5v-36q0 -14 4 -32.5t21 -32.5t40 -17.5t37 -3.5h131q14 0 37 3.5t40 17.5t21 32.5t4 32.5v480q0 5 4.5 9.5t9.5 4.5h102q5 0 9.5 -4.5t4.5 -9.5v-486q0 -15 -1.5 -34t-7.5 -39t-17.5 -39.5t-30.5 -36.5q-26 -23 -68 -37t-95 -14h-153
q-53 0 -95 14t-68 37q-19 17 -30.5 36.5t-17.5 39.5t-7.5 39t-1.5 34v42q0 5 4.5 9.5t9.5 4.5h100zM480 770q-8 -10 -14.5 -12.5t-13.5 -2.5h-71q-8 0 -10.5 5.5t2.5 13.5l106 161q6 10 13 12.5t15 2.5h64q8 0 15 -2.5t13 -12.5l106 -161q5 -8 2.5 -13.5t-10.5 -5.5h-71
q-7 0 -13.5 2.5t-14.5 12.5l-59 71z" />
    <glyph glyph-name="jcircumflex" unicode="&#x135;" horiz-adv-x="624" 
d="M340 116q13 0 32.5 2.5t34.5 15.5q5 5 13.5 18.5t8.5 38.5v359q0 5 4.5 9.5t9.5 4.5h97q5 0 9.5 -4.5t4.5 -9.5v-376q0 -49 -15 -80.5t-35 -49.5q-23 -20 -59 -32t-83 -12h-150q-47 0 -83 12t-59 32q-20 18 -35 49.5t-15 80.5v31q0 5 4.5 9.5t9.5 4.5h95q5 0 9.5 -4.5
t4.5 -9.5v-14q0 -14 3.5 -29.5t17.5 -27.5q15 -13 36 -15.5t32 -2.5h108zM428 619q-8 -10 -14.5 -12.5t-13.5 -2.5h-69q-8 0 -10.5 5.5t2.5 13.5l101 153q6 10 13 12.5t15 2.5h60q8 0 15 -2.5t13 -12.5l101 -153q5 -8 2.5 -13.5t-10.5 -5.5h-69q-7 0 -13.5 2.5t-14.5 12.5
l-54 66z" />
    <glyph glyph-name="Kcommaaccent" unicode="&#x136;" horiz-adv-x="769" 
d="M338 410l236 276q5 6 12.5 10t21.5 4h125q7 0 10 -5.5t-2 -11.5l-296 -333l296 -333q5 -6 2 -11.5t-10 -5.5h-125q-14 0 -21.5 4t-12.5 10l-236 276h-138v-276q0 -5 -4.5 -9.5t-9.5 -4.5h-102q-5 0 -9.5 4.5t-4.5 9.5v672q0 5 4.5 9.5t9.5 4.5h102q5 0 9.5 -4.5t4.5 -9.5
v-276h138zM353 -282q-7 -10 -13.5 -12.5t-13.5 -2.5h-28q-6 0 -6.5 5.5t2.5 11.5l60 111h-60q-5 0 -9.5 4.5t-4.5 9.5v100q0 5 4.5 9.5t9.5 4.5h132q5 0 9.5 -4.5t4.5 -9.5v-103z" />
    <glyph glyph-name="kcommaaccent" unicode="&#x137;" horiz-adv-x="703" 
d="M676 14q4 -5 1 -9.5t-9 -4.5h-122q-15 0 -22 5.5t-13 12.5l-180 206h-136v-210q0 -5 -4.5 -9.5t-9.5 -4.5h-97q-5 0 -9.5 4.5t-4.5 9.5v536q0 5 4.5 9.5t9.5 4.5h97q5 0 9.5 -4.5t4.5 -9.5v-210h136l180 206q6 7 13 12.5t22 5.5h122q6 0 9 -4.5t-1 -9.5l-242 -268z
M329 -266q-7 -10 -13.5 -12.5t-13.5 -2.5h-25q-6 0 -6.5 5.5t2.5 11.5l56 103h-55q-5 0 -9.5 4.5t-4.5 9.5v92q0 5 4.5 9.5t9.5 4.5h122q5 0 9.5 -4.5t4.5 -9.5v-95z" />
    <glyph glyph-name="Lacute" unicode="&#x139;" horiz-adv-x="654" 
d="M620 120q5 0 9.5 -4.5t4.5 -9.5v-92q0 -5 -4.5 -9.5t-9.5 -4.5h-536q-5 0 -9.5 4.5t-4.5 9.5v672q0 5 4.5 9.5t9.5 4.5h104q5 0 9.5 -4.5t4.5 -9.5v-566h418zM195 767q-7 -9 -16 -10.5t-11 -1.5h-66q-8 0 -11 6.5t1 14.5l70 155q3 7 9.5 13t20.5 6h125q8 0 10.5 -6
t-2.5 -12z" />
    <glyph glyph-name="lacute" unicode="&#x13a;" horiz-adv-x="592" 
d="M558 116q5 0 9.5 -4.5t4.5 -9.5v-88q0 -5 -4.5 -9.5t-9.5 -4.5h-474q-5 0 -9.5 4.5t-4.5 9.5v536q0 5 4.5 9.5t9.5 4.5h99q5 0 9.5 -4.5t4.5 -9.5v-434h361zM188 616q-9 -12 -27 -12h-59q-8 0 -11 6.5t1 14.5l66 147q3 7 9.5 13t20.5 6h116q8 0 10.5 -6t-2.5 -12z" />
    <glyph glyph-name="Lcommaaccent" unicode="&#x13b;" horiz-adv-x="654" 
d="M620 120q5 0 9.5 -4.5t4.5 -9.5v-92q0 -5 -4.5 -9.5t-9.5 -4.5h-536q-5 0 -9.5 4.5t-4.5 9.5v672q0 5 4.5 9.5t9.5 4.5h104q5 0 9.5 -4.5t4.5 -9.5v-566h418zM329 -282q-7 -10 -13.5 -12.5t-13.5 -2.5h-28q-6 0 -6.5 5.5t2.5 11.5l60 111h-60q-5 0 -9.5 4.5t-4.5 9.5v100
q0 5 4.5 9.5t9.5 4.5h132q5 0 9.5 -4.5t4.5 -9.5v-103z" />
    <glyph glyph-name="lcommaaccent" unicode="&#x13c;" horiz-adv-x="592" 
d="M558 116q5 0 9.5 -4.5t4.5 -9.5v-88q0 -5 -4.5 -9.5t-9.5 -4.5h-474q-5 0 -9.5 4.5t-4.5 9.5v536q0 5 4.5 9.5t9.5 4.5h99q5 0 9.5 -4.5t4.5 -9.5v-434h361zM290 -266q-7 -10 -13.5 -12.5t-13.5 -2.5h-25q-6 0 -6.5 5.5t2.5 11.5l56 103h-55q-5 0 -9.5 4.5t-4.5 9.5v92
q0 5 4.5 9.5t9.5 4.5h122q5 0 9.5 -4.5t4.5 -9.5v-95z" />
    <glyph glyph-name="Lcaron" unicode="&#x13d;" horiz-adv-x="654" 
d="M620 120q5 0 9.5 -4.5t4.5 -9.5v-92q0 -5 -4.5 -9.5t-9.5 -4.5h-536q-5 0 -9.5 4.5t-4.5 9.5v672q0 5 4.5 9.5t9.5 4.5h104q5 0 9.5 -4.5t4.5 -9.5v-566h418zM433 459q-7 -10 -13.5 -12.5t-13.5 -2.5h-28q-6 0 -6.5 5.5t2.5 11.5l60 111h-60q-5 0 -9.5 4.5t-4.5 9.5v100
q0 5 4.5 9.5t9.5 4.5h132q5 0 9.5 -4.5t4.5 -9.5v-103z" />
    <glyph glyph-name="lcaron" unicode="&#x13e;" horiz-adv-x="592" 
d="M558 116q5 0 9.5 -4.5t4.5 -9.5v-88q0 -5 -4.5 -9.5t-9.5 -4.5h-474q-5 0 -9.5 4.5t-4.5 9.5v536q0 5 4.5 9.5t9.5 4.5h99q5 0 9.5 -4.5t4.5 -9.5v-434h361zM399 339q-7 -10 -13.5 -12.5t-13.5 -2.5h-25q-6 0 -6.5 5.5t2.5 11.5l56 103h-55q-5 0 -9.5 4.5t-4.5 9.5v92
q0 5 4.5 9.5t9.5 4.5h122q5 0 9.5 -4.5t4.5 -9.5v-95z" />
    <glyph glyph-name="Ldot" unicode="&#x13f;" horiz-adv-x="654" 
d="M620 120q5 0 9.5 -4.5t4.5 -9.5v-92q0 -5 -4.5 -9.5t-9.5 -4.5h-536q-5 0 -9.5 4.5t-4.5 9.5v672q0 5 4.5 9.5t9.5 4.5h104q5 0 9.5 -4.5t4.5 -9.5v-566h418zM536 314q0 -5 -4.5 -9.5t-9.5 -4.5h-142q-5 0 -9.5 4.5t-4.5 9.5v116q0 5 4.5 9.5t9.5 4.5h142q5 0 9.5 -4.5
t4.5 -9.5v-116z" />
    <glyph glyph-name="ldot" unicode="&#x140;" horiz-adv-x="592" 
d="M558 116q5 0 9.5 -4.5t4.5 -9.5v-88q0 -5 -4.5 -9.5t-9.5 -4.5h-474q-5 0 -9.5 4.5t-4.5 9.5v536q0 5 4.5 9.5t9.5 4.5h99q5 0 9.5 -4.5t4.5 -9.5v-434h361zM496 268q0 -5 -4.5 -9.5t-9.5 -4.5h-124q-5 0 -9.5 4.5t-4.5 9.5v104q0 5 4.5 9.5t9.5 4.5h124q5 0 9.5 -4.5
t4.5 -9.5v-104z" />
    <glyph glyph-name="Lslash" unicode="&#x141;" horiz-adv-x="736" 
d="M702 120q5 0 9.5 -4.5t4.5 -9.5v-92q0 -5 -4.5 -9.5t-9.5 -4.5h-536q-5 0 -9.5 4.5t-4.5 9.5v206l-124 -56q-8 -4 -13 -1t-5 11v60q0 8 3 14.5t17 12.5l122 54v371q0 5 4.5 9.5t9.5 4.5h104q5 0 9.5 -4.5t4.5 -9.5v-314l236 105q8 4 13 1t5 -11v-60q0 -8 -3 -14.5
t-17 -12.5l-234 -103v-157h418z" />
    <glyph glyph-name="lslash" unicode="&#x142;" horiz-adv-x="664" 
d="M630 116q5 0 9.5 -4.5t4.5 -9.5v-88q0 -5 -4.5 -9.5t-9.5 -4.5h-474q-5 0 -9.5 4.5t-4.5 9.5v169l-114 -51q-8 -4 -13 -1t-5 11v52q0 8 3 14.5t17 12.5l112 49v280q0 5 4.5 9.5t9.5 4.5h99q5 0 9.5 -4.5t4.5 -9.5v-225l217 97q8 4 13 1t5 -11v-52q0 -8 -3 -14.5
t-17 -12.5l-215 -95v-122h361z" />
    <glyph glyph-name="Nacute" unicode="&#x143;" horiz-adv-x="810" 
d="M610 686q0 5 4.5 9.5t9.5 4.5h102q5 0 9.5 -4.5t4.5 -9.5v-672q0 -5 -4.5 -9.5t-9.5 -4.5h-85q-9 0 -15 3t-12 10l-414 486v-485q0 -5 -4.5 -9.5t-9.5 -4.5h-102q-5 0 -9.5 4.5t-4.5 9.5v672q0 5 4.5 9.5t9.5 4.5h85q9 0 15 -3t12 -10l414 -486v485zM435 767
q-7 -9 -16 -10.5t-11 -1.5h-66q-8 0 -11 6.5t1 14.5l70 155q3 7 9.5 13t20.5 6h125q8 0 10.5 -6t-2.5 -12z" />
    <glyph glyph-name="nacute" unicode="&#x144;" horiz-adv-x="755" 
d="M560 550q0 5 4.5 9.5t9.5 4.5h97q5 0 9.5 -4.5t4.5 -9.5v-536q0 -5 -4.5 -9.5t-9.5 -4.5h-84q-16 0 -29 13l-363 367v-366q0 -5 -4.5 -9.5t-9.5 -4.5h-97q-5 0 -9.5 4.5t-4.5 9.5v536q0 5 4.5 9.5t9.5 4.5h84q16 0 29 -13l363 -367v366zM398 616q-9 -12 -27 -12h-59
q-8 0 -11 6.5t1 14.5l66 147q3 7 9.5 13t20.5 6h116q8 0 10.5 -6t-2.5 -12z" />
    <glyph glyph-name="Ncommaaccent" unicode="&#x145;" horiz-adv-x="810" 
d="M610 686q0 5 4.5 9.5t9.5 4.5h102q5 0 9.5 -4.5t4.5 -9.5v-672q0 -5 -4.5 -9.5t-9.5 -4.5h-85q-9 0 -15 3t-12 10l-414 486v-485q0 -5 -4.5 -9.5t-9.5 -4.5h-102q-5 0 -9.5 4.5t-4.5 9.5v672q0 5 4.5 9.5t9.5 4.5h85q9 0 15 -3t12 -10l414 -486v485zM393 -282
q-7 -10 -13.5 -12.5t-13.5 -2.5h-28q-6 0 -6.5 5.5t2.5 11.5l60 111h-60q-5 0 -9.5 4.5t-4.5 9.5v100q0 5 4.5 9.5t9.5 4.5h132q5 0 9.5 -4.5t4.5 -9.5v-103z" />
    <glyph glyph-name="ncommaaccent" unicode="&#x146;" horiz-adv-x="755" 
d="M560 550q0 5 4.5 9.5t9.5 4.5h97q5 0 9.5 -4.5t4.5 -9.5v-536q0 -5 -4.5 -9.5t-9.5 -4.5h-84q-16 0 -29 13l-363 367v-366q0 -5 -4.5 -9.5t-9.5 -4.5h-97q-5 0 -9.5 4.5t-4.5 9.5v536q0 5 4.5 9.5t9.5 4.5h84q16 0 29 -13l363 -367v366zM377 -266q-7 -10 -13.5 -12.5
t-13.5 -2.5h-25q-6 0 -6.5 5.5t2.5 11.5l56 103h-55q-5 0 -9.5 4.5t-4.5 9.5v92q0 5 4.5 9.5t9.5 4.5h122q5 0 9.5 -4.5t4.5 -9.5v-95z" />
    <glyph glyph-name="Ncaron" unicode="&#x147;" horiz-adv-x="810" 
d="M610 686q0 5 4.5 9.5t9.5 4.5h102q5 0 9.5 -4.5t4.5 -9.5v-672q0 -5 -4.5 -9.5t-9.5 -4.5h-85q-9 0 -15 3t-12 10l-414 486v-485q0 -5 -4.5 -9.5t-9.5 -4.5h-102q-5 0 -9.5 4.5t-4.5 9.5v672q0 5 4.5 9.5t9.5 4.5h85q9 0 15 -3t12 -10l414 -486v485zM458 935
q8 10 14.5 12.5t13.5 2.5h71q8 0 10.5 -5.5t-2.5 -13.5l-106 -161q-6 -10 -13 -12.5t-15 -2.5h-64q-8 0 -15 2.5t-13 12.5l-106 161q-5 8 -2.5 13.5t10.5 5.5h71q7 0 13.5 -2.5t14.5 -12.5l59 -71z" />
    <glyph glyph-name="ncaron" unicode="&#x148;" horiz-adv-x="755" 
d="M560 550q0 5 4.5 9.5t9.5 4.5h97q5 0 9.5 -4.5t4.5 -9.5v-536q0 -5 -4.5 -9.5t-9.5 -4.5h-84q-16 0 -29 13l-363 367v-366q0 -5 -4.5 -9.5t-9.5 -4.5h-97q-5 0 -9.5 4.5t-4.5 9.5v536q0 5 4.5 9.5t9.5 4.5h84q16 0 29 -13l363 -367v366zM432 776q8 10 14.5 12.5t13.5 2.5
h69q8 0 10.5 -5.5t-2.5 -13.5l-101 -153q-6 -10 -13 -12.5t-15 -2.5h-60q-8 0 -15 2.5t-13 12.5l-101 153q-5 8 -2.5 13.5t10.5 5.5h69q7 0 13.5 -2.5t14.5 -12.5l54 -66z" />
    <glyph glyph-name="Omacron" unicode="&#x14c;" horiz-adv-x="830" 
d="M790 350q0 -71 -27 -139t-81 -121q-19 -19 -45 -37.5t-59.5 -33.5t-74 -24.5t-88.5 -9.5t-88.5 9.5t-74 24.5t-59.5 33.5t-45 37.5q-54 53 -81 121t-27 139t27 139t81 121q19 19 45 37.5t59.5 33.5t74 24.5t88.5 9.5t88.5 -9.5t74 -24.5t59.5 -33.5t45 -37.5
q54 -53 81 -121t27 -139zM655 350q0 54 -18 97.5t-47 75.5q-27 29 -71 51.5t-104 22.5t-104 -22.5t-71 -51.5q-29 -32 -47 -75.5t-18 -97.5t18 -97.5t47 -75.5q27 -29 71 -51.5t104 -22.5t104 22.5t71 51.5q29 32 47 75.5t18 97.5zM620 780q0 -5 -4.5 -9.5t-9.5 -4.5h-392
q-5 0 -9.5 4.5t-4.5 9.5v82q0 5 4.5 9.5t9.5 4.5h392q5 0 9.5 -4.5t4.5 -9.5v-82z" />
    <glyph glyph-name="omacron" unicode="&#x14d;" horiz-adv-x="698" 
d="M349 577q78 0 132 -26.5t89 -59.5q45 -43 66.5 -97t21.5 -112t-21.5 -112t-66.5 -97q-35 -33 -89 -59.5t-132 -26.5t-132 26.5t-89 59.5q-45 43 -66.5 97t-21.5 112t21.5 112t66.5 97q35 33 89 59.5t132 26.5zM349 463q-46 0 -77.5 -16t-48.5 -33q-19 -18 -36 -50.5
t-17 -81.5t17 -81.5t36 -50.5q17 -17 48.5 -33t77.5 -16t77.5 16t48.5 33q19 18 36 50.5t17 81.5t-17 81.5t-36 50.5q-17 17 -48.5 33t-77.5 16zM548 629q0 -5 -4.5 -9.5t-9.5 -4.5h-386q-5 0 -9.5 4.5t-4.5 9.5v70q0 5 4.5 9.5t9.5 4.5h386q5 0 9.5 -4.5t4.5 -9.5v-70z" />
    <glyph glyph-name="Obreve" unicode="&#x14e;" horiz-adv-x="830" 
d="M790 350q0 -71 -27 -139t-81 -121q-19 -19 -45 -37.5t-59.5 -33.5t-74 -24.5t-88.5 -9.5t-88.5 9.5t-74 24.5t-59.5 33.5t-45 37.5q-54 53 -81 121t-27 139t27 139t81 121q19 19 45 37.5t59.5 33.5t74 24.5t88.5 9.5t88.5 -9.5t74 -24.5t59.5 -33.5t45 -37.5
q54 -53 81 -121t27 -139zM655 350q0 54 -18 97.5t-47 75.5q-27 29 -71 51.5t-104 22.5t-104 -22.5t-71 -51.5q-29 -32 -47 -75.5t-18 -97.5t18 -97.5t47 -75.5q27 -29 71 -51.5t104 -22.5t104 22.5t71 51.5q29 32 47 75.5t18 97.5zM589 877q5 0 9.5 -4.5t4.5 -9.5v-30
q0 -32 -23 -55t-55 -23h-232q-32 0 -55 23t-23 55v30q0 5 4.5 9.5t9.5 4.5h90q5 0 9.5 -4.5t4.5 -9.5v-3q0 -11 11.5 -17t29.5 -6h70q18 0 29.5 6t11.5 17v3q0 5 4.5 9.5t9.5 4.5h90z" />
    <glyph glyph-name="obreve" unicode="&#x14f;" horiz-adv-x="698" 
d="M349 577q78 0 132 -26.5t89 -59.5q45 -43 66.5 -97t21.5 -112t-21.5 -112t-66.5 -97q-35 -33 -89 -59.5t-132 -26.5t-132 26.5t-89 59.5q-45 43 -66.5 97t-21.5 112t21.5 112t66.5 97q35 33 89 59.5t132 26.5zM349 463q-46 0 -77.5 -16t-48.5 -33q-19 -18 -36 -50.5
t-17 -81.5t17 -81.5t36 -50.5q17 -17 48.5 -33t77.5 -16t77.5 16t48.5 33q19 18 36 50.5t17 81.5t-17 81.5t-36 50.5q-17 17 -48.5 33t-77.5 16zM496 709q2 0 7 -2t5 -10v-26q0 -28 -19.5 -47.5t-47.5 -19.5h-198q-28 0 -47.5 19.5t-19.5 47.5v26q0 8 5 10t7 2h77
q5 0 8.5 -3.5t3.5 -8.5v-3q0 -10 11 -15t24 -5h60q13 0 24 5t11 15v3q0 5 3.5 8.5t8.5 3.5h77z" />
    <glyph glyph-name="Ohungarumlaut" unicode="&#x150;" horiz-adv-x="830" 
d="M790 350q0 -71 -27 -139t-81 -121q-19 -19 -45 -37.5t-59.5 -33.5t-74 -24.5t-88.5 -9.5t-88.5 9.5t-74 24.5t-59.5 33.5t-45 37.5q-54 53 -81 121t-27 139t27 139t81 121q19 19 45 37.5t59.5 33.5t74 24.5t88.5 9.5t88.5 -9.5t74 -24.5t59.5 -33.5t45 -37.5
q54 -53 81 -121t27 -139zM655 350q0 54 -18 97.5t-47 75.5q-27 29 -71 51.5t-104 22.5t-104 -22.5t-71 -51.5q-29 -32 -47 -75.5t-18 -97.5t18 -97.5t47 -75.5q27 -29 71 -51.5t104 -22.5t104 22.5t71 51.5q29 32 47 75.5t18 97.5zM345 767q-7 -9 -16 -10.5t-11 -1.5h-66
q-8 0 -11 6.5t1 14.5l70 155q3 7 9.5 13t20.5 6h125q8 0 10.5 -6t-2.5 -12zM582 767q-7 -9 -16 -10.5t-11 -1.5h-66q-8 0 -11 6.5t1 14.5l70 155q3 7 9.5 13t20.5 6h125q8 0 10.5 -6t-2.5 -12z" />
    <glyph glyph-name="ohungarumlaut" unicode="&#x151;" horiz-adv-x="698" 
d="M349 577q78 0 132 -26.5t89 -59.5q45 -43 66.5 -97t21.5 -112t-21.5 -112t-66.5 -97q-35 -33 -89 -59.5t-132 -26.5t-132 26.5t-89 59.5q-45 43 -66.5 97t-21.5 112t21.5 112t66.5 97q35 33 89 59.5t132 26.5zM349 463q-46 0 -77.5 -16t-48.5 -33q-19 -18 -36 -50.5
t-17 -81.5t17 -81.5t36 -50.5q17 -17 48.5 -33t77.5 -16t77.5 16t48.5 33q19 18 36 50.5t17 81.5t-17 81.5t-36 50.5q-17 17 -48.5 33t-77.5 16zM276 616q-9 -12 -27 -12h-59q-8 0 -11 6.5t1 14.5l66 147q3 7 9.5 13t20.5 6h116q8 0 10.5 -6t-2.5 -12zM502 616
q-9 -12 -27 -12h-59q-8 0 -11 6.5t1 14.5l66 147q3 7 9.5 13t20.5 6h116q8 0 10.5 -6t-2.5 -12z" />
    <glyph glyph-name="OE" unicode="&#x152;" horiz-adv-x="1353" 
d="M1174 410q5 0 9.5 -4.5t4.5 -9.5v-92q0 -5 -4.5 -9.5t-9.5 -4.5h-389v-170h514q5 0 9.5 -4.5t4.5 -9.5v-92q0 -5 -4.5 -9.5t-9.5 -4.5h-630q-5 0 -9.5 4.5t-4.5 9.5v57q-51 -43 -109 -64.5t-131 -21.5q-48 0 -88.5 9t-73.5 24t-59.5 34t-45.5 38q-54 53 -81 121t-27 139
t27 139t81 121q19 19 45.5 38t59.5 34t73.5 24t88.5 9q73 0 131 -21.5t109 -64.5v57q0 5 4.5 9.5t9.5 4.5h628q5 0 9.5 -4.5t4.5 -9.5v-92q0 -5 -4.5 -9.5t-9.5 -4.5h-512v-170h389zM655 350q0 54 -18 97.5t-47 75.5q-27 29 -71 51.5t-104 22.5t-104 -22.5t-71 -51.5
q-29 -32 -47 -75.5t-18 -97.5t18 -97.5t47 -75.5q27 -29 71 -51.5t104 -22.5t104 22.5t71 51.5q29 32 47 75.5t18 97.5z" />
    <glyph glyph-name="oe" unicode="&#x153;" horiz-adv-x="1155" 
d="M1004 340q5 0 9.5 -4.5t4.5 -9.5v-88q0 -5 -4.5 -9.5t-9.5 -4.5h-351v-108h448q5 0 9.5 -4.5t4.5 -9.5v-88q0 -5 -4.5 -9.5t-9.5 -4.5h-559q-5 0 -9.5 4.5t-4.5 9.5v39q-11 -9 -28 -20.5t-39.5 -21.5t-51.5 -17t-65 -7q-62 0 -118 22.5t-98 63.5q-45 43 -66.5 97
t-21.5 112t21.5 112t66.5 97q42 41 98 63.5t118 22.5q36 0 65 -7t51.5 -17t39.5 -21.5t28 -20.5v39q0 5 4.5 9.5t9.5 4.5h559q5 0 9.5 -4.5t4.5 -9.5v-88q0 -5 -4.5 -9.5t-9.5 -4.5h-448v-108h351zM349 463q-46 0 -77.5 -16t-48.5 -33q-19 -18 -36 -50.5t-17 -81.5t17 -81.5
t36 -50.5q17 -17 48.5 -33t77.5 -16t77.5 16t48.5 33q19 18 36 50.5t17 81.5t-17 81.5t-36 50.5q-17 17 -48.5 33t-77.5 16z" />
    <glyph glyph-name="Racute" unicode="&#x154;" horiz-adv-x="802" 
d="M519 390q44 0 71 26.5t27 68.5t-27 68.5t-71 26.5h-319v-190h319zM200 14q0 -5 -4.5 -9.5t-9.5 -4.5h-102q-5 0 -9.5 4.5t-4.5 9.5v672q0 5 4.5 9.5t9.5 4.5h458q35 0 75.5 -15t69.5 -42q32 -29 49 -70t16 -88q-1 -57 -29 -102.5t-80 -68.5q24 -12 41 -29.5t27 -36.5
q12 -23 17 -51.5t5 -54.5v-128q0 -5 -4.5 -9.5t-9.5 -4.5h-102q-5 0 -9.5 4.5t-4.5 9.5v105q0 28 -5.5 55.5t-28.5 51.5q-14 15 -30.5 23.5t-34 13t-34 6t-29.5 1.5h-241v-256zM419 767q-7 -9 -16 -10.5t-11 -1.5h-66q-8 0 -11 6.5t1 14.5l70 155q3 7 9.5 13t20.5 6h125
q8 0 10.5 -6t-2.5 -12z" />
    <glyph glyph-name="racute" unicode="&#x155;" horiz-adv-x="746" 
d="M195 14q0 -5 -4.5 -9.5t-9.5 -4.5h-97q-5 0 -9.5 4.5t-4.5 9.5v536q0 5 4.5 9.5t9.5 4.5h442q38 0 71 -13.5t56 -36.5q21 -21 32 -50t11 -61q0 -55 -30 -96q-12 -17 -29.5 -30.5t-35.5 -23.5q20 -11 35.5 -26.5t23.5 -31.5q10 -19 15 -44.5t5 -47.5v-91q0 -4 -3.5 -8
t-9.5 -4h-99q-6 0 -9.5 4t-3.5 8v71q0 23 -4.5 47t-24.5 46q-12 13 -27.5 20.5t-31 11.5t-29.5 5t-24 1h-219v-200zM505 330q30 0 45.5 18t15.5 41t-15.5 41t-45.5 18h-310v-118h310zM385 616q-9 -12 -27 -12h-59q-8 0 -11 6.5t1 14.5l66 147q3 7 9.5 13t20.5 6h116
q8 0 10.5 -6t-2.5 -12z" />
    <glyph glyph-name="Rcommaaccent" unicode="&#x156;" horiz-adv-x="802" 
d="M519 390q44 0 71 26.5t27 68.5t-27 68.5t-71 26.5h-319v-190h319zM200 14q0 -5 -4.5 -9.5t-9.5 -4.5h-102q-5 0 -9.5 4.5t-4.5 9.5v672q0 5 4.5 9.5t9.5 4.5h458q35 0 75.5 -15t69.5 -42q32 -29 49 -70t16 -88q-1 -57 -29 -102.5t-80 -68.5q24 -12 41 -29.5t27 -36.5
q12 -23 17 -51.5t5 -54.5v-128q0 -5 -4.5 -9.5t-9.5 -4.5h-102q-5 0 -9.5 4.5t-4.5 9.5v105q0 28 -5.5 55.5t-28.5 51.5q-14 15 -30.5 23.5t-34 13t-34 6t-29.5 1.5h-241v-256zM383 -282q-7 -10 -13.5 -12.5t-13.5 -2.5h-28q-6 0 -6.5 5.5t2.5 11.5l60 111h-60
q-5 0 -9.5 4.5t-4.5 9.5v100q0 5 4.5 9.5t9.5 4.5h132q5 0 9.5 -4.5t4.5 -9.5v-103z" />
    <glyph glyph-name="rcommaaccent" unicode="&#x157;" horiz-adv-x="746" 
d="M195 14q0 -5 -4.5 -9.5t-9.5 -4.5h-97q-5 0 -9.5 4.5t-4.5 9.5v536q0 5 4.5 9.5t9.5 4.5h442q38 0 71 -13.5t56 -36.5q21 -21 32 -50t11 -61q0 -55 -30 -96q-12 -17 -29.5 -30.5t-35.5 -23.5q20 -11 35.5 -26.5t23.5 -31.5q10 -19 15 -44.5t5 -47.5v-91q0 -4 -3.5 -8
t-9.5 -4h-99q-6 0 -9.5 4t-3.5 8v71q0 23 -4.5 47t-24.5 46q-12 13 -27.5 20.5t-31 11.5t-29.5 5t-24 1h-219v-200zM505 330q30 0 45.5 18t15.5 41t-15.5 41t-45.5 18h-310v-118h310zM369 -266q-7 -10 -13.5 -12.5t-13.5 -2.5h-25q-6 0 -6.5 5.5t2.5 11.5l56 103h-55
q-5 0 -9.5 4.5t-4.5 9.5v92q0 5 4.5 9.5t9.5 4.5h122q5 0 9.5 -4.5t4.5 -9.5v-95z" />
    <glyph glyph-name="Rcaron" unicode="&#x158;" horiz-adv-x="802" 
d="M519 390q44 0 71 26.5t27 68.5t-27 68.5t-71 26.5h-319v-190h319zM200 14q0 -5 -4.5 -9.5t-9.5 -4.5h-102q-5 0 -9.5 4.5t-4.5 9.5v672q0 5 4.5 9.5t9.5 4.5h458q35 0 75.5 -15t69.5 -42q32 -29 49 -70t16 -88q-1 -57 -29 -102.5t-80 -68.5q24 -12 41 -29.5t27 -36.5
q12 -23 17 -51.5t5 -54.5v-128q0 -5 -4.5 -9.5t-9.5 -4.5h-102q-5 0 -9.5 4.5t-4.5 9.5v105q0 28 -5.5 55.5t-28.5 51.5q-14 15 -30.5 23.5t-34 13t-34 6t-29.5 1.5h-241v-256zM448 935q8 10 14.5 12.5t13.5 2.5h71q8 0 10.5 -5.5t-2.5 -13.5l-106 -161q-6 -10 -13 -12.5
t-15 -2.5h-64q-8 0 -15 2.5t-13 12.5l-106 161q-5 8 -2.5 13.5t10.5 5.5h71q7 0 13.5 -2.5t14.5 -12.5l59 -71z" />
    <glyph glyph-name="rcaron" unicode="&#x159;" horiz-adv-x="746" 
d="M195 14q0 -5 -4.5 -9.5t-9.5 -4.5h-97q-5 0 -9.5 4.5t-4.5 9.5v536q0 5 4.5 9.5t9.5 4.5h442q38 0 71 -13.5t56 -36.5q21 -21 32 -50t11 -61q0 -55 -30 -96q-12 -17 -29.5 -30.5t-35.5 -23.5q20 -11 35.5 -26.5t23.5 -31.5q10 -19 15 -44.5t5 -47.5v-91q0 -4 -3.5 -8
t-9.5 -4h-99q-6 0 -9.5 4t-3.5 8v71q0 23 -4.5 47t-24.5 46q-12 13 -27.5 20.5t-31 11.5t-29.5 5t-24 1h-219v-200zM505 330q30 0 45.5 18t15.5 41t-15.5 41t-45.5 18h-310v-118h310zM411 776q8 10 14.5 12.5t13.5 2.5h69q8 0 10.5 -5.5t-2.5 -13.5l-101 -153
q-6 -10 -13 -12.5t-15 -2.5h-60q-8 0 -15 2.5t-13 12.5l-101 153q-5 8 -2.5 13.5t10.5 5.5h69q7 0 13.5 -2.5t14.5 -12.5l54 -66z" />
    <glyph glyph-name="Sacute" unicode="&#x15a;" horiz-adv-x="814" 
d="M562 414q16 0 34.5 -4t37.5 -11t36.5 -17.5t31.5 -22.5q10 -9 21 -22.5t20 -32t15 -42.5t6 -55t-6 -55t-15 -42.5t-20 -32t-21 -22.5q-14 -12 -31.5 -22.5t-36.5 -17.5t-37.5 -11t-34.5 -4h-292q-17 0 -37.5 1.5t-42.5 7t-43.5 15.5t-40.5 27q-7 6 -16.5 17t-18.5 28
t-15 39t-6 51v13q0 5 4.5 9.5t9.5 4.5h102q5 0 9.5 -4.5t4.5 -9.5v-8q0 -23 10 -35t15 -16q17 -14 39 -17t38 -3h261q39 0 62.5 24.5t23.5 59.5t-23.5 59.5t-62.5 24.5h-291q-43 0 -79 16t-60 39q-25 23 -44 60t-19 91t19 91t44 60q24 23 60 39t79 16h278q16 0 37 -1.5
t43 -7t43.5 -15.5t40.5 -27q24 -22 40 -56.5t16 -76.5v-15q0 -5 -4.5 -9.5t-9.5 -4.5h-102q-5 0 -9.5 4.5t-4.5 9.5v8q0 23 -10 35t-15 16q-15 11 -35.5 15.5t-38.5 4.5h-250q-37 0 -61.5 -24t-24.5 -59t24.5 -59t61.5 -24h291zM435 767q-7 -9 -16 -10.5t-11 -1.5h-66
q-8 0 -11 6.5t1 14.5l70 155q3 7 9.5 13t20.5 6h125q8 0 10.5 -6t-2.5 -12z" />
    <glyph glyph-name="sacute" unicode="&#x15b;" horiz-adv-x="736" 
d="M517 340q32 0 64 -12.5t55 -34.5q15 -14 32.5 -44t17.5 -79t-17.5 -79t-32.5 -44q-23 -22 -55 -34.5t-64 -12.5h-280q-28 0 -65 7.5t-69 34.5q-17 14 -35 42t-18 71v12q0 5 4.5 9.5t9.5 4.5h97q5 0 9.5 -4.5t4.5 -9.5v-1q0 -13 4.5 -21.5t9.5 -13.5q11 -10 23 -12.5
t22 -2.5h262q26 0 43 15.5t17 38.5t-17 38.5t-43 15.5h-277q-32 0 -64 12.5t-55 34.5q-15 14 -32.5 44t-17.5 79t17.5 79t32.5 44q23 22 55 34.5t64 12.5h269q28 0 65 -7.5t69 -34.5q17 -14 35 -42t18 -71v-12q0 -5 -4.5 -9.5t-9.5 -4.5h-97q-5 0 -9.5 4.5t-4.5 9.5v1
q0 13 -4.5 21.5t-9.5 13.5q-11 10 -23 12.5t-22 2.5h-251q-26 0 -43 -15.5t-17 -38.5t17 -38.5t43 -15.5h277zM398 616q-9 -12 -27 -12h-59q-8 0 -11 6.5t1 14.5l66 147q3 7 9.5 13t20.5 6h116q8 0 10.5 -6t-2.5 -12z" />
    <glyph glyph-name="Scircumflex" unicode="&#x15c;" horiz-adv-x="814" 
d="M562 414q16 0 34.5 -4t37.5 -11t36.5 -17.5t31.5 -22.5q10 -9 21 -22.5t20 -32t15 -42.5t6 -55t-6 -55t-15 -42.5t-20 -32t-21 -22.5q-14 -12 -31.5 -22.5t-36.5 -17.5t-37.5 -11t-34.5 -4h-292q-17 0 -37.5 1.5t-42.5 7t-43.5 15.5t-40.5 27q-7 6 -16.5 17t-18.5 28
t-15 39t-6 51v13q0 5 4.5 9.5t9.5 4.5h102q5 0 9.5 -4.5t4.5 -9.5v-8q0 -23 10 -35t15 -16q17 -14 39 -17t38 -3h261q39 0 62.5 24.5t23.5 59.5t-23.5 59.5t-62.5 24.5h-291q-43 0 -79 16t-60 39q-25 23 -44 60t-19 91t19 91t44 60q24 23 60 39t79 16h278q16 0 37 -1.5
t43 -7t43.5 -15.5t40.5 -27q24 -22 40 -56.5t16 -76.5v-15q0 -5 -4.5 -9.5t-9.5 -4.5h-102q-5 0 -9.5 4.5t-4.5 9.5v8q0 23 -10 35t-15 16q-15 11 -35.5 15.5t-38.5 4.5h-250q-37 0 -61.5 -24t-24.5 -59t24.5 -59t61.5 -24h291zM336 770q-8 -10 -14.5 -12.5t-13.5 -2.5h-71
q-8 0 -10.5 5.5t2.5 13.5l106 161q6 10 13 12.5t15 2.5h64q8 0 15 -2.5t13 -12.5l106 -161q5 -8 2.5 -13.5t-10.5 -5.5h-71q-7 0 -13.5 2.5t-14.5 12.5l-59 71z" />
    <glyph glyph-name="scircumflex" unicode="&#x15d;" horiz-adv-x="736" 
d="M517 340q32 0 64 -12.5t55 -34.5q15 -14 32.5 -44t17.5 -79t-17.5 -79t-32.5 -44q-23 -22 -55 -34.5t-64 -12.5h-280q-28 0 -65 7.5t-69 34.5q-17 14 -35 42t-18 71v12q0 5 4.5 9.5t9.5 4.5h97q5 0 9.5 -4.5t4.5 -9.5v-1q0 -13 4.5 -21.5t9.5 -13.5q11 -10 23 -12.5
t22 -2.5h262q26 0 43 15.5t17 38.5t-17 38.5t-43 15.5h-277q-32 0 -64 12.5t-55 34.5q-15 14 -32.5 44t-17.5 79t17.5 79t32.5 44q23 22 55 34.5t64 12.5h269q28 0 65 -7.5t69 -34.5q17 -14 35 -42t18 -71v-12q0 -5 -4.5 -9.5t-9.5 -4.5h-97q-5 0 -9.5 4.5t-4.5 9.5v1
q0 13 -4.5 21.5t-9.5 13.5q-11 10 -23 12.5t-22 2.5h-251q-26 0 -43 -15.5t-17 -38.5t17 -38.5t43 -15.5h277zM318 619q-8 -10 -14.5 -12.5t-13.5 -2.5h-69q-8 0 -10.5 5.5t2.5 13.5l101 153q6 10 13 12.5t15 2.5h60q8 0 15 -2.5t13 -12.5l101 -153q5 -8 2.5 -13.5
t-10.5 -5.5h-69q-7 0 -13.5 2.5t-14.5 12.5l-54 66z" />
    <glyph glyph-name="Scedilla" unicode="&#x15e;" horiz-adv-x="814" 
d="M443 -43h44q26 0 44 -9.5t28 -19.5q11 -11 20 -28t9 -42t-9 -42t-20 -28q-10 -10 -28 -19.5t-44 -9.5h-139q-5 0 -9.5 4.5t-4.5 9.5v49q0 5 4.5 9.5t9.5 4.5h126q23 0 23 22t-23 22h-105q-5 0 -9.5 4.5t-4.5 9.5v106h-85q-17 0 -37.5 1.5t-42.5 7t-43.5 15.5t-40.5 27
q-7 6 -16.5 17t-18.5 28t-15 39t-6 51v13q0 5 4.5 9.5t9.5 4.5h102q5 0 9.5 -4.5t4.5 -9.5v-8q0 -23 10 -35t15 -16q17 -14 39 -17t38 -3h261q39 0 62.5 24.5t23.5 59.5t-23.5 59.5t-62.5 24.5h-291q-43 0 -79 16t-60 39q-25 23 -44 60t-19 91t19 91t44 60q24 23 60 39
t79 16h278q16 0 37 -1.5t43 -7t43.5 -15.5t40.5 -27q24 -22 40 -56.5t16 -76.5v-15q0 -5 -4.5 -9.5t-9.5 -4.5h-102q-5 0 -9.5 4.5t-4.5 9.5v8q0 23 -10 35t-15 16q-15 11 -35.5 15.5t-38.5 4.5h-250q-37 0 -61.5 -24t-24.5 -59t24.5 -59t61.5 -24h291q16 0 34.5 -4
t37.5 -11t36.5 -17.5t31.5 -22.5q10 -9 21 -22.5t20 -32t15 -42.5t6 -55t-6 -55t-15 -42.5t-20 -32t-21 -22.5q-14 -12 -31.5 -22.5t-36.5 -17.5t-37.5 -11t-34.5 -4h-119v-43z" />
    <glyph glyph-name="scedilla" unicode="&#x15f;" horiz-adv-x="736" 
d="M392 -43h51q19 0 36 -7.5t28 -18.5q7 -7 17 -23t10 -43t-10 -43t-17 -23q-11 -11 -28 -18.5t-36 -7.5h-135q-5 0 -9.5 4.5t-4.5 9.5v42q0 5 4.5 9.5t9.5 4.5h122q23 0 23 22t-23 22h-102q-5 0 -9.5 4.5t-4.5 9.5v99h-77q-28 0 -65 7.5t-69 34.5q-17 14 -35 42t-18 71v12
q0 5 4.5 9.5t9.5 4.5h97q5 0 9.5 -4.5t4.5 -9.5v-1q0 -13 4.5 -21.5t9.5 -13.5q11 -10 23 -12.5t22 -2.5h262q26 0 43 15.5t17 38.5t-17 38.5t-43 15.5h-277q-32 0 -64 12.5t-55 34.5q-15 14 -32.5 44t-17.5 79t17.5 79t32.5 44q23 22 55 34.5t64 12.5h269q28 0 65 -7.5
t69 -34.5q17 -14 35 -42t18 -71v-12q0 -5 -4.5 -9.5t-9.5 -4.5h-97q-5 0 -9.5 4.5t-4.5 9.5v1q0 13 -4.5 21.5t-9.5 13.5q-11 10 -23 12.5t-22 2.5h-251q-26 0 -43 -15.5t-17 -38.5t17 -38.5t43 -15.5h277q32 0 64 -12.5t55 -34.5q15 -14 32.5 -44t17.5 -79t-17.5 -79
t-32.5 -44q-23 -22 -55 -34.5t-64 -12.5h-125v-43z" />
    <glyph glyph-name="Scaron" unicode="&#x160;" horiz-adv-x="814" 
d="M562 414q16 0 34.5 -4t37.5 -11t36.5 -17.5t31.5 -22.5q10 -9 21 -22.5t20 -32t15 -42.5t6 -55t-6 -55t-15 -42.5t-20 -32t-21 -22.5q-14 -12 -31.5 -22.5t-36.5 -17.5t-37.5 -11t-34.5 -4h-292q-17 0 -37.5 1.5t-42.5 7t-43.5 15.5t-40.5 27q-7 6 -16.5 17t-18.5 28
t-15 39t-6 51v13q0 5 4.5 9.5t9.5 4.5h102q5 0 9.5 -4.5t4.5 -9.5v-8q0 -23 10 -35t15 -16q17 -14 39 -17t38 -3h261q39 0 62.5 24.5t23.5 59.5t-23.5 59.5t-62.5 24.5h-291q-43 0 -79 16t-60 39q-25 23 -44 60t-19 91t19 91t44 60q24 23 60 39t79 16h278q16 0 37 -1.5
t43 -7t43.5 -15.5t40.5 -27q24 -22 40 -56.5t16 -76.5v-15q0 -5 -4.5 -9.5t-9.5 -4.5h-102q-5 0 -9.5 4.5t-4.5 9.5v8q0 23 -10 35t-15 16q-15 11 -35.5 15.5t-38.5 4.5h-250q-37 0 -61.5 -24t-24.5 -59t24.5 -59t61.5 -24h291zM454 935q8 10 14.5 12.5t13.5 2.5h71
q8 0 10.5 -5.5t-2.5 -13.5l-106 -161q-6 -10 -13 -12.5t-15 -2.5h-64q-8 0 -15 2.5t-13 12.5l-106 161q-5 8 -2.5 13.5t10.5 5.5h71q7 0 13.5 -2.5t14.5 -12.5l59 -71z" />
    <glyph glyph-name="scaron" unicode="&#x161;" horiz-adv-x="736" 
d="M517 340q32 0 64 -12.5t55 -34.5q15 -14 32.5 -44t17.5 -79t-17.5 -79t-32.5 -44q-23 -22 -55 -34.5t-64 -12.5h-280q-28 0 -65 7.5t-69 34.5q-17 14 -35 42t-18 71v12q0 5 4.5 9.5t9.5 4.5h97q5 0 9.5 -4.5t4.5 -9.5v-1q0 -13 4.5 -21.5t9.5 -13.5q11 -10 23 -12.5
t22 -2.5h262q26 0 43 15.5t17 38.5t-17 38.5t-43 15.5h-277q-32 0 -64 12.5t-55 34.5q-15 14 -32.5 44t-17.5 79t17.5 79t32.5 44q23 22 55 34.5t64 12.5h269q28 0 65 -7.5t69 -34.5q17 -14 35 -42t18 -71v-12q0 -5 -4.5 -9.5t-9.5 -4.5h-97q-5 0 -9.5 4.5t-4.5 9.5v1
q0 13 -4.5 21.5t-9.5 13.5q-11 10 -23 12.5t-22 2.5h-251q-26 0 -43 -15.5t-17 -38.5t17 -38.5t43 -15.5h277zM426 776q8 10 14.5 12.5t13.5 2.5h69q8 0 10.5 -5.5t-2.5 -13.5l-101 -153q-6 -10 -13 -12.5t-15 -2.5h-60q-8 0 -15 2.5t-13 12.5l-101 153q-5 8 -2.5 13.5
t10.5 5.5h69q7 0 13.5 -2.5t14.5 -12.5l54 -66z" />
    <glyph glyph-name="Tcommaaccent" unicode="&#x162;" horiz-adv-x="746" 
d="M439 14q0 -5 -4.5 -9.5t-9.5 -4.5h-8v-43h44q26 0 44 -9.5t28 -19.5q11 -11 20 -28t9 -42t-9 -42t-20 -28q-10 -10 -28 -19.5t-44 -9.5h-139q-5 0 -9.5 4.5t-4.5 9.5v49q0 5 4.5 9.5t9.5 4.5h126q23 0 23 22t-23 22h-105q-5 0 -9.5 4.5t-4.5 9.5v106h-8q-5 0 -9.5 4.5
t-4.5 9.5v566h-273q-5 0 -9.5 4.5t-4.5 9.5v92q0 5 4.5 9.5t9.5 4.5h678q5 0 9.5 -4.5t4.5 -9.5v-92q0 -5 -4.5 -9.5t-9.5 -4.5h-273v-566z" />
    <glyph glyph-name="tcommaaccent" unicode="&#x163;" horiz-adv-x="665" 
d="M422 -43q19 0 36 -7.5t28 -18.5q7 -7 17 -23t10 -43t-10 -43t-17 -23q-11 -11 -28 -18.5t-36 -7.5h-135q-5 0 -9.5 4.5t-4.5 9.5v42q0 5 4.5 9.5t9.5 4.5h122q23 0 23 22t-23 22h-102q-5 0 -9.5 4.5t-4.5 9.5v99h-10q-5 0 -9.5 4.5t-4.5 9.5v434h-235q-5 0 -9.5 4.5
t-4.5 9.5v88q0 5 4.5 9.5t9.5 4.5h597q5 0 9.5 -4.5t4.5 -9.5v-88q0 -5 -4.5 -9.5t-9.5 -4.5h-235v-434q0 -5 -4.5 -9.5t-9.5 -4.5h-11v-43h51z" />
    <glyph glyph-name="Tcaron" unicode="&#x164;" horiz-adv-x="746" 
d="M439 14q0 -5 -4.5 -9.5t-9.5 -4.5h-104q-5 0 -9.5 4.5t-4.5 9.5v566h-273q-5 0 -9.5 4.5t-4.5 9.5v92q0 5 4.5 9.5t9.5 4.5h678q5 0 9.5 -4.5t4.5 -9.5v-92q0 -5 -4.5 -9.5t-9.5 -4.5h-273v-566zM432 935q8 10 14.5 12.5t13.5 2.5h71q8 0 10.5 -5.5t-2.5 -13.5l-106 -161
q-6 -10 -13 -12.5t-15 -2.5h-64q-8 0 -15 2.5t-13 12.5l-106 161q-5 8 -2.5 13.5t10.5 5.5h71q7 0 13.5 -2.5t14.5 -12.5l59 -71z" />
    <glyph glyph-name="tcaron" unicode="&#x165;" horiz-adv-x="665" 
d="M396 14q0 -5 -4.5 -9.5t-9.5 -4.5h-99q-5 0 -9.5 4.5t-4.5 9.5v434h-235q-5 0 -9.5 4.5t-4.5 9.5v88q0 5 4.5 9.5t9.5 4.5h597q5 0 9.5 -4.5t4.5 -9.5v-88q0 -5 -4.5 -9.5t-9.5 -4.5h-235v-434zM386 776q8 10 14.5 12.5t13.5 2.5h69q8 0 10.5 -5.5t-2.5 -13.5l-101 -153
q-6 -10 -13 -12.5t-15 -2.5h-60q-8 0 -15 2.5t-13 12.5l-101 153q-5 8 -2.5 13.5t10.5 5.5h69q7 0 13.5 -2.5t14.5 -12.5l54 -66z" />
    <glyph glyph-name="Umacron" unicode="&#x16a;" 
d="M748 204q0 -15 -1.5 -33.5t-7.5 -38t-17 -39.5t-30 -38q-23 -23 -63.5 -39t-100.5 -16h-238q-60 0 -100.5 16t-63.5 39q-19 18 -30 38t-17 39.5t-7.5 38t-1.5 33.5v482q0 5 4.5 9.5t9.5 4.5h102q5 0 9.5 -4.5t4.5 -9.5v-480q0 -28 8.5 -43t16.5 -22q5 -5 22 -13t52 -8
h220q35 0 52 8t22 13q8 7 16.5 22t8.5 43v480q0 5 4.5 9.5t9.5 4.5h102q5 0 9.5 -4.5t4.5 -9.5v-482zM620 780q0 -5 -4.5 -9.5t-9.5 -4.5h-392q-5 0 -9.5 4.5t-4.5 9.5v82q0 5 4.5 9.5t9.5 4.5h392q5 0 9.5 -4.5t4.5 -9.5v-82z" />
    <glyph glyph-name="umacron" unicode="&#x16b;" horiz-adv-x="762" 
d="M195 191q0 -12 3.5 -27.5t18.5 -29.5q15 -13 33.5 -15.5t30.5 -2.5h200q12 0 30.5 2.5t33.5 15.5q15 14 18.5 29.5t3.5 27.5v359q0 5 4.5 9.5t9.5 4.5h97q5 0 9.5 -4.5t4.5 -9.5v-372q0 -13 -1.5 -29t-6 -33.5t-14.5 -35t-26 -32.5t-50 -31.5t-93 -16.5h-240
q-59 0 -93 16.5t-50 31.5q-17 15 -26.5 32.5t-14 35t-6 33.5t-1.5 29v372q0 5 4.5 9.5t9.5 4.5h97q5 0 9.5 -4.5t4.5 -9.5v-359zM586 629q0 -5 -4.5 -9.5t-9.5 -4.5h-386q-5 0 -9.5 4.5t-4.5 9.5v70q0 5 4.5 9.5t9.5 4.5h386q5 0 9.5 -4.5t4.5 -9.5v-70z" />
    <glyph glyph-name="Ubreve" unicode="&#x16c;" 
d="M748 204q0 -15 -1.5 -33.5t-7.5 -38t-17 -39.5t-30 -38q-23 -23 -63.5 -39t-100.5 -16h-238q-60 0 -100.5 16t-63.5 39q-19 18 -30 38t-17 39.5t-7.5 38t-1.5 33.5v482q0 5 4.5 9.5t9.5 4.5h102q5 0 9.5 -4.5t4.5 -9.5v-480q0 -28 8.5 -43t16.5 -22q5 -5 22 -13t52 -8
h220q35 0 52 8t22 13q8 7 16.5 22t8.5 43v480q0 5 4.5 9.5t9.5 4.5h102q5 0 9.5 -4.5t4.5 -9.5v-482zM587 877q5 0 9.5 -4.5t4.5 -9.5v-30q0 -32 -23 -55t-55 -23h-232q-32 0 -55 23t-23 55v30q0 5 4.5 9.5t9.5 4.5h90q5 0 9.5 -4.5t4.5 -9.5v-3q0 -11 11.5 -17t29.5 -6h70
q18 0 29.5 6t11.5 17v3q0 5 4.5 9.5t9.5 4.5h90z" />
    <glyph glyph-name="ubreve" unicode="&#x16d;" horiz-adv-x="762" 
d="M195 191q0 -12 3.5 -27.5t18.5 -29.5q15 -13 33.5 -15.5t30.5 -2.5h200q12 0 30.5 2.5t33.5 15.5q15 14 18.5 29.5t3.5 27.5v359q0 5 4.5 9.5t9.5 4.5h97q5 0 9.5 -4.5t4.5 -9.5v-372q0 -13 -1.5 -29t-6 -33.5t-14.5 -35t-26 -32.5t-50 -31.5t-93 -16.5h-240
q-59 0 -93 16.5t-50 31.5q-17 15 -26.5 32.5t-14 35t-6 33.5t-1.5 29v372q0 5 4.5 9.5t9.5 4.5h97q5 0 9.5 -4.5t4.5 -9.5v-359zM535 709q2 0 7 -2t5 -10v-26q0 -28 -19.5 -47.5t-47.5 -19.5h-198q-28 0 -47.5 19.5t-19.5 47.5v26q0 8 5 10t7 2h77q5 0 8.5 -3.5t3.5 -8.5v-3
q0 -10 11 -15t24 -5h60q13 0 24 5t11 15v3q0 5 3.5 8.5t8.5 3.5h77z" />
    <glyph glyph-name="Uring" unicode="&#x16e;" 
d="M748 204q0 -15 -1.5 -33.5t-7.5 -38t-17 -39.5t-30 -38q-23 -23 -63.5 -39t-100.5 -16h-238q-60 0 -100.5 16t-63.5 39q-19 18 -30 38t-17 39.5t-7.5 38t-1.5 33.5v482q0 5 4.5 9.5t9.5 4.5h102q5 0 9.5 -4.5t4.5 -9.5v-480q0 -28 8.5 -43t16.5 -22q5 -5 22 -13t52 -8
h220q35 0 52 8t22 13q8 7 16.5 22t8.5 43v480q0 5 4.5 9.5t9.5 4.5h102q5 0 9.5 -4.5t4.5 -9.5v-482zM518 845q0 -21 -8 -39.5t-21.5 -32t-31.5 -21t-39 -7.5t-39.5 7.5t-32 21t-21 32t-7.5 39.5t7.5 39t21 31.5t32 21.5t39.5 8t39 -8t31.5 -21.5t21.5 -31.5t8 -39zM462 845
q0 18 -13 31t-31 13t-31 -13t-13 -31t13 -31t31 -13t31 13t13 31z" />
    <glyph glyph-name="uring" unicode="&#x16f;" horiz-adv-x="762" 
d="M195 191q0 -12 3.5 -27.5t18.5 -29.5q15 -13 33.5 -15.5t30.5 -2.5h200q12 0 30.5 2.5t33.5 15.5q15 14 18.5 29.5t3.5 27.5v359q0 5 4.5 9.5t9.5 4.5h97q5 0 9.5 -4.5t4.5 -9.5v-372q0 -13 -1.5 -29t-6 -33.5t-14.5 -35t-26 -32.5t-50 -31.5t-93 -16.5h-240
q-59 0 -93 16.5t-50 31.5q-17 15 -26.5 32.5t-14 35t-6 33.5t-1.5 29v372q0 5 4.5 9.5t9.5 4.5h97q5 0 9.5 -4.5t4.5 -9.5v-359zM482 692q0 -40 -28 -68t-68 -28t-68 28t-28 68t28 68t68 28t68 -28t28 -68zM430 692q0 18 -13 31t-31 13t-31 -13t-13 -31t13 -31t31 -13t31 13
t13 31z" />
    <glyph glyph-name="Uhungarumlaut" unicode="&#x170;" 
d="M748 204q0 -15 -1.5 -33.5t-7.5 -38t-17 -39.5t-30 -38q-23 -23 -63.5 -39t-100.5 -16h-238q-60 0 -100.5 16t-63.5 39q-19 18 -30 38t-17 39.5t-7.5 38t-1.5 33.5v482q0 5 4.5 9.5t9.5 4.5h102q5 0 9.5 -4.5t4.5 -9.5v-480q0 -28 8.5 -43t16.5 -22q5 -5 22 -13t52 -8
h220q35 0 52 8t22 13q8 7 16.5 22t8.5 43v480q0 5 4.5 9.5t9.5 4.5h102q5 0 9.5 -4.5t4.5 -9.5v-482zM335 767q-7 -9 -16 -10.5t-11 -1.5h-66q-8 0 -11 6.5t1 14.5l70 155q3 7 9.5 13t20.5 6h125q8 0 10.5 -6t-2.5 -12zM572 767q-7 -9 -16 -10.5t-11 -1.5h-66q-8 0 -11 6.5
t1 14.5l70 155q3 7 9.5 13t20.5 6h125q8 0 10.5 -6t-2.5 -12z" />
    <glyph glyph-name="uhungarumlaut" unicode="&#x171;" horiz-adv-x="762" 
d="M195 191q0 -12 3.5 -27.5t18.5 -29.5q15 -13 33.5 -15.5t30.5 -2.5h200q12 0 30.5 2.5t33.5 15.5q15 14 18.5 29.5t3.5 27.5v359q0 5 4.5 9.5t9.5 4.5h97q5 0 9.5 -4.5t4.5 -9.5v-372q0 -13 -1.5 -29t-6 -33.5t-14.5 -35t-26 -32.5t-50 -31.5t-93 -16.5h-240
q-59 0 -93 16.5t-50 31.5q-17 15 -26.5 32.5t-14 35t-6 33.5t-1.5 29v372q0 5 4.5 9.5t9.5 4.5h97q5 0 9.5 -4.5t4.5 -9.5v-359zM298 616q-9 -12 -27 -12h-59q-8 0 -11 6.5t1 14.5l66 147q3 7 9.5 13t20.5 6h116q8 0 10.5 -6t-2.5 -12zM524 616q-9 -12 -27 -12h-59
q-8 0 -11 6.5t1 14.5l66 147q3 7 9.5 13t20.5 6h116q8 0 10.5 -6t-2.5 -12z" />
    <glyph glyph-name="Uogonek" unicode="&#x172;" 
d="M748 204q0 -48 -14 -81.5t-33 -55t-37 -32.5t-27 -15l-127 -126q-8 -8 -12.5 -14.5t-4.5 -16.5q0 -11 7 -19t18 -8h80q5 0 9.5 -4.5t4.5 -9.5v-49q0 -5 -4.5 -9.5t-9.5 -4.5h-102q-29 0 -46.5 9.5t-26.5 18.5q-12 12 -19.5 29.5t-7.5 37.5q0 32 17.5 53.5t36.5 38.5
l63 54h-223q-60 0 -100.5 16t-63.5 39q-19 18 -30 38t-17 39.5t-7.5 38t-1.5 33.5v482q0 5 4.5 9.5t9.5 4.5h102q5 0 9.5 -4.5t4.5 -9.5v-480q0 -28 8.5 -43t16.5 -22q5 -5 22 -13t52 -8h220q35 0 52 8t22 13q8 7 16.5 22t8.5 43v480q0 5 4.5 9.5t9.5 4.5h102q5 0 9.5 -4.5
t4.5 -9.5v-482z" />
    <glyph glyph-name="uogonek" unicode="&#x173;" horiz-adv-x="762" 
d="M195 191q0 -12 3.5 -27.5t18.5 -29.5q15 -13 33.5 -15.5t30.5 -2.5h200q12 0 30.5 2.5t33.5 15.5q15 14 18.5 29.5t3.5 27.5v359q0 5 4.5 9.5t9.5 4.5h97q5 0 9.5 -4.5t4.5 -9.5v-372q0 -10 -2 -31t-11.5 -45t-29.5 -48t-57 -39l-128 -125q-5 -5 -8 -9.5t-3 -12.5
q0 -10 6.5 -17.5t18.5 -7.5h83q5 0 9.5 -4.5t4.5 -9.5v-42q0 -5 -4.5 -9.5t-9.5 -4.5h-103q-19 0 -36 7t-28 18q-12 11 -19.5 27.5t-7.5 36.5q0 17 8 35.5t34 41.5l69 61h-217q-59 0 -93 16.5t-50 31.5q-17 15 -26.5 32.5t-14 35t-6 33.5t-1.5 29v372q0 5 4.5 9.5t9.5 4.5
h97q5 0 9.5 -4.5t4.5 -9.5v-359z" />
    <glyph glyph-name="Ydieresis" unicode="&#x178;" horiz-adv-x="788" 
d="M460 14q0 -5 -4.5 -9.5t-9.5 -4.5h-104q-5 0 -9.5 4.5t-4.5 9.5v246l-306 424q-5 6 -1 11t9 5h109q8 0 17 -3t17 -15l221 -318l221 318q8 12 17 15t17 3h109q5 0 9 -5t-1 -11l-306 -424v-246zM337 871q5 0 9.5 -4.5t4.5 -9.5v-85q0 -5 -4.5 -9.5t-9.5 -4.5h-210
q-5 0 -9.5 4.5t-4.5 9.5v85q0 5 4.5 9.5t9.5 4.5h210zM667 871q5 0 9.5 -4.5t4.5 -9.5v-85q0 -5 -4.5 -9.5t-9.5 -4.5h-210q-5 0 -9.5 4.5t-4.5 9.5v85q0 5 4.5 9.5t9.5 4.5h210z" />
    <glyph glyph-name="Zacute" unicode="&#x179;" horiz-adv-x="773" 
d="M62 580q-5 0 -9.5 4.5t-4.5 9.5v92q0 5 4.5 9.5t9.5 4.5h647q5 0 9.5 -4.5t4.5 -9.5v-78q0 -5 -2 -14.5t-11 -17.5l-477 -456h486q5 0 9.5 -4.5t4.5 -9.5v-92q0 -5 -4.5 -9.5t-9.5 -4.5h-665q-5 0 -9.5 4.5t-4.5 9.5v78q0 5 2 14.5t11 17.5l477 456h-468zM415 767
q-7 -9 -16 -10.5t-11 -1.5h-66q-8 0 -11 6.5t1 14.5l70 155q3 7 9.5 13t20.5 6h125q8 0 10.5 -6t-2.5 -12z" />
    <glyph glyph-name="zacute" unicode="&#x17a;" horiz-adv-x="703" 
d="M649 116q5 0 9.5 -4.5t4.5 -9.5v-88q0 -5 -4.5 -9.5t-9.5 -4.5h-595q-5 0 -9.5 4.5t-4.5 9.5v73q0 12 4 20t9 12l399 329h-391q-5 0 -9.5 4.5t-4.5 9.5v88q0 5 4.5 9.5t9.5 4.5h580q5 0 9.5 -4.5t4.5 -9.5v-73q0 -12 -4 -20t-9 -12l-399 -329h406zM368 616
q-9 -12 -27 -12h-59q-8 0 -11 6.5t1 14.5l66 147q3 7 9.5 13t20.5 6h116q8 0 10.5 -6t-2.5 -12z" />
    <glyph glyph-name="Zdotaccent" unicode="&#x17b;" horiz-adv-x="773" 
d="M62 580q-5 0 -9.5 4.5t-4.5 9.5v92q0 5 4.5 9.5t9.5 4.5h647q5 0 9.5 -4.5t4.5 -9.5v-78q0 -5 -2 -14.5t-11 -17.5l-477 -456h486q5 0 9.5 -4.5t4.5 -9.5v-92q0 -5 -4.5 -9.5t-9.5 -4.5h-665q-5 0 -9.5 4.5t-4.5 9.5v78q0 5 2 14.5t11 17.5l477 456h-468zM470 769
q0 -5 -4.5 -9.5t-9.5 -4.5h-142q-5 0 -9.5 4.5t-4.5 9.5v116q0 5 4.5 9.5t9.5 4.5h142q5 0 9.5 -4.5t4.5 -9.5v-116z" />
    <glyph glyph-name="zdotaccent" unicode="&#x17c;" horiz-adv-x="703" 
d="M649 116q5 0 9.5 -4.5t4.5 -9.5v-88q0 -5 -4.5 -9.5t-9.5 -4.5h-595q-5 0 -9.5 4.5t-4.5 9.5v73q0 12 4 20t9 12l399 329h-391q-5 0 -9.5 4.5t-4.5 9.5v88q0 5 4.5 9.5t9.5 4.5h580q5 0 9.5 -4.5t4.5 -9.5v-73q0 -12 -4 -20t-9 -12l-399 -329h406zM422 618
q0 -5 -4.5 -9.5t-9.5 -4.5h-124q-5 0 -9.5 4.5t-4.5 9.5v104q0 5 4.5 9.5t9.5 4.5h124q5 0 9.5 -4.5t4.5 -9.5v-104z" />
    <glyph glyph-name="Zcaron" unicode="&#x17d;" horiz-adv-x="773" 
d="M62 580q-5 0 -9.5 4.5t-4.5 9.5v92q0 5 4.5 9.5t9.5 4.5h647q5 0 9.5 -4.5t4.5 -9.5v-78q0 -5 -2 -14.5t-11 -17.5l-477 -456h486q5 0 9.5 -4.5t4.5 -9.5v-92q0 -5 -4.5 -9.5t-9.5 -4.5h-665q-5 0 -9.5 4.5t-4.5 9.5v78q0 5 2 14.5t11 17.5l477 456h-468zM442 935
q8 10 14.5 12.5t13.5 2.5h71q8 0 10.5 -5.5t-2.5 -13.5l-106 -161q-6 -10 -13 -12.5t-15 -2.5h-64q-8 0 -15 2.5t-13 12.5l-106 161q-5 8 -2.5 13.5t10.5 5.5h71q7 0 13.5 -2.5t14.5 -12.5l59 -71z" />
    <glyph glyph-name="zcaron" unicode="&#x17e;" horiz-adv-x="703" 
d="M649 116q5 0 9.5 -4.5t4.5 -9.5v-88q0 -5 -4.5 -9.5t-9.5 -4.5h-595q-5 0 -9.5 4.5t-4.5 9.5v73q0 12 4 20t9 12l399 329h-391q-5 0 -9.5 4.5t-4.5 9.5v88q0 5 4.5 9.5t9.5 4.5h580q5 0 9.5 -4.5t4.5 -9.5v-73q0 -12 -4 -20t-9 -12l-399 -329h406zM396 776
q8 10 14.5 12.5t13.5 2.5h69q8 0 10.5 -5.5t-2.5 -13.5l-101 -153q-6 -10 -13 -12.5t-15 -2.5h-60q-8 0 -15 2.5t-13 12.5l-101 153q-5 8 -2.5 13.5t10.5 5.5h69q7 0 13.5 -2.5t14.5 -12.5l54 -66z" />
    <glyph glyph-name="uni018F" unicode="&#x18f;" horiz-adv-x="796" 
d="M545 531q-28 26 -71 46.5t-100 19.5q-42 -1 -81 -15t-74 -47q-17 -16 -32.5 -36t-26.5 -40q-3 -5 -7.5 -9t-16.5 3l-76 42q-12 7 -9.5 16.5t4.5 14.5q15 28 41.5 59.5t52.5 52.5q15 12 37 26t50.5 25t63.5 18.5t78 7.5q79 0 142 -24.5t109 -62.5q56 -47 91.5 -118
t35.5 -160t-35.5 -160t-90.5 -118q-45 -38 -107 -62.5t-131 -24.5q-57 0 -112.5 14.5t-99.5 43.5q-69 45 -106 111q-20 35 -31 69t-16 60q-6 31 -7 59q0 5 4.5 9.5t9.5 4.5h587q-2 58 -23.5 102t-52.5 73zM180 240q10 -31 29.5 -56t42.5 -42q28 -20 62 -29.5t72 -9.5
q32 0 65.5 8.5t59.5 25.5q63 41 86 103h-417z" />
    <glyph glyph-name="florin" unicode="&#x192;" horiz-adv-x="583" 
d="M317 -72q-2 -14 -6 -33.5t-12 -41.5t-21.5 -44.5t-33.5 -41.5q-26 -24 -66 -40.5t-91 -16.5h-49q-11 0 -12 8t0 14l11 79q2 14 11 16.5t11 2.5h28q14 0 33 4t36 21t23 39t9 41l50 347h-91q-5 0 -9.5 4.5t-4.5 9.5v88q0 5 4.5 9.5t9.5 4.5h107l12 86q2 13 6 32.5t12 41
t21.5 44t33.5 41.5q26 24 66 40.5t91 16.5h49q11 0 12 -8t0 -14l-11 -79q-2 -14 -11 -16.5t-11 -2.5h-28q-14 0 -33 -4t-36 -21t-23.5 -39t-8.5 -39l-11 -79h145q5 0 9.5 -4.5t4.5 -9.5v-88q0 -5 -4.5 -9.5t-9.5 -4.5h-163z" />
    <glyph glyph-name="uni01CF" unicode="&#x1cf;" horiz-adv-x="273" 
d="M203 14q0 -5 -4.5 -9.5t-9.5 -4.5h-105q-5 0 -9.5 4.5t-4.5 9.5v672q0 5 4.5 9.5t9.5 4.5h105q5 0 9.5 -4.5t4.5 -9.5v-672zM197 935q8 10 14.5 12.5t13.5 2.5h71q8 0 10.5 -5.5t-2.5 -13.5l-106 -161q-6 -10 -13 -12.5t-15 -2.5h-64q-8 0 -15 2.5t-13 12.5l-106 161
q-5 8 -2.5 13.5t10.5 5.5h71q7 0 13.5 -2.5t14.5 -12.5l59 -71z" />
    <glyph glyph-name="uni01D0" unicode="&#x1d0;" horiz-adv-x="267" 
d="M197 14q0 -5 -4.5 -9.5t-9.5 -4.5h-99q-5 0 -9.5 4.5t-4.5 9.5v536q0 5 4.5 9.5t9.5 4.5h99q5 0 9.5 -4.5t4.5 -9.5v-536zM189 776q8 10 14.5 12.5t13.5 2.5h69q8 0 10.5 -5.5t-2.5 -13.5l-101 -153q-6 -10 -13 -12.5t-15 -2.5h-60q-8 0 -15 2.5t-13 12.5l-101 153
q-5 8 -2.5 13.5t10.5 5.5h69q7 0 13.5 -2.5t14.5 -12.5l54 -66z" />
    <glyph glyph-name="uni01DD" unicode="&#x1dd;" horiz-adv-x="666" 
d="M449 406q-27 29 -63 43t-72 14q-27 0 -55.5 -8.5t-54.5 -28.5q-17 -13 -30 -29t-22 -32q-3 -5 -7.5 -9t-16.5 3l-69 38q-12 7 -9.5 16.5t4.5 14.5q11 20 32.5 44.5t44.5 42.5q34 26 80 43.5t106 18.5q65 1 117.5 -19.5t90.5 -53.5q45 -38 73 -94.5t28 -127.5
q0 -60 -23.5 -118.5t-76.5 -104.5q-43 -38 -96 -55t-107 -17q-44 0 -89 11t-80 34q-29 19 -55.5 48t-46.5 74q-9 20 -14.5 42t-7.5 41q-3 22 -3 44q0 5 4.5 9.5t9.5 4.5h455q-2 39 -15 65t-32 46zM311 101q27 0 51 5t45 19t35.5 31t24.5 37h-293q5 -20 18 -39t32 -30
q23 -14 44.5 -18.5t42.5 -4.5z" />
    <glyph glyph-name="Gcaron" unicode="&#x1e6;" horiz-adv-x="811" 
d="M742 356q5 0 9.5 -4.5t4.5 -9.5v-328q0 -5 -4.5 -9.5t-9.5 -4.5h-98q-5 0 -9.5 4.5t-4.5 9.5v64q-27 -27 -56 -44.5t-58.5 -28.5t-58.5 -15.5t-56 -4.5q-69 0 -129.5 24.5t-105.5 62.5q-55 47 -90.5 118t-35.5 160t35.5 160t91.5 118q46 38 109 62.5t142 24.5
q43 0 78 -7.5t63.5 -18.5t50.5 -25t37 -26q26 -21 52.5 -52.5t41.5 -59.5q2 -5 4.5 -14.5t-9.5 -16.5l-76 -42q-12 -7 -16.5 -3t-7.5 9q-11 20 -26.5 40t-32.5 36q-35 33 -74 47t-81 15q-57 1 -100 -19.5t-71 -46.5q-32 -29 -54 -75t-22 -106q0 -56 21 -104t53 -80
q31 -30 70 -46.5t90 -16.5q44 0 80.5 12.5t68.5 33.5q28 19 46.5 40t31.5 47h-161q-5 0 -9.5 4.5t-4.5 9.5v92q0 5 4.5 9.5t9.5 4.5h267zM468 935q8 10 14.5 12.5t13.5 2.5h71q8 0 10.5 -5.5t-2.5 -13.5l-106 -161q-6 -10 -13 -12.5t-15 -2.5h-64q-8 0 -15 2.5t-13 12.5
l-106 161q-5 8 -2.5 13.5t10.5 5.5h71q7 0 13.5 -2.5t14.5 -12.5l59 -71z" />
    <glyph glyph-name="gcaron" unicode="&#x1e7;" horiz-adv-x="681" 
d="M612 287q5 0 9.5 -4.5t4.5 -9.5v-259q0 -5 -4.5 -9.5t-9.5 -4.5h-92q-5 0 -9.5 4.5t-4.5 9.5v35q-25 -21 -49.5 -33t-47 -18.5t-42 -8.5t-32.5 -2q-58 0 -107 20t-87 53q-53 46 -77 104t-24 118q0 71 28 127.5t73 94.5q38 33 90.5 53.5t117.5 19.5q60 -1 106 -18.5
t80 -43.5q23 -18 44.5 -42.5t32.5 -44.5q2 -5 4.5 -14.5t-9.5 -16.5l-69 -38q-12 -7 -16.5 -3t-7.5 9q-9 16 -22 32t-30 29q-26 20 -54.5 28.5t-55.5 8.5q-36 0 -72 -14t-63 -43q-20 -21 -33.5 -51.5t-13.5 -72.5q0 -41 13.5 -72.5t33.5 -53.5q21 -23 54 -39t78 -16
q17 0 36.5 3t40 11t40 22t36.5 36h-116q-5 0 -9.5 4.5t-4.5 9.5v86q0 5 4.5 9.5t9.5 4.5h226zM391 776q8 10 14.5 12.5t13.5 2.5h69q8 0 10.5 -5.5t-2.5 -13.5l-101 -153q-6 -10 -13 -12.5t-15 -2.5h-60q-8 0 -15 2.5t-13 12.5l-101 153q-5 8 -2.5 13.5t10.5 5.5h69
q7 0 13.5 -2.5t14.5 -12.5l54 -66z" />
    <glyph glyph-name="Scommaaccent" unicode="&#x218;" horiz-adv-x="814" 
d="M562 414q16 0 34.5 -4t37.5 -11t36.5 -17.5t31.5 -22.5q10 -9 21 -22.5t20 -32t15 -42.5t6 -55t-6 -55t-15 -42.5t-20 -32t-21 -22.5q-14 -12 -31.5 -22.5t-36.5 -17.5t-37.5 -11t-34.5 -4h-292q-17 0 -37.5 1.5t-42.5 7t-43.5 15.5t-40.5 27q-7 6 -16.5 17t-18.5 28
t-15 39t-6 51v13q0 5 4.5 9.5t9.5 4.5h102q5 0 9.5 -4.5t4.5 -9.5v-8q0 -23 10 -35t15 -16q17 -14 39 -17t38 -3h261q39 0 62.5 24.5t23.5 59.5t-23.5 59.5t-62.5 24.5h-291q-43 0 -79 16t-60 39q-25 23 -44 60t-19 91t19 91t44 60q24 23 60 39t79 16h278q16 0 37 -1.5
t43 -7t43.5 -15.5t40.5 -27q24 -22 40 -56.5t16 -76.5v-15q0 -5 -4.5 -9.5t-9.5 -4.5h-102q-5 0 -9.5 4.5t-4.5 9.5v8q0 23 -10 35t-15 16q-15 11 -35.5 15.5t-38.5 4.5h-250q-37 0 -61.5 -24t-24.5 -59t24.5 -59t61.5 -24h291zM393 -282q-7 -10 -13.5 -12.5t-13.5 -2.5h-28
q-6 0 -6.5 5.5t2.5 11.5l60 111h-60q-5 0 -9.5 4.5t-4.5 9.5v100q0 5 4.5 9.5t9.5 4.5h132q5 0 9.5 -4.5t4.5 -9.5v-103z" />
    <glyph glyph-name="scommaaccent" unicode="&#x219;" horiz-adv-x="736" 
d="M517 340q32 0 64 -12.5t55 -34.5q15 -14 32.5 -44t17.5 -79t-17.5 -79t-32.5 -44q-23 -22 -55 -34.5t-64 -12.5h-280q-28 0 -65 7.5t-69 34.5q-17 14 -35 42t-18 71v12q0 5 4.5 9.5t9.5 4.5h97q5 0 9.5 -4.5t4.5 -9.5v-1q0 -13 4.5 -21.5t9.5 -13.5q11 -10 23 -12.5
t22 -2.5h262q26 0 43 15.5t17 38.5t-17 38.5t-43 15.5h-277q-32 0 -64 12.5t-55 34.5q-15 14 -32.5 44t-17.5 79t17.5 79t32.5 44q23 22 55 34.5t64 12.5h269q28 0 65 -7.5t69 -34.5q17 -14 35 -42t18 -71v-12q0 -5 -4.5 -9.5t-9.5 -4.5h-97q-5 0 -9.5 4.5t-4.5 9.5v1
q0 13 -4.5 21.5t-9.5 13.5q-11 10 -23 12.5t-22 2.5h-251q-26 0 -43 -15.5t-17 -38.5t17 -38.5t43 -15.5h277zM369 -266q-7 -10 -13.5 -12.5t-13.5 -2.5h-25q-6 0 -6.5 5.5t2.5 11.5l56 103h-55q-5 0 -9.5 4.5t-4.5 9.5v92q0 5 4.5 9.5t9.5 4.5h122q5 0 9.5 -4.5t4.5 -9.5
v-95z" />
    <glyph glyph-name="uni021A" unicode="&#x21a;" horiz-adv-x="746" 
d="M439 14q0 -5 -4.5 -9.5t-9.5 -4.5h-104q-5 0 -9.5 4.5t-4.5 9.5v566h-273q-5 0 -9.5 4.5t-4.5 9.5v92q0 5 4.5 9.5t9.5 4.5h678q5 0 9.5 -4.5t4.5 -9.5v-92q0 -5 -4.5 -9.5t-9.5 -4.5h-273v-566zM365 -282q-7 -10 -13.5 -12.5t-13.5 -2.5h-28q-6 0 -6.5 5.5t2.5 11.5
l60 111h-60q-5 0 -9.5 4.5t-4.5 9.5v100q0 5 4.5 9.5t9.5 4.5h132q5 0 9.5 -4.5t4.5 -9.5v-103z" />
    <glyph glyph-name="uni021B" unicode="&#x21b;" horiz-adv-x="665" 
d="M396 14q0 -5 -4.5 -9.5t-9.5 -4.5h-99q-5 0 -9.5 4.5t-4.5 9.5v434h-235q-5 0 -9.5 4.5t-4.5 9.5v88q0 5 4.5 9.5t9.5 4.5h597q5 0 9.5 -4.5t4.5 -9.5v-88q0 -5 -4.5 -9.5t-9.5 -4.5h-235v-434zM327 -266q-7 -10 -13.5 -12.5t-13.5 -2.5h-25q-6 0 -6.5 5.5t2.5 11.5
l56 103h-55q-5 0 -9.5 4.5t-4.5 9.5v92q0 5 4.5 9.5t9.5 4.5h122q5 0 9.5 -4.5t4.5 -9.5v-95z" />
    <glyph glyph-name="uni0237" unicode="&#x237;" horiz-adv-x="624" 
d="M340 116q13 0 32.5 2.5t34.5 15.5q5 5 13.5 18.5t8.5 38.5v359q0 5 4.5 9.5t9.5 4.5h97q5 0 9.5 -4.5t4.5 -9.5v-376q0 -49 -15 -80.5t-35 -49.5q-23 -20 -59 -32t-83 -12h-150q-47 0 -83 12t-59 32q-20 18 -35 49.5t-15 80.5v31q0 5 4.5 9.5t9.5 4.5h95q5 0 9.5 -4.5
t4.5 -9.5v-14q0 -14 3.5 -29.5t17.5 -27.5q15 -13 36 -15.5t32 -2.5h108z" />
    <glyph glyph-name="uni0259" unicode="&#x259;" horiz-adv-x="666" 
d="M449 406q-27 29 -63 43t-72 14q-27 0 -55.5 -8.5t-54.5 -28.5q-17 -13 -30 -29t-22 -32q-3 -5 -7.5 -9t-16.5 3l-69 38q-12 7 -9.5 16.5t4.5 14.5q11 20 32.5 44.5t44.5 42.5q34 26 80 43.5t106 18.5q65 1 117.5 -19.5t90.5 -53.5q45 -38 73 -94.5t28 -127.5
q0 -60 -23.5 -118.5t-76.5 -104.5q-43 -38 -96 -55t-107 -17q-44 0 -89 11t-80 34q-29 19 -55.5 48t-46.5 74q-9 20 -14.5 42t-7.5 41q-3 22 -3 44q0 5 4.5 9.5t9.5 4.5h455q-2 39 -15 65t-32 46zM311 101q27 0 51 5t45 19t35.5 31t24.5 37h-293q5 -20 18 -39t32 -30
q23 -14 44.5 -18.5t42.5 -4.5z" />
    <glyph glyph-name="afii57929" unicode="&#x2bc;" horiz-adv-x="270" 
d="M129 339q-7 -10 -13.5 -12.5t-13.5 -2.5h-25q-6 0 -6.5 5.5t2.5 11.5l56 103h-55q-5 0 -9.5 4.5t-4.5 9.5v92q0 5 4.5 9.5t9.5 4.5h122q5 0 9.5 -4.5t4.5 -9.5v-95z" />
    <glyph glyph-name="circumflex" unicode="&#x2c6;" horiz-adv-x="384" 
d="M138 619q-8 -10 -14.5 -12.5t-13.5 -2.5h-69q-8 0 -10.5 5.5t2.5 13.5l101 153q6 10 13 12.5t15 2.5h60q8 0 15 -2.5t13 -12.5l101 -153q5 -8 2.5 -13.5t-10.5 -5.5h-69q-7 0 -13.5 2.5t-14.5 12.5l-54 66z" />
    <glyph glyph-name="caron" unicode="&#x2c7;" horiz-adv-x="384" 
d="M246 776q8 10 14.5 12.5t13.5 2.5h69q8 0 10.5 -5.5t-2.5 -13.5l-101 -153q-6 -10 -13 -12.5t-15 -2.5h-60q-8 0 -15 2.5t-13 12.5l-101 153q-5 8 -2.5 13.5t10.5 5.5h69q7 0 13.5 -2.5t14.5 -12.5l54 -66z" />
    <glyph glyph-name="breve" unicode="&#x2d8;" horiz-adv-x="422" 
d="M365 709q2 0 7 -2t5 -10v-26q0 -28 -19.5 -47.5t-47.5 -19.5h-198q-28 0 -47.5 19.5t-19.5 47.5v26q0 8 5 10t7 2h77q5 0 8.5 -3.5t3.5 -8.5v-3q0 -10 11 -15t24 -5h60q13 0 24 5t11 15v3q0 5 3.5 8.5t8.5 3.5h77z" />
    <glyph glyph-name="dotaccent" unicode="&#x2d9;" horiz-adv-x="212" 
d="M182 618q0 -5 -4.5 -9.5t-9.5 -4.5h-124q-5 0 -9.5 4.5t-4.5 9.5v104q0 5 4.5 9.5t9.5 4.5h124q5 0 9.5 -4.5t4.5 -9.5v-104z" />
    <glyph glyph-name="ring" unicode="&#x2da;" horiz-adv-x="292" 
d="M242 692q0 -40 -28 -68t-68 -28t-68 28t-28 68t28 68t68 28t68 -28t28 -68zM190 692q0 18 -13 31t-31 13t-31 -13t-13 -31t13 -31t31 -13t31 13t13 31z" />
    <glyph glyph-name="ogonek" unicode="&#x2db;" horiz-adv-x="371" 
d="M177 -110q-5 -5 -8 -9.5t-3 -12.5q0 -10 6.5 -17.5t18.5 -7.5h83q5 0 9.5 -4.5t4.5 -9.5v-42q0 -5 -4.5 -9.5t-9.5 -4.5h-103q-19 0 -36 7t-28 18q-12 11 -19.5 27.5t-7.5 36.5q0 17 8 35.5t34 41.5l69 61h100z" />
    <glyph glyph-name="tilde" unicode="&#x2dc;" horiz-adv-x="550" 
d="M505 682q0 -8 -2.5 -12.5t-7.5 -9.5q-9 -10 -22.5 -19t-25.5 -15q-18 -9 -38.5 -14t-37.5 -5q-26 -1 -50.5 8t-49.5 20q-22 10 -44 17.5t-48 7.5q-20 0 -37 -5.5t-31 -11.5q-9 -4 -20.5 -10t-20.5 -13t-17 -7t-8 12v60q0 8 2.5 12.5t7.5 9.5q9 10 22.5 19t25.5 15
q18 9 38.5 14t37.5 5q26 1 50.5 -8t49.5 -20q22 -10 44 -17.5t48 -7.5q20 0 37 5.5t31 11.5q9 4 20.5 10t20.5 13t17 7t8 -12v-60z" />
    <glyph glyph-name="hungarumlaut" unicode="&#x2dd;" horiz-adv-x="561" 
d="M128 616q-9 -12 -27 -12h-59q-8 0 -11 6.5t1 14.5l66 147q3 7 9.5 13t20.5 6h116q8 0 10.5 -6t-2.5 -12zM354 616q-9 -12 -27 -12h-59q-8 0 -11 6.5t1 14.5l66 147q3 7 9.5 13t20.5 6h116q8 0 10.5 -6t-2.5 -12z" />
    <glyph glyph-name="acutecomb" unicode="&#x301;" horiz-adv-x="2" 
d="M-322 616q-9 -12 -27 -12h-59q-8 0 -11 6.5t1 14.5l66 147q3 7 9.5 13t20.5 6h116q8 0 10.5 -6t-2.5 -12z" />
    <glyph glyph-name="Delta" unicode="&#x394;" horiz-adv-x="692" 
d="M655 19l0.5 -3t0.5 -6.5t-1.5 -6.5t-6.5 -3h-604q-5 0 -6.5 3t-1.5 6.5t0.5 6.5l0.5 3l221 662q6 19 26 19h124q20 0 26 -19zM488 116l-142 447l-142 -447h284z" />
    <glyph glyph-name="Delta" unicode="&#x2206;" horiz-adv-x="692" 
d="M655 19l0.5 -3t0.5 -6.5t-1.5 -6.5t-6.5 -3h-604q-5 0 -6.5 3t-1.5 6.5t0.5 6.5l0.5 3l221 662q6 19 26 19h124q20 0 26 -19zM488 116l-142 447l-142 -447h284z" />
    <glyph glyph-name="Omega" unicode="&#x3a9;" horiz-adv-x="798" 
d="M548 120h146q5 0 9.5 -4.5t4.5 -9.5v-92q0 -5 -4.5 -9.5t-9.5 -4.5h-232q-5 0 -9.5 4.5t-4.5 9.5v147q0 10 4.5 14t9.5 6q23 11 46.5 28t40.5 37q54 62 54 145q0 53 -17.5 89.5t-43.5 61.5q-35 34 -73 44.5t-70 10.5t-70 -10.5t-73 -44.5q-26 -25 -43.5 -61.5
t-17.5 -89.5q0 -83 54 -145q17 -20 40.5 -37t46.5 -28q5 -2 9.5 -6t4.5 -14v-147q0 -5 -4.5 -9.5t-9.5 -4.5h-232q-5 0 -9.5 4.5t-4.5 9.5v92q0 5 4.5 9.5t9.5 4.5h146v10q-34 15 -66 37.5t-55 49.5q-41 46 -55 95t-14 91q0 62 24 119t70 101q42 40 104 66t141 26t141 -26
t104 -66q46 -44 70 -101t24 -119q0 -42 -14 -91t-55 -95q-23 -27 -55 -49.5t-66 -37.5v-10z" />
    <glyph glyph-name="Omega" unicode="&#x2126;" horiz-adv-x="798" 
d="M548 120h146q5 0 9.5 -4.5t4.5 -9.5v-92q0 -5 -4.5 -9.5t-9.5 -4.5h-232q-5 0 -9.5 4.5t-4.5 9.5v147q0 10 4.5 14t9.5 6q23 11 46.5 28t40.5 37q54 62 54 145q0 53 -17.5 89.5t-43.5 61.5q-35 34 -73 44.5t-70 10.5t-70 -10.5t-73 -44.5q-26 -25 -43.5 -61.5
t-17.5 -89.5q0 -83 54 -145q17 -20 40.5 -37t46.5 -28q5 -2 9.5 -6t4.5 -14v-147q0 -5 -4.5 -9.5t-9.5 -4.5h-232q-5 0 -9.5 4.5t-4.5 9.5v92q0 5 4.5 9.5t9.5 4.5h146v10q-34 15 -66 37.5t-55 49.5q-41 46 -55 95t-14 91q0 62 24 119t70 101q42 40 104 66t141 26t141 -26
t104 -66q46 -44 70 -101t24 -119q0 -42 -14 -91t-55 -95q-23 -27 -55 -49.5t-66 -37.5v-10z" />
    <glyph glyph-name="pi" unicode="&#x3c0;" horiz-adv-x="813" 
d="M293 444v-430q0 -5 -4.5 -9.5t-9.5 -4.5h-102q-5 0 -9.5 4.5t-4.5 9.5v430h-79q-5 0 -9.5 4.5t-4.5 9.5v92q0 5 4.5 9.5t9.5 4.5h645q5 0 9.5 -4.5t4.5 -9.5v-92q0 -5 -4.5 -9.5t-9.5 -4.5h-79v-430q0 -5 -4.5 -9.5t-9.5 -4.5h-102q-5 0 -9.5 4.5t-4.5 9.5v430h-227z" />
    <glyph glyph-name="afii10023" unicode="&#x401;" horiz-adv-x="798" 
d="M356 871q5 0 9.5 -4.5t4.5 -9.5v-85q0 -5 -4.5 -9.5t-9.5 -4.5h-210q-5 0 -9.5 4.5t-4.5 9.5v85q0 5 4.5 9.5t9.5 4.5h210zM686 871q5 0 9.5 -4.5t4.5 -9.5v-85q0 -5 -4.5 -9.5t-9.5 -4.5h-210q-5 0 -9.5 4.5t-4.5 9.5v85q0 5 4.5 9.5t9.5 4.5h210zM200 410h420
q5 0 9.5 -4.5t4.5 -9.5v-92q0 -5 -4.5 -9.5t-9.5 -4.5h-420v-170h544q5 0 9.5 -4.5t4.5 -9.5v-92q0 -5 -4.5 -9.5t-9.5 -4.5h-660q-5 0 -9.5 4.5t-4.5 9.5v672q0 5 4.5 9.5t9.5 4.5h660q5 0 9.5 -4.5t4.5 -9.5v-92q0 -5 -4.5 -9.5t-9.5 -4.5h-544v-170z" />
    <glyph glyph-name="afii10051" unicode="&#x402;" horiz-adv-x="975" 
d="M399 410h334q45 0 81.5 -16.5t60.5 -39.5t42 -60.5t18 -88.5t-18 -88.5t-42 -60.5t-60.5 -39.5t-81.5 -16.5h-168q-5 0 -9.5 4.5t-4.5 9.5v92q0 5 4.5 9.5t9.5 4.5h147q41 0 64.5 23.5t23.5 61.5t-23.5 61.5t-64.5 23.5h-313v-276q0 -5 -4.5 -9.5t-9.5 -4.5h-104
q-5 0 -9.5 4.5t-4.5 9.5v566h-233q-5 0 -9.5 4.5t-4.5 9.5v92q0 5 4.5 9.5t9.5 4.5h638q5 0 9.5 -4.5t4.5 -9.5v-92q0 -5 -4.5 -9.5t-9.5 -4.5h-273v-170z" />
    <glyph glyph-name="afii10052" unicode="&#x403;" horiz-adv-x="662" 
d="M202 14q0 -5 -4.5 -9.5t-9.5 -4.5h-104q-5 0 -9.5 4.5t-4.5 9.5v672q0 5 4.5 9.5t9.5 4.5h544q5 0 9.5 -4.5t4.5 -9.5v-92q0 -5 -4.5 -9.5t-9.5 -4.5h-426v-566zM369 767q-7 -9 -16 -10.5t-11 -1.5h-66q-8 0 -11 6.5t1 14.5l70 155q3 7 9.5 13t20.5 6h125q8 0 10.5 -6
t-2.5 -12z" />
    <glyph glyph-name="afii10053" unicode="&#x404;" horiz-adv-x="780" 
d="M504 410q5 0 9.5 -4.5t4.5 -9.5v-92q0 -5 -4.5 -9.5t-9.5 -4.5h-323q9 -39 28 -70.5t44 -54.5q32 -29 76 -45.5t90 -16.5q37 0 77 12.5t78 46.5q23 20 36.5 39.5t24.5 39.5q3 5 7.5 9t16.5 -3l76 -42q12 -7 9.5 -16.5t-4.5 -14.5q-17 -30 -41 -60t-54 -53
q-40 -32 -96.5 -54t-131.5 -22q-79 0 -142.5 24.5t-109.5 63.5q-54 46 -89.5 117t-35.5 160t35.5 160t89.5 117q46 39 109.5 63.5t142.5 24.5q75 0 131.5 -22t96.5 -54q30 -23 54 -53t41 -60q2 -5 4.5 -14.5t-9.5 -16.5l-76 -42q-12 -7 -16.5 -3t-7.5 9q-11 20 -24.5 39.5
t-36.5 39.5q-38 34 -78 46.5t-77 12.5q-46 0 -90 -16.5t-76 -45.5q-25 -23 -44 -54.5t-28 -70.5h323z" />
    <glyph glyph-name="afii10054" unicode="&#x405;" horiz-adv-x="814" 
d="M562 414q16 0 34.5 -4t37.5 -11t36.5 -17.5t31.5 -22.5q10 -9 21 -22.5t20 -32t15 -42.5t6 -55t-6 -55t-15 -42.5t-20 -32t-21 -22.5q-14 -12 -31.5 -22.5t-36.5 -17.5t-37.5 -11t-34.5 -4h-292q-17 0 -37.5 1.5t-42.5 7t-43.5 15.5t-40.5 27q-7 6 -16.5 17t-18.5 28
t-15 39t-6 51v13q0 5 4.5 9.5t9.5 4.5h102q5 0 9.5 -4.5t4.5 -9.5v-8q0 -23 10 -35t15 -16q17 -14 39 -17t38 -3h261q39 0 62.5 24.5t23.5 59.5t-23.5 59.5t-62.5 24.5h-291q-43 0 -79 16t-60 39q-25 23 -44 60t-19 91t19 91t44 60q24 23 60 39t79 16h278q16 0 37 -1.5
t43 -7t43.5 -15.5t40.5 -27q24 -22 40 -56.5t16 -76.5v-15q0 -5 -4.5 -9.5t-9.5 -4.5h-102q-5 0 -9.5 4.5t-4.5 9.5v8q0 23 -10 35t-15 16q-15 11 -35.5 15.5t-38.5 4.5h-250q-37 0 -61.5 -24t-24.5 -59t24.5 -59t61.5 -24h291z" />
    <glyph glyph-name="afii10055" unicode="&#x406;" horiz-adv-x="273" 
d="M203 14q0 -5 -4.5 -9.5t-9.5 -4.5h-105q-5 0 -9.5 4.5t-4.5 9.5v672q0 5 4.5 9.5t9.5 4.5h105q5 0 9.5 -4.5t4.5 -9.5v-672z" />
    <glyph glyph-name="afii10056" unicode="&#x407;" horiz-adv-x="273" 
d="M78 871q5 0 9.5 -4.5t4.5 -9.5v-85q0 -5 -4.5 -9.5t-9.5 -4.5h-210q-5 0 -9.5 4.5t-4.5 9.5v85q0 5 4.5 9.5t9.5 4.5h210zM408 871q5 0 9.5 -4.5t4.5 -9.5v-85q0 -5 -4.5 -9.5t-9.5 -4.5h-210q-5 0 -9.5 4.5t-4.5 9.5v85q0 5 4.5 9.5t9.5 4.5h210zM203 14q0 -5 -4.5 -9.5
t-9.5 -4.5h-105q-5 0 -9.5 4.5t-4.5 9.5v672q0 5 4.5 9.5t9.5 4.5h105q5 0 9.5 -4.5t4.5 -9.5v-672z" />
    <glyph glyph-name="afii10057" unicode="&#x408;" horiz-adv-x="683" 
d="M134 256q5 0 9.5 -4.5t4.5 -9.5v-36q0 -14 4 -32.5t21 -32.5t40 -17.5t37 -3.5h131q14 0 37 3.5t40 17.5t21 32.5t4 32.5v480q0 5 4.5 9.5t9.5 4.5h102q5 0 9.5 -4.5t4.5 -9.5v-486q0 -15 -1.5 -34t-7.5 -39t-17.5 -39.5t-30.5 -36.5q-26 -23 -68 -37t-95 -14h-153
q-53 0 -95 14t-68 37q-19 17 -30.5 36.5t-17.5 39.5t-7.5 39t-1.5 34v42q0 5 4.5 9.5t9.5 4.5h100z" />
    <glyph glyph-name="afii10058" unicode="&#x409;" horiz-adv-x="1277" 
d="M339 580l-84 -470q-3 -17 -11.5 -41.5t-29.5 -42.5t-44.5 -22t-35.5 -4h-90q-5 0 -9.5 4.5t-4.5 9.5v92q0 5 4.5 9.5t9.5 4.5h33q4 0 11.5 1t16 5t15 12t9.5 23l99 520q1 4 4.5 11.5t17.5 7.5h435q5 0 9.5 -4.5t4.5 -9.5v-256h328q35 0 75.5 -15t69.5 -42q10 -9 21 -23
t21 -33.5t16.5 -45t6.5 -56.5q0 -32 -6.5 -57t-16.5 -44.5t-21 -33.5t-21 -23q-29 -27 -69.5 -42t-75.5 -15h-444q-5 0 -9.5 4.5t-4.5 9.5v566h-230zM699 120h305q44 0 71 26.5t27 68.5t-27 68.5t-71 26.5h-305v-190z" />
    <glyph glyph-name="afii10059" unicode="&#x40a;" horiz-adv-x="1311" 
d="M603 410v276q0 5 4.5 9.5t9.5 4.5h102q5 0 9.5 -4.5t4.5 -9.5v-276h336q45 0 81.5 -16.5t60.5 -39.5t42 -60.5t18 -88.5t-18 -88.5t-42 -60.5t-60.5 -39.5t-81.5 -16.5h-452q-5 0 -9.5 4.5t-4.5 9.5v276h-403v-276q0 -5 -4.5 -9.5t-9.5 -4.5h-102q-5 0 -9.5 4.5t-4.5 9.5
v672q0 5 4.5 9.5t9.5 4.5h102q5 0 9.5 -4.5t4.5 -9.5v-276h403zM733 120h315q41 0 64.5 23.5t23.5 61.5t-23.5 61.5t-64.5 23.5h-315v-170z" />
    <glyph glyph-name="afii10060" unicode="&#x40b;" horiz-adv-x="921" 
d="M34 580q-5 0 -9.5 4.5t-4.5 9.5v92q0 5 4.5 9.5t9.5 4.5h638q5 0 9.5 -4.5t4.5 -9.5v-92q0 -5 -4.5 -9.5t-9.5 -4.5h-273v-170h262q53 0 95 -14t68 -37q19 -17 30.5 -36.5t17.5 -39.5t7.5 -39t1.5 -34v-196q0 -5 -4.5 -9.5t-9.5 -4.5h-102q-5 0 -9.5 4.5t-4.5 9.5v190
q0 14 -4 32.5t-21 32.5t-40 17.5t-37 3.5h-250v-276q0 -5 -4.5 -9.5t-9.5 -4.5h-104q-5 0 -9.5 4.5t-4.5 9.5v566h-233z" />
    <glyph glyph-name="afii10061" unicode="&#x40c;" horiz-adv-x="817" 
d="M500 410q14 0 30 3t29 16q11 11 13.5 23t2.5 23v115q0 11 3.5 34t21.5 43q11 13 29.5 23t47.5 10h76q5 0 9.5 -4.5t4.5 -9.5v-92q0 -5 -4.5 -9.5t-9.5 -4.5h-12q-13 0 -20.5 -6t-11 -13.5t-4 -15t-0.5 -10.5v-93q0 -13 -2.5 -26.5t-10.5 -27.5q-9 -14 -20.5 -23.5
t-13.5 -11.5q11 -5 31 -17.5t35 -31.5q33 -41 33 -101v-189q0 -5 -4.5 -9.5t-9.5 -4.5h-102q-5 0 -9.5 4.5t-4.5 9.5v180q0 17 -6.5 35t-17.5 30q-14 14 -34.5 22.5t-39.5 8.5h-329v-276q0 -5 -4.5 -9.5t-9.5 -4.5h-102q-5 0 -9.5 4.5t-4.5 9.5v672q0 5 4.5 9.5t9.5 4.5h102
q5 0 9.5 -4.5t4.5 -9.5v-276h300zM425 767q-7 -9 -16 -10.5t-11 -1.5h-66q-8 0 -11 6.5t1 14.5l70 155q3 7 9.5 13t20.5 6h125q8 0 10.5 -6t-2.5 -12z" />
    <glyph glyph-name="afii10062" unicode="&#x40e;" horiz-adv-x="746" 
d="M179 291q-6 0 -14.5 2t-12.5 16l-112 377q-2 6 1.5 10t9.5 4h95q6 0 14.5 -2t12.5 -16l77 -271h256l67 271q3 14 12.5 16t14.5 2h95q14 0 11 -14l-142 -536q-3 -11 -8 -26t-12.5 -31t-18.5 -31t-25 -27q-22 -17 -53 -26t-63 -9h-210q-5 0 -9.5 4.5t-4.5 9.5v92
q0 5 4.5 9.5t9.5 4.5h190q12 0 29.5 4t28.5 13q21 16 27 45l27 109h-297zM549 877q5 0 9.5 -4.5t4.5 -9.5v-30q0 -32 -23 -55t-55 -23h-232q-32 0 -55 23t-23 55v30q0 5 4.5 9.5t9.5 4.5h90q5 0 9.5 -4.5t4.5 -9.5v-3q0 -11 11.5 -17t29.5 -6h70q18 0 29.5 6t11.5 17v3
q0 5 4.5 9.5t9.5 4.5h90z" />
    <glyph glyph-name="afii10145" unicode="&#x40f;" horiz-adv-x="808" 
d="M608 120v566q0 5 4.5 9.5t9.5 4.5h102q5 0 9.5 -4.5t4.5 -9.5v-672q0 -5 -4.5 -9.5t-9.5 -4.5h-255v-126q0 -5 -4.5 -9.5t-9.5 -4.5h-102q-5 0 -9.5 4.5t-4.5 9.5v126h-255q-5 0 -9.5 4.5t-4.5 9.5v672q0 5 4.5 9.5t9.5 4.5h102q5 0 9.5 -4.5t4.5 -9.5v-566h408z" />
    <glyph glyph-name="afii10017" unicode="&#x410;" horiz-adv-x="766" 
d="M284 580l-65 -341h328l-65 341h-198zM177 19q-1 -4 -4.5 -11.5t-17.5 -7.5h-104q-8 0 -10 5q-3 3 0 14l137 662q1 5 5 12t17 7h366q13 0 17 -7t5 -12l137 -662q3 -11 0 -14q-3 -5 -10 -5h-104q-14 0 -17.5 7.5t-4.5 11.5l-19 100h-374z" />
    <glyph glyph-name="afii10018" unicode="&#x411;" horiz-adv-x="815" 
d="M555 430q35 0 75.5 -15t69.5 -42q10 -9 21 -23t21 -33.5t16.5 -45t6.5 -56.5q0 -32 -6.5 -57t-16.5 -44.5t-21 -33.5t-21 -23q-29 -27 -69.5 -42t-75.5 -15h-471q-5 0 -9.5 4.5t-4.5 9.5v672q0 5 4.5 9.5t9.5 4.5h599q5 0 9.5 -4.5t4.5 -9.5v-92q0 -5 -4.5 -9.5
t-9.5 -4.5h-483v-150h355zM200 120h332q44 0 71 26.5t27 68.5t-27 68.5t-71 26.5h-332v-190z" />
    <glyph glyph-name="afii10019" unicode="&#x412;" horiz-adv-x="825" 
d="M564 700q52 0 89 -17t60 -43.5t34 -59t11 -63.5q0 -39 -11.5 -68t-28 -48.5t-33 -31.5t-26.5 -17q28 -13 48 -31.5t32.5 -40.5t19 -45.5t6.5 -47.5q0 -32 -11 -65t-35.5 -60t-63 -44.5t-92.5 -17.5h-479q-5 0 -9.5 4.5t-4.5 9.5v672q0 5 4.5 9.5t9.5 4.5h480zM536 120
q43 0 68.5 23t25.5 58q0 15 -5.5 31.5t-19 29.5t-35 21.5t-53.5 8.5h-317v-172h336zM526 412q46 0 73 25t26 63q0 15 -5.5 29t-16.5 25.5t-29 18.5t-44 7h-330v-168h326z" />
    <glyph glyph-name="afii10020" unicode="&#x413;" horiz-adv-x="662" 
d="M202 14q0 -5 -4.5 -9.5t-9.5 -4.5h-104q-5 0 -9.5 4.5t-4.5 9.5v672q0 5 4.5 9.5t9.5 4.5h544q5 0 9.5 -4.5t4.5 -9.5v-92q0 -5 -4.5 -9.5t-9.5 -4.5h-426v-566z" />
    <glyph glyph-name="afii10021" unicode="&#x414;" horiz-adv-x="829" 
d="M585 120v460h-259l-105 -460h364zM775 120q5 0 9.5 -4.5t4.5 -9.5v-232q0 -5 -4.5 -9.5t-9.5 -4.5h-102q-5 0 -9.5 4.5t-4.5 9.5v126h-499v-126q0 -5 -4.5 -9.5t-9.5 -4.5h-102q-5 0 -9.5 4.5t-4.5 9.5v232q0 5 4.5 9.5t9.5 4.5h43l132 558q5 22 28 22h454q5 0 9.5 -4.5
t4.5 -9.5v-566h60z" />
    <glyph glyph-name="afii10022" unicode="&#x415;" horiz-adv-x="798" 
d="M200 410h420q5 0 9.5 -4.5t4.5 -9.5v-92q0 -5 -4.5 -9.5t-9.5 -4.5h-420v-170h544q5 0 9.5 -4.5t4.5 -9.5v-92q0 -5 -4.5 -9.5t-9.5 -4.5h-660q-5 0 -9.5 4.5t-4.5 9.5v672q0 5 4.5 9.5t9.5 4.5h660q5 0 9.5 -4.5t4.5 -9.5v-92q0 -5 -4.5 -9.5t-9.5 -4.5h-544v-170z" />
    <glyph glyph-name="afii10024" unicode="&#x416;" horiz-adv-x="1060" 
d="M743 410q14 0 30 3t29 16q11 11 13.5 23t2.5 23v115q0 11 3.5 34t21.5 43q11 13 29.5 23t47.5 10h76q5 0 9.5 -4.5t4.5 -9.5v-92q0 -5 -4.5 -9.5t-9.5 -4.5h-12q-13 0 -20.5 -6t-11 -13.5t-4 -15t-0.5 -10.5v-93q0 -13 -2.5 -26.5t-10.5 -27.5q-9 -14 -20.5 -23.5
t-13.5 -11.5l19 -10q29 -15 45.5 -36.5t24 -42t9 -38t1.5 -24.5v-188q0 -5 -4.5 -9.5t-9.5 -4.5h-102q-5 0 -9.5 4.5t-4.5 9.5v180q0 18 -6.5 35.5t-17.5 29.5q-8 9 -26 20t-48 11h-177v-276q0 -5 -4.5 -9.5t-9.5 -4.5h-102q-5 0 -9.5 4.5t-4.5 9.5v276h-177q-30 0 -48 -11
t-26 -20q-11 -12 -17.5 -29.5t-6.5 -35.5v-180q0 -5 -4.5 -9.5t-9.5 -4.5h-102q-5 0 -9.5 4.5t-4.5 9.5v188q0 7 1.5 24.5t9 38t24 42t45.5 36.5l19 10q-2 2 -13.5 11.5t-20.5 23.5q-8 14 -10.5 27.5t-2.5 26.5v93q0 3 -0.5 10.5t-4 15t-11 13.5t-20.5 6h-12q-5 0 -9.5 4.5
t-4.5 9.5v92q0 5 4.5 9.5t9.5 4.5h76q29 0 47.5 -10t29.5 -23q18 -20 21.5 -43t3.5 -34v-115q0 -11 2.5 -23t13.5 -23q13 -13 29 -16t30 -3h148v276q0 5 4.5 9.5t9.5 4.5h102q5 0 9.5 -4.5t4.5 -9.5v-276h148z" />
    <glyph glyph-name="afii10025" unicode="&#x417;" horiz-adv-x="787" 
d="M215 292q-5 0 -9.5 4.5t-4.5 9.5v92q0 5 4.5 9.5t9.5 4.5h273q46 0 73 25t26 63q0 15 -5.5 29t-16.5 25.5t-29 18.5t-44 7h-376q-5 0 -9.5 4.5t-4.5 9.5v92q0 5 4.5 9.5t9.5 4.5h410q52 0 89 -17t60 -43.5t34 -59t11 -63.5q0 -39 -11.5 -68t-28 -48.5t-33 -31.5
t-26.5 -17q28 -13 48 -31.5t32.5 -40.5t19 -45.5t6.5 -47.5q0 -32 -11 -65t-35.5 -60t-63 -44.5t-92.5 -17.5h-270q-17 0 -37.5 1.5t-42.5 7t-43.5 15.5t-40.5 27q-7 6 -16.5 17t-18.5 28t-15 39t-6 51v13q0 5 4.5 9.5t9.5 4.5h102q5 0 9.5 -4.5t4.5 -9.5v-8q0 -23 10 -35
t15 -16q17 -14 39 -17t38 -3h231q43 0 68.5 23t25.5 58q0 15 -5.5 31.5t-19 29.5t-35 21.5t-53.5 8.5h-264z" />
    <glyph glyph-name="afii10026" unicode="&#x418;" 
d="M622 687q6 7 12 10t15 3h85q5 0 9.5 -4.5t4.5 -9.5v-672q0 -5 -4.5 -9.5t-9.5 -4.5h-102q-5 0 -9.5 4.5t-4.5 9.5v495l-422 -496q-6 -7 -12 -10t-15 -3h-85q-5 0 -9.5 4.5t-4.5 9.5v672q0 5 4.5 9.5t9.5 4.5h102q5 0 9.5 -4.5t4.5 -9.5v-495z" />
    <glyph glyph-name="afii10027" unicode="&#x419;" 
d="M592 850q5 0 9.5 -4.5t4.5 -9.5v-30q0 -32 -23 -55t-55 -23h-232q-32 0 -55 23t-23 55v30q0 5 4.5 9.5t9.5 4.5h90q5 0 9.5 -4.5t4.5 -9.5v-3q0 -11 11.5 -17t29.5 -6h70q18 0 29.5 6t11.5 17v3q0 5 4.5 9.5t9.5 4.5h90zM622 687q6 7 12 10t15 3h85q5 0 9.5 -4.5
t4.5 -9.5v-672q0 -5 -4.5 -9.5t-9.5 -4.5h-102q-5 0 -9.5 4.5t-4.5 9.5v495l-422 -496q-6 -7 -12 -10t-15 -3h-85q-5 0 -9.5 4.5t-4.5 9.5v672q0 5 4.5 9.5t9.5 4.5h102q5 0 9.5 -4.5t4.5 -9.5v-495z" />
    <glyph glyph-name="afii10028" unicode="&#x41a;" horiz-adv-x="817" 
d="M500 410q14 0 30 3t29 16q11 11 13.5 23t2.5 23v115q0 11 3.5 34t21.5 43q11 13 29.5 23t47.5 10h76q5 0 9.5 -4.5t4.5 -9.5v-92q0 -5 -4.5 -9.5t-9.5 -4.5h-12q-13 0 -20.5 -6t-11 -13.5t-4 -15t-0.5 -10.5v-93q0 -13 -2.5 -26.5t-10.5 -27.5q-9 -14 -20.5 -23.5
t-13.5 -11.5q11 -5 31 -17.5t35 -31.5q33 -41 33 -101v-189q0 -5 -4.5 -9.5t-9.5 -4.5h-102q-5 0 -9.5 4.5t-4.5 9.5v180q0 17 -6.5 35t-17.5 30q-14 14 -34.5 22.5t-39.5 8.5h-329v-276q0 -5 -4.5 -9.5t-9.5 -4.5h-102q-5 0 -9.5 4.5t-4.5 9.5v672q0 5 4.5 9.5t9.5 4.5h102
q5 0 9.5 -4.5t4.5 -9.5v-276h300z" />
    <glyph glyph-name="afii10029" unicode="&#x41b;" horiz-adv-x="784" 
d="M339 580l-84 -470q-3 -17 -11.5 -41.5t-29.5 -42.5t-44.5 -22t-35.5 -4h-90q-5 0 -9.5 4.5t-4.5 9.5v92q0 5 4.5 9.5t9.5 4.5h33q4 0 11.5 1t16 5t15 12t9.5 23l99 520q1 4 4.5 11.5t17.5 7.5h450q5 0 9.5 -4.5t4.5 -9.5v-672q0 -5 -4.5 -9.5t-9.5 -4.5h-102
q-5 0 -9.5 4.5t-4.5 9.5v566h-245z" />
    <glyph glyph-name="afii10030" unicode="&#x41c;" horiz-adv-x="964" 
d="M549 15q-4 -9 -9 -12t-14 -3h-88q-9 0 -14 3t-9 12l-217 496v-497q0 -5 -4.5 -9.5t-9.5 -4.5h-100q-5 0 -9.5 4.5t-4.5 9.5v672q0 5 4.5 9.5t9.5 4.5h143q11 0 15.5 -5.5t7.5 -12.5l232 -521l232 521q3 7 7.5 12.5t15.5 5.5h143q5 0 9.5 -4.5t4.5 -9.5v-672
q0 -5 -4.5 -9.5t-9.5 -4.5h-100q-5 0 -9.5 4.5t-4.5 9.5v497z" />
    <glyph glyph-name="afii10031" unicode="&#x41d;" 
d="M618 410v276q0 5 4.5 9.5t9.5 4.5h102q5 0 9.5 -4.5t4.5 -9.5v-672q0 -5 -4.5 -9.5t-9.5 -4.5h-102q-5 0 -9.5 4.5t-4.5 9.5v276h-418v-276q0 -5 -4.5 -9.5t-9.5 -4.5h-102q-5 0 -9.5 4.5t-4.5 9.5v672q0 5 4.5 9.5t9.5 4.5h102q5 0 9.5 -4.5t4.5 -9.5v-276h418z" />
    <glyph glyph-name="afii10032" unicode="&#x41e;" horiz-adv-x="830" 
d="M790 350q0 -71 -27 -139t-81 -121q-19 -19 -45 -37.5t-59.5 -33.5t-74 -24.5t-88.5 -9.5t-88.5 9.5t-74 24.5t-59.5 33.5t-45 37.5q-54 53 -81 121t-27 139t27 139t81 121q19 19 45 37.5t59.5 33.5t74 24.5t88.5 9.5t88.5 -9.5t74 -24.5t59.5 -33.5t45 -37.5
q54 -53 81 -121t27 -139zM655 350q0 54 -18 97.5t-47 75.5q-27 29 -71 51.5t-104 22.5t-104 -22.5t-71 -51.5q-29 -32 -47 -75.5t-18 -97.5t18 -97.5t47 -75.5q27 -29 71 -51.5t104 -22.5t104 22.5t71 51.5q29 32 47 75.5t18 97.5z" />
    <glyph glyph-name="afii10033" unicode="&#x41f;" 
d="M200 580v-566q0 -5 -4.5 -9.5t-9.5 -4.5h-102q-5 0 -9.5 4.5t-4.5 9.5v672q0 5 4.5 9.5t9.5 4.5h650q5 0 9.5 -4.5t4.5 -9.5v-672q0 -5 -4.5 -9.5t-9.5 -4.5h-102q-5 0 -9.5 4.5t-4.5 9.5v566h-418z" />
    <glyph glyph-name="afii10034" unicode="&#x420;" horiz-adv-x="792" 
d="M200 14q0 -5 -4.5 -9.5t-9.5 -4.5h-102q-5 0 -9.5 4.5t-4.5 9.5v672q0 5 4.5 9.5t9.5 4.5h458q35 0 75.5 -15t69.5 -42q10 -9 21 -23t21 -33.5t16.5 -45t6.5 -56.5q0 -32 -6.5 -57t-16.5 -44.5t-21 -33.5t-21 -23q-29 -27 -69.5 -42t-75.5 -15h-342v-256zM519 390
q44 0 71 26.5t27 68.5t-27 68.5t-71 26.5h-319v-190h319z" />
    <glyph glyph-name="afii10035" unicode="&#x421;" horiz-adv-x="780" 
d="M735 205q12 -7 9.5 -16.5t-4.5 -14.5q-17 -30 -41 -60t-54 -53q-40 -32 -96.5 -54t-131.5 -22q-79 0 -142.5 24.5t-109.5 63.5q-54 46 -89.5 117t-35.5 160t35.5 160t89.5 117q46 39 109.5 63.5t142.5 24.5q75 0 131.5 -22t96.5 -54q30 -23 54 -53t41 -60q2 -5 4.5 -14.5
t-9.5 -16.5l-76 -42q-12 -7 -16.5 -3t-7.5 9q-11 20 -24.5 39.5t-36.5 39.5q-67 59 -155 59q-46 0 -89.5 -16.5t-76.5 -46.5q-35 -32 -56 -79t-21 -105t21 -105t56 -79q33 -30 76.5 -46.5t89.5 -16.5q88 0 155 59q23 20 36.5 39.5t24.5 39.5q3 5 7.5 9t16.5 -3z" />
    <glyph glyph-name="afii10036" unicode="&#x422;" horiz-adv-x="746" 
d="M439 14q0 -5 -4.5 -9.5t-9.5 -4.5h-104q-5 0 -9.5 4.5t-4.5 9.5v566h-273q-5 0 -9.5 4.5t-4.5 9.5v92q0 5 4.5 9.5t9.5 4.5h678q5 0 9.5 -4.5t4.5 -9.5v-92q0 -5 -4.5 -9.5t-9.5 -4.5h-273v-566z" />
    <glyph glyph-name="afii10037" unicode="&#x423;" horiz-adv-x="746" 
d="M179 291q-6 0 -14.5 2t-12.5 16l-112 377q-2 6 1.5 10t9.5 4h95q6 0 14.5 -2t12.5 -16l77 -271h256l67 271q3 14 12.5 16t14.5 2h95q14 0 11 -14l-142 -536q-3 -11 -8 -26t-12.5 -31t-18.5 -31t-25 -27q-22 -17 -53 -26t-63 -9h-210q-5 0 -9.5 4.5t-4.5 9.5v92
q0 5 4.5 9.5t9.5 4.5h190q12 0 29.5 4t28.5 13q21 16 27 45l27 109h-297z" />
    <glyph glyph-name="afii10038" unicode="&#x424;" horiz-adv-x="1004" 
d="M769 575q35 0 75.5 -15t69.5 -42q10 -9 21 -23t21 -33.5t16.5 -45t6.5 -56.5q0 -32 -6.5 -57t-16.5 -44.5t-21 -33.5t-21 -23q-29 -27 -69.5 -42t-75.5 -15h-202v-131q0 -5 -4.5 -9.5t-9.5 -4.5h-102q-5 0 -9.5 4.5t-4.5 9.5v131h-202q-35 0 -75.5 15t-69.5 42
q-10 9 -21.5 23t-21 33.5t-16 44.5t-6.5 57q0 31 6.5 56.5t16 45t21 33.5t21.5 23q29 27 69.5 42t75.5 15h202v111q0 5 4.5 9.5t9.5 4.5h102q5 0 9.5 -4.5t4.5 -9.5v-111h202zM746 265q44 0 71 26.5t27 68.5t-27 68.5t-71 26.5h-179v-190h179zM437 455h-179q-44 0 -71 -26.5
t-27 -68.5t27 -68.5t71 -26.5h179v190z" />
    <glyph glyph-name="afii10039" unicode="&#x425;" horiz-adv-x="758" 
d="M458 354l278 -340q4 -5 1.5 -9.5t-9.5 -4.5h-129q-14 0 -22 5.5t-13 12.5l-188 243l-188 -243q-5 -7 -13 -12.5t-22 -5.5h-123q-7 0 -9.5 4.5t1.5 9.5l278 340l-271 332q-4 5 -1.5 9.5t9.5 4.5h129q14 0 22 -5.5t13 -12.5l181 -232l181 232q5 7 13 12.5t22 5.5h123
q7 0 9.5 -4.5t-1.5 -9.5z" />
    <glyph glyph-name="afii10040" unicode="&#x426;" horiz-adv-x="839" 
d="M608 120v566q0 5 4.5 9.5t9.5 4.5h102q5 0 9.5 -4.5t4.5 -9.5v-566h47q5 0 9.5 -4.5t4.5 -9.5v-232q0 -5 -4.5 -9.5t-9.5 -4.5h-102q-5 0 -9.5 4.5t-4.5 9.5v126h-585q-5 0 -9.5 4.5t-4.5 9.5v672q0 5 4.5 9.5t9.5 4.5h102q5 0 9.5 -4.5t4.5 -9.5v-566h408z" />
    <glyph glyph-name="afii10041" unicode="&#x427;" horiz-adv-x="765" 
d="M565 686q0 5 4.5 9.5t9.5 4.5h102q5 0 9.5 -4.5t4.5 -9.5v-672q0 -5 -4.5 -9.5t-9.5 -4.5h-102q-5 0 -9.5 4.5t-4.5 9.5v256h-305q-53 0 -95 14t-68 37q-19 17 -30.5 36.5t-17.5 39.5t-7.5 39t-1.5 34v216q0 5 4.5 9.5t9.5 4.5h102q5 0 9.5 -4.5t4.5 -9.5v-210
q0 -14 4 -32.5t21 -32.5t40 -17.5t37 -3.5h293v296z" />
    <glyph glyph-name="afii10042" unicode="&#x428;" horiz-adv-x="1078" 
d="M878 120v566q0 5 4.5 9.5t9.5 4.5h102q5 0 9.5 -4.5t4.5 -9.5v-672q0 -5 -4.5 -9.5t-9.5 -4.5h-910q-5 0 -9.5 4.5t-4.5 9.5v672q0 5 4.5 9.5t9.5 4.5h102q5 0 9.5 -4.5t4.5 -9.5v-566h274v566q0 5 4.5 9.5t9.5 4.5h102q5 0 9.5 -4.5t4.5 -9.5v-566h274z" />
    <glyph glyph-name="afii10043" unicode="&#x429;" horiz-adv-x="1109" 
d="M878 120v566q0 5 4.5 9.5t9.5 4.5h102q5 0 9.5 -4.5t4.5 -9.5v-566h47q5 0 9.5 -4.5t4.5 -9.5v-232q0 -5 -4.5 -9.5t-9.5 -4.5h-102q-5 0 -9.5 4.5t-4.5 9.5v126h-855q-5 0 -9.5 4.5t-4.5 9.5v672q0 5 4.5 9.5t9.5 4.5h102q5 0 9.5 -4.5t4.5 -9.5v-566h274v566
q0 5 4.5 9.5t9.5 4.5h102q5 0 9.5 -4.5t4.5 -9.5v-566h274z" />
    <glyph glyph-name="afii10044" unicode="&#x42a;" horiz-adv-x="984" 
d="M734 430q35 0 75.5 -15t69.5 -42q10 -9 21 -23t21 -33.5t16.5 -45t6.5 -56.5q0 -32 -6.5 -57t-16.5 -44.5t-21 -33.5t-21 -23q-29 -27 -69.5 -42t-75.5 -15h-446q-5 0 -9.5 4.5t-4.5 9.5v566h-240q-5 0 -9.5 4.5t-4.5 9.5v92q0 5 4.5 9.5t9.5 4.5h356q5 0 9.5 -4.5
t4.5 -9.5v-256h330zM404 120h307q44 0 71 26.5t27 68.5t-27 68.5t-71 26.5h-307v-190z" />
    <glyph glyph-name="afii10045" unicode="&#x42b;" horiz-adv-x="1004" 
d="M920 700q5 0 9.5 -4.5t4.5 -9.5v-672q0 -5 -4.5 -9.5t-9.5 -4.5h-102q-5 0 -9.5 4.5t-4.5 9.5v672q0 5 4.5 9.5t9.5 4.5h102zM520 430q35 0 75.5 -15t69.5 -42q10 -9 21 -23t21 -33.5t16.5 -45t6.5 -56.5q0 -32 -6.5 -57t-16.5 -44.5t-21 -33.5t-21 -23
q-29 -27 -69.5 -42t-75.5 -15h-436q-5 0 -9.5 4.5t-4.5 9.5v672q0 5 4.5 9.5t9.5 4.5h102q5 0 9.5 -4.5t4.5 -9.5v-256h320zM200 120h297q44 0 71 26.5t27 68.5t-27 68.5t-71 26.5h-297v-190z" />
    <glyph glyph-name="afii10046" unicode="&#x42c;" horiz-adv-x="792" 
d="M542 430q35 0 75.5 -15t69.5 -42q10 -9 21 -23t21 -33.5t16.5 -45t6.5 -56.5q0 -32 -6.5 -57t-16.5 -44.5t-21 -33.5t-21 -23q-29 -27 -69.5 -42t-75.5 -15h-458q-5 0 -9.5 4.5t-4.5 9.5v672q0 5 4.5 9.5t9.5 4.5h102q5 0 9.5 -4.5t4.5 -9.5v-256h342zM200 120h319
q44 0 71 26.5t27 68.5t-27 68.5t-71 26.5h-319v-190z" />
    <glyph glyph-name="afii10047" unicode="&#x42d;" horiz-adv-x="780" 
d="M599 410q-9 39 -28 70.5t-44 54.5q-32 29 -76 45.5t-90 16.5q-37 0 -77 -12.5t-78 -46.5q-23 -20 -36.5 -39.5t-24.5 -39.5q-3 -5 -7.5 -9t-16.5 3l-76 42q-12 7 -9.5 16.5t4.5 14.5q17 30 41 60t54 53q40 32 96.5 54t131.5 22q79 0 142.5 -24.5t109.5 -63.5
q54 -46 89.5 -117t35.5 -160t-35.5 -160t-89.5 -117q-46 -39 -109.5 -63.5t-142.5 -24.5q-75 0 -131.5 22t-96.5 54q-30 23 -54 53t-41 60q-2 5 -4.5 14.5t9.5 16.5l76 42q12 7 16.5 3t7.5 -9q11 -20 24.5 -39.5t36.5 -39.5q38 -34 78 -46.5t77 -12.5q46 0 90 16.5t76 45.5
q25 23 44 54.5t28 70.5h-323q-5 0 -9.5 4.5t-4.5 9.5v92q0 5 4.5 9.5t9.5 4.5h323z" />
    <glyph glyph-name="afii10048" unicode="&#x42e;" horiz-adv-x="1029" 
d="M275 410q9 70 37.5 120.5t58.5 81.5q16 16 39.5 34.5t55.5 33.5t72.5 25t90.5 10q88 0 151.5 -30t106.5 -73q19 -20 37.5 -45.5t33 -58.5t23 -72.5t8.5 -85.5q0 -47 -8.5 -86t-23 -72t-33 -59t-37.5 -45q-43 -43 -106.5 -73t-151.5 -30q-50 0 -90.5 10t-72.5 25t-55.5 33
t-39.5 35q-30 31 -58.5 81.5t-37.5 120.5h-75v-276q0 -5 -4.5 -9.5t-9.5 -4.5h-102q-5 0 -9.5 4.5t-4.5 9.5v672q0 5 4.5 9.5t9.5 4.5h102q5 0 9.5 -4.5t4.5 -9.5v-276h75zM854 350q0 56 -18.5 102t-49.5 78t-72 49.5t-85 17.5t-85 -17.5t-72 -49.5t-49.5 -78t-18.5 -102
t18.5 -102t49.5 -78t72 -49.5t85 -17.5t85 17.5t72 49.5t49.5 78t18.5 102z" />
    <glyph glyph-name="afii10049" unicode="&#x42f;" horiz-adv-x="804" 
d="M604 580h-319q-44 0 -71 -26.5t-27 -68.5t27 -68.5t71 -26.5h319v190zM720 700q5 0 9.5 -4.5t4.5 -9.5v-672q0 -5 -4.5 -9.5t-9.5 -4.5h-102q-5 0 -9.5 4.5t-4.5 9.5v256h-243l-157 -252q-4 -7 -10.5 -12.5t-21.5 -5.5h-111q-8 0 -10.5 5.5t2.5 12.5l172 261
q-38 8 -65 24t-44 32q-34 32 -49 70t-15 82q0 54 19.5 92.5t45.5 63.5q29 27 68.5 42t80.5 15h454z" />
    <glyph glyph-name="afii10065" unicode="&#x430;" horiz-adv-x="694" 
d="M436 448h-178l-48 -242h274zM187 90l-14 -71q-1 -5 -5 -12t-17 -7h-100q-8 0 -10 5q-2 2 -1.5 6.5t1.5 7.5l118 526q2 6 7 12.5t16 6.5h330q11 0 16 -6.5t7 -12.5l118 -526q1 -3 1.5 -7.5t-1.5 -6.5q-3 -5 -10 -5h-100q-13 0 -17 7t-5 12l-14 71h-320z" />
    <glyph glyph-name="afii10066" unicode="&#x431;" horiz-adv-x="755" 
d="M532 350q35 0 66 -13t54 -34q20 -20 36.5 -51.5t16.5 -76.5t-16.5 -76.5t-36.5 -51.5q-23 -21 -54 -34t-66 -13h-448q-5 0 -9.5 4.5t-4.5 9.5v536q0 5 4.5 9.5t9.5 4.5h547q5 0 9.5 -4.5t4.5 -9.5v-88q0 -5 -4.5 -9.5t-9.5 -4.5h-436v-98h337zM195 116h319q30 0 45.5 18
t15.5 41t-15.5 41t-45.5 18h-319v-118z" />
    <glyph glyph-name="afii10067" unicode="&#x432;" horiz-adv-x="765" 
d="M544 564q36 0 67 -13t51 -34q17 -17 27.5 -42.5t10.5 -58.5q0 -26 -7 -46.5t-17 -35.5q-9 -14 -23 -27t-33 -23q46 -23 65 -58t20 -76q0 -32 -11.5 -59.5t-33 -47.5t-51.5 -31.5t-66 -11.5h-459q-5 0 -9.5 4.5t-4.5 9.5v536q0 5 4.5 9.5t9.5 4.5h460zM195 116h320
q28 0 44 15t16 37q0 25 -19 40.5t-46 15.5h-315v-108zM507 340q27 0 46 15.5t19 40.5q0 22 -16 37t-44 15h-317v-108h312z" />
    <glyph glyph-name="afii10068" unicode="&#x433;" horiz-adv-x="600" 
d="M197 14q0 -5 -4.5 -9.5t-9.5 -4.5h-99q-5 0 -9.5 4.5t-4.5 9.5v536q0 5 4.5 9.5t9.5 4.5h482q5 0 9.5 -4.5t4.5 -9.5v-88q0 -5 -4.5 -9.5t-9.5 -4.5h-369v-434z" />
    <glyph glyph-name="afii10069" unicode="&#x434;" horiz-adv-x="754" 
d="M700 116q5 0 9.5 -4.5t4.5 -9.5v-218q0 -5 -4.5 -9.5t-9.5 -4.5h-102q-5 0 -9.5 4.5t-4.5 9.5v116h-424v-116q0 -5 -4.5 -9.5t-9.5 -4.5h-102q-5 0 -9.5 4.5t-4.5 9.5v218q0 5 4.5 9.5t9.5 4.5h42l105 426q4 15 13.5 18.5t14.5 3.5h411q5 0 9.5 -4.5t4.5 -9.5v-434h56z
M519 448h-226l-78 -332h304v332z" />
    <glyph glyph-name="afii10070" unicode="&#x435;" horiz-adv-x="740" 
d="M589 340q5 0 9.5 -4.5t4.5 -9.5v-88q0 -5 -4.5 -9.5t-9.5 -4.5h-394v-108h491q5 0 9.5 -4.5t4.5 -9.5v-88q0 -5 -4.5 -9.5t-9.5 -4.5h-602q-5 0 -9.5 4.5t-4.5 9.5v536q0 5 4.5 9.5t9.5 4.5h602q5 0 9.5 -4.5t4.5 -9.5v-88q0 -5 -4.5 -9.5t-9.5 -4.5h-491v-108h394z" />
    <glyph glyph-name="afii10072" unicode="&#x436;" horiz-adv-x="959" 
d="M663 340q18 0 31 4.5t21 12.5q10 11 12 23t2 18v69q0 19 5.5 37.5t16.5 30.5q10 11 27.5 20t40.5 9h76q5 0 9.5 -4.5t4.5 -9.5v-88q0 -5 -4.5 -9.5t-9.5 -4.5h-9q-17 0 -24.5 -12.5t-7.5 -27.5v-46q0 -12 -1.5 -23t-9.5 -24q-5 -10 -13 -17.5t-17 -13.5q12 -6 28.5 -17.5
t30.5 -28.5q18 -23 23 -46t5 -41v-137q0 -5 -4.5 -9.5t-9.5 -4.5h-97q-5 0 -9.5 4.5t-4.5 9.5v123q0 21 -6.5 36t-14.5 23q-10 11 -27.5 19.5t-40.5 8.5h-144v-210q0 -5 -4.5 -9.5t-9.5 -4.5h-97q-5 0 -9.5 4.5t-4.5 9.5v210h-144q-23 0 -40.5 -8.5t-27.5 -19.5
q-8 -8 -14.5 -23t-6.5 -36v-123q0 -5 -4.5 -9.5t-9.5 -4.5h-97q-5 0 -9.5 4.5t-4.5 9.5v137q0 18 5 41t23 46q14 17 30.5 28.5t28.5 17.5q-9 6 -17 13.5t-13 17.5q-8 13 -9.5 24t-1.5 23v46q0 15 -7.5 27.5t-24.5 12.5h-9q-5 0 -9.5 4.5t-4.5 9.5v88q0 5 4.5 9.5t9.5 4.5h76
q23 0 40.5 -9t27.5 -20q11 -12 16.5 -30.5t5.5 -37.5v-69q0 -6 2 -18t12 -23q8 -8 21 -12.5t31 -4.5h121v210q0 5 4.5 9.5t9.5 4.5h97q5 0 9.5 -4.5t4.5 -9.5v-210h121z" />
    <glyph glyph-name="afii10073" unicode="&#x437;" horiz-adv-x="728" 
d="M507 564q36 0 67 -13t51 -34q17 -17 27.5 -42.5t10.5 -58.5q0 -26 -7 -46.5t-17 -35.5q-9 -14 -23 -27t-33 -23q46 -23 65 -58t20 -76q0 -32 -11.5 -59.5t-33 -47.5t-51.5 -31.5t-66 -11.5h-277q-15 0 -33.5 1.5t-38 6t-39 13.5t-35.5 24q-6 6 -14.5 15.5t-16 24.5
t-12.5 34.5t-5 45.5v15q0 5 4.5 9.5t9.5 4.5h97q5 0 9.5 -4.5t4.5 -9.5v-1q0 -12 4 -23.5t18 -21.5q13 -10 31 -14t37 -4h228q28 0 44 15t16 37q0 25 -19 40.5t-46 15.5h-266q-5 0 -9.5 4.5t-4.5 9.5v88q0 5 4.5 9.5t9.5 4.5h263q27 0 46 15.5t19 40.5q0 22 -16 37t-44 15
h-362q-5 0 -9.5 4.5t-4.5 9.5v88q0 5 4.5 9.5t9.5 4.5h394z" />
    <glyph glyph-name="afii10074" unicode="&#x438;" horiz-adv-x="762" 
d="M692 14q0 -5 -4.5 -9.5t-9.5 -4.5h-97q-5 0 -9.5 4.5t-4.5 9.5v380l-371 -381q-6 -6 -12 -9.5t-16 -3.5h-84q-5 0 -9.5 4.5t-4.5 9.5v536q0 5 4.5 9.5t9.5 4.5h97q5 0 9.5 -4.5t4.5 -9.5v-380l371 381q6 6 12 9.5t16 3.5h84q5 0 9.5 -4.5t4.5 -9.5v-536z" />
    <glyph glyph-name="afii10075" unicode="&#x439;" horiz-adv-x="762" 
d="M692 14q0 -5 -4.5 -9.5t-9.5 -4.5h-97q-5 0 -9.5 4.5t-4.5 9.5v380l-371 -381q-6 -6 -12 -9.5t-16 -3.5h-84q-5 0 -9.5 4.5t-4.5 9.5v536q0 5 4.5 9.5t9.5 4.5h97q5 0 9.5 -4.5t4.5 -9.5v-380l371 381q6 6 12 9.5t16 3.5h84q5 0 9.5 -4.5t4.5 -9.5v-536zM537 709
q2 0 7 -2t5 -10v-26q0 -28 -19.5 -47.5t-47.5 -19.5h-198q-28 0 -47.5 19.5t-19.5 47.5v26q0 8 5 10t7 2h77q5 0 8.5 -3.5t3.5 -8.5v-3q0 -10 11 -15t24 -5h60q13 0 24 5t11 15v3q0 5 3.5 8.5t8.5 3.5h77z" />
    <glyph glyph-name="afii10076" unicode="&#x43a;" horiz-adv-x="743" 
d="M195 340h252q18 0 31 4.5t21 12.5q10 11 12 23t2 18v69q0 19 5.5 37.5t16.5 30.5q10 11 27.5 20t40.5 9h76q5 0 9.5 -4.5t4.5 -9.5v-88q0 -5 -4.5 -9.5t-9.5 -4.5h-9q-17 0 -24.5 -12.5t-7.5 -27.5v-46q0 -12 -1.5 -23t-9.5 -24q-5 -10 -13 -17.5t-17 -13.5
q12 -6 28.5 -17.5t30.5 -28.5q18 -23 23 -46t5 -41v-137q0 -5 -4.5 -9.5t-9.5 -4.5h-97q-5 0 -9.5 4.5t-4.5 9.5v123q0 21 -6.5 36t-14.5 23q-10 11 -27.5 19.5t-40.5 8.5h-275v-210q0 -5 -4.5 -9.5t-9.5 -4.5h-97q-5 0 -9.5 4.5t-4.5 9.5v536q0 5 4.5 9.5t9.5 4.5h97
q5 0 9.5 -4.5t4.5 -9.5v-210z" />
    <glyph glyph-name="afii10077" unicode="&#x43b;" horiz-adv-x="734" 
d="M297 448l-65 -353q-3 -17 -11 -37.5t-25 -35.5q-18 -16 -38 -19t-31 -3h-83q-5 0 -9.5 4.5t-4.5 9.5v88q0 5 4.5 9.5t9.5 4.5h29q18 0 30 9.5t15 25.5l77 394q1 5 5 12t17 7h433q5 0 9.5 -4.5t4.5 -9.5v-536q0 -5 -4.5 -9.5t-9.5 -4.5h-97q-5 0 -9.5 4.5t-4.5 9.5v434
h-242z" />
    <glyph glyph-name="afii10078" unicode="&#x43c;" horiz-adv-x="884" 
d="M504 15q-4 -8 -9 -11.5t-14 -3.5h-78q-16 0 -23 15l-187 360v-361q0 -5 -4.5 -9.5t-9.5 -4.5h-95q-5 0 -9.5 4.5t-4.5 9.5v536q0 5 4.5 9.5t9.5 4.5h126q11 0 17 -6.5t8 -11.5l207 -396l207 396q2 5 8 11.5t17 6.5h126q5 0 9.5 -4.5t4.5 -9.5v-536q0 -5 -4.5 -9.5
t-9.5 -4.5h-95q-5 0 -9.5 4.5t-4.5 9.5v361z" />
    <glyph glyph-name="afii10079" unicode="&#x43d;" horiz-adv-x="762" 
d="M567 340v210q0 5 4.5 9.5t9.5 4.5h97q5 0 9.5 -4.5t4.5 -9.5v-536q0 -5 -4.5 -9.5t-9.5 -4.5h-97q-5 0 -9.5 4.5t-4.5 9.5v210h-372v-210q0 -5 -4.5 -9.5t-9.5 -4.5h-97q-5 0 -9.5 4.5t-4.5 9.5v536q0 5 4.5 9.5t9.5 4.5h97q5 0 9.5 -4.5t4.5 -9.5v-210h372z" />
    <glyph glyph-name="afii10080" unicode="&#x43e;" horiz-adv-x="698" 
d="M349 577q78 0 132 -26.5t89 -59.5q45 -43 66.5 -97t21.5 -112t-21.5 -112t-66.5 -97q-35 -33 -89 -59.5t-132 -26.5t-132 26.5t-89 59.5q-45 43 -66.5 97t-21.5 112t21.5 112t66.5 97q35 33 89 59.5t132 26.5zM349 463q-46 0 -77.5 -16t-48.5 -33q-19 -18 -36 -50.5
t-17 -81.5t17 -81.5t36 -50.5q17 -17 48.5 -33t77.5 -16t77.5 16t48.5 33q19 18 36 50.5t17 81.5t-17 81.5t-36 50.5q-17 17 -48.5 33t-77.5 16z" />
    <glyph glyph-name="afii10081" unicode="&#x43f;" horiz-adv-x="762" 
d="M195 448v-434q0 -5 -4.5 -9.5t-9.5 -4.5h-97q-5 0 -9.5 4.5t-4.5 9.5v536q0 5 4.5 9.5t9.5 4.5h594q5 0 9.5 -4.5t4.5 -9.5v-536q0 -5 -4.5 -9.5t-9.5 -4.5h-97q-5 0 -9.5 4.5t-4.5 9.5v434h-372z" />
    <glyph glyph-name="afii10082" unicode="&#x440;" horiz-adv-x="736" 
d="M195 14q0 -5 -4.5 -9.5t-9.5 -4.5h-97q-5 0 -9.5 4.5t-4.5 9.5v536q0 5 4.5 9.5t9.5 4.5h439q35 0 66 -13t54 -34q20 -20 36.5 -51.5t16.5 -76.5t-16.5 -76.5t-36.5 -51.5q-23 -21 -54 -34t-66 -13h-328v-200zM505 330q30 0 45.5 18t15.5 41t-15.5 41t-45.5 18h-310v-118
h310z" />
    </font>
</defs>
</svg>
